<svg width="193" height="196" viewBox="0 0 193 196" fill="none" xmlns="http://www.w3.org/2000/svg">
<circle cx="43.4383" cy="151.826" r="13.3281" fill="#211968" stroke="#211968" stroke-width="0.2203"/>
<circle cx="142.573" cy="142.133" r="9.36274" fill="#211968" stroke="#211968" stroke-width="0.2203"/>
<circle cx="142.573" cy="50.0472" r="14.6499" fill="#211968" stroke="#211968" stroke-width="0.2203"/>
<circle cx="86.3967" cy="106.885" r="14.6499" fill="#211968" stroke="#211968" stroke-width="0.2203"/>
<mask id="path-5-inside-1_46_85" fill="white">
<path d="M162.621 50.1574C162.621 61.2901 153.596 70.3149 142.463 70.3149C131.33 70.3149 122.306 61.2901 122.306 50.1574C122.306 39.0248 131.33 30 142.463 30C153.596 30 162.621 39.0248 162.621 50.1574ZM124.321 50.1574C124.321 60.1768 132.444 68.2991 142.463 68.2991C152.482 68.2991 160.605 60.1768 160.605 50.1574C160.605 40.1381 152.482 32.0157 142.463 32.0157C132.444 32.0157 124.321 40.1381 124.321 50.1574Z"/>
</mask>
<path d="M162.621 50.1574C162.621 61.2901 153.596 70.3149 142.463 70.3149C131.33 70.3149 122.306 61.2901 122.306 50.1574C122.306 39.0248 131.33 30 142.463 30C153.596 30 162.621 39.0248 162.621 50.1574ZM124.321 50.1574C124.321 60.1768 132.444 68.2991 142.463 68.2991C152.482 68.2991 160.605 60.1768 160.605 50.1574C160.605 40.1381 152.482 32.0157 142.463 32.0157C132.444 32.0157 124.321 40.1381 124.321 50.1574Z" fill="#211968" stroke="#211968" stroke-width="0.4406" mask="url(#path-5-inside-1_46_85)"/>
<mask id="path-6-inside-2_46_85" fill="white">
<path d="M123.848 106.885C123.848 127.568 107.08 144.336 86.3968 144.336C65.7132 144.336 48.9458 127.568 48.9458 106.885C48.9458 86.201 65.7132 69.4336 86.3968 69.4336C107.08 69.4336 123.848 86.201 123.848 106.885ZM52.6909 106.885C52.6909 125.5 67.7815 140.59 86.3968 140.59C105.012 140.59 120.103 125.5 120.103 106.885C120.103 88.2693 105.012 73.1787 86.3968 73.1787C67.7815 73.1787 52.6909 88.2693 52.6909 106.885Z"/>
</mask>
<path d="M123.848 106.885C123.848 127.568 107.08 144.336 86.3968 144.336C65.7132 144.336 48.9458 127.568 48.9458 106.885C48.9458 86.201 65.7132 69.4336 86.3968 69.4336C107.08 69.4336 123.848 86.201 123.848 106.885ZM52.6909 106.885C52.6909 125.5 67.7815 140.59 86.3968 140.59C105.012 140.59 120.103 125.5 120.103 106.885C120.103 88.2693 105.012 73.1787 86.3968 73.1787C67.7815 73.1787 52.6909 88.2693 52.6909 106.885Z" fill="#211968" stroke="#211968" stroke-width="0.4406" mask="url(#path-6-inside-2_46_85)"/>
<path d="M85.846 107.546L128.364 64.587" stroke="#211968" stroke-width="2.6436" stroke-miterlimit="1" stroke-linecap="square"/>
<path d="M41.4556 153.588L61.5029 132.66" stroke="#211968" stroke-width="2.6436"/>
<path d="M87.0913 106.421C86.4702 106.037 85.6558 106.23 85.2721 106.851C84.8885 107.472 85.081 108.287 85.7021 108.67L87.0913 106.421ZM85.7021 108.67L141.879 143.367L143.268 141.118L87.0913 106.421L85.7021 108.67Z" fill="#211968"/>
</svg>
