<svg width="32" height="32" viewBox="0 0 32 32" fill="none" xmlns="http://www.w3.org/2000/svg">
<rect width="32" height="32" rx="16" fill="#211968"/>
<ellipse cx="7.68727" cy="24.5205" rx="2.11281" ry="2.11281" fill="white"/>
<ellipse cx="23.2735" cy="22.9965" rx="1.48936" ry="1.48936" fill="white"/>
<ellipse cx="23.2735" cy="8.51857" rx="2.32063" ry="2.32063" fill="white"/>
<ellipse cx="14.4414" cy="17.4548" rx="2.32063" ry="2.32063" fill="white"/>
<path d="M26.4255 8.53589C26.4255 10.2862 25.0066 11.7051 23.2563 11.7051C21.5059 11.7051 20.087 10.2862 20.087 8.53589C20.087 6.78558 21.5059 5.36667 23.2563 5.36667C25.0066 5.36667 26.4255 6.78558 26.4255 8.53589ZM20.404 8.53589C20.404 10.1112 21.681 11.3882 23.2563 11.3882C24.8315 11.3882 26.1085 10.1112 26.1085 8.53589C26.1085 6.96061 24.8315 5.68359 23.2563 5.68359C21.681 5.68359 20.404 6.96061 20.404 8.53589Z" fill="white"/>
<path d="M20.3295 17.4547C20.3295 20.7067 17.6933 23.3429 14.4414 23.3429C11.1894 23.3429 8.55322 20.7067 8.55322 17.4547C8.55322 14.2028 11.1894 11.5666 14.4414 11.5666C17.6933 11.5666 20.3295 14.2028 20.3295 17.4547ZM9.14204 17.4547C9.14204 20.3815 11.5146 22.7541 14.4414 22.7541C17.3681 22.7541 19.7407 20.3815 19.7407 17.4547C19.7407 14.528 17.3681 12.1554 14.4414 12.1554C11.5146 12.1554 9.14204 14.528 9.14204 17.4547Z" fill="white"/>
<path d="M14.3547 17.5586L21.0395 10.8046" stroke="white" stroke-width="0.278481" stroke-miterlimit="1" stroke-linecap="square"/>
<path d="M7.37561 24.7976L10.5275 21.5072" stroke="white" stroke-width="0.278481"/>
<path d="M14.5146 17.4402C14.4491 17.3998 14.3634 17.4201 14.3229 17.4855C14.2825 17.5509 14.3028 17.6367 14.3682 17.6771L14.5146 17.4402ZM14.4414 17.5587L14.3682 17.6771L23.2005 23.1323L23.2736 23.0139L23.3468 22.8954L14.5146 17.4402L14.4414 17.5587Z" fill="white"/>
</svg>
