<svg width="90" height="90" viewBox="0 0 90 90" fill="none" xmlns="http://www.w3.org/2000/svg">
<rect width="90" height="90" rx="45" fill="white"/>
<circle cx="29.81" cy="52.2722" r="3.86076" fill="#211968"/>
<circle cx="58.291" cy="49.4873" r="2.72152" fill="#211968"/>
<circle cx="58.291" cy="23.0317" r="4.24051" fill="#211968"/>
<circle cx="42.1518" cy="39.3608" r="4.24051" fill="#211968"/>
<path d="M64.0505 23.0633C64.0505 26.2617 61.4578 28.8544 58.2594 28.8544C55.061 28.8544 52.4683 26.2617 52.4683 23.0633C52.4683 19.8649 55.061 17.2722 58.2594 17.2722C61.4578 17.2722 64.0505 19.8649 64.0505 23.0633ZM53.0474 23.0633C53.0474 25.9418 55.3809 28.2753 58.2594 28.2753C61.1379 28.2753 63.4714 25.9418 63.4714 23.0633C63.4714 20.1848 61.1379 17.8513 58.2594 17.8513C55.3809 17.8513 53.0474 20.1848 53.0474 23.0633Z" fill="#211968"/>
<path d="M52.9113 39.3608C52.9113 45.3031 48.0941 50.1203 42.1518 50.1203C36.2095 50.1203 31.3923 45.3031 31.3923 39.3608C31.3923 33.4185 36.2095 28.6013 42.1518 28.6013C48.0941 28.6013 52.9113 33.4185 52.9113 39.3608ZM32.4683 39.3608C32.4683 44.7088 36.8038 49.0443 42.1518 49.0443C47.4999 49.0443 51.8354 44.7088 51.8354 39.3608C51.8354 34.0127 47.4999 29.6772 42.1518 29.6772C36.8038 29.6772 32.4683 34.0127 32.4683 39.3608Z" fill="#211968"/>
<path d="M41.9935 39.5506L54.2087 27.2089" stroke="#150A79" stroke-width="0.759494" stroke-miterlimit="1" stroke-linecap="square"/>
<path d="M29.2404 52.7785L34.9999 46.7658" stroke="#150A79" stroke-width="0.759494"/>
<path d="M42.3513 39.2275C42.1729 39.1173 41.9389 39.1726 41.8286 39.3511C41.7184 39.5295 41.7737 39.7635 41.9522 39.8737L42.3513 39.2275ZM41.9522 39.8737L58.0914 49.8421L58.4905 49.1959L42.3513 39.2275L41.9522 39.8737Z" fill="#150A79"/>
<path d="M25.4997 71.8403C24.9596 71.8403 24.4662 71.7544 24.0197 71.5827C23.5764 71.4078 23.1939 71.1643 22.8723 70.852C22.5507 70.5398 22.3024 70.1698 22.1276 69.742C21.9559 69.3111 21.87 68.8397 21.87 68.3276C21.87 67.8218 21.9574 67.355 22.1323 66.9272C22.3103 66.4963 22.5616 66.1216 22.8863 65.8032C23.2142 65.4847 23.5998 65.238 24.0432 65.0632C24.4897 64.8852 24.9814 64.7962 25.5185 64.7962C25.7839 64.7962 26.0852 64.8274 26.4224 64.8899C26.7596 64.9492 27.1015 65.0554 27.4481 65.2084L27.139 65.9952C26.7986 65.8547 26.4973 65.7626 26.2351 65.7189C25.9728 65.6751 25.7339 65.6533 25.5185 65.6533C25.1657 65.6533 24.8425 65.7189 24.549 65.85C24.2555 65.978 24.001 66.1622 23.7856 66.4027C23.5701 66.64 23.4031 66.9225 23.2844 67.2504C23.1689 67.5751 23.1111 67.9342 23.1111 68.3276C23.1111 68.7085 23.1689 69.0614 23.2844 69.3861C23.4 69.7108 23.5639 69.9934 23.7762 70.2338C23.9885 70.4711 24.2414 70.6569 24.5349 70.7911C24.8284 70.9223 25.15 70.9878 25.4997 70.9878C25.6371 70.9878 25.7808 70.9816 25.9306 70.9691C26.0836 70.9535 26.26 70.9176 26.4599 70.8614V68.5711H27.5277V71.3813C27.2998 71.4905 27.0625 71.5795 26.8158 71.6482C26.5723 71.7138 26.3365 71.7622 26.1086 71.7934C25.8807 71.8246 25.6777 71.8403 25.4997 71.8403ZM28.6879 71.7278V68.2433C28.6879 68.0247 28.677 67.7984 28.6551 67.5642C28.6333 67.33 28.5943 67.1036 28.538 66.8851H29.3998C29.4685 66.9506 29.5294 67.0474 29.5825 67.1754C29.6356 67.3035 29.6746 67.4455 29.6996 67.6016L29.7089 67.803L29.7979 67.6016C29.9228 67.355 30.0914 67.1598 30.3037 67.0162C30.5161 66.8726 30.7315 66.8008 30.9501 66.8008C31.0406 66.8008 31.1296 66.8101 31.217 66.8289C31.3045 66.8445 31.3997 66.8679 31.5027 66.8991L31.3669 67.8311C31.2514 67.7999 31.153 67.7796 31.0718 67.7703C30.9938 67.7578 30.9204 67.7515 30.8517 67.7515C30.6488 67.7515 30.4645 67.8155 30.2991 67.9435C30.1336 68.0684 30.0024 68.2495 29.9056 68.4868C29.812 68.7241 29.7651 69.0098 29.7651 69.3439V71.7278H28.6879ZM33.5506 71.8403C33.2415 71.8403 32.9745 71.7778 32.7497 71.6529C32.5249 71.5249 32.3516 71.3563 32.2299 71.1471C32.1112 70.9348 32.0519 70.7053 32.0519 70.4586C32.0519 70.1776 32.1299 69.9262 32.2861 69.7046C32.4453 69.4797 32.7123 69.294 33.0869 69.1472C33.4616 69.0005 33.9753 68.8974 34.6278 68.8381C34.6091 68.9568 34.5763 69.0738 34.5295 69.1894C34.4826 69.3049 34.4139 69.4048 34.3234 69.4891C34.236 69.5703 34.1204 69.6234 33.9768 69.6484C33.7739 69.6796 33.6146 69.7311 33.4991 69.8029C33.3836 69.8747 33.3008 69.959 33.2509 70.0558C33.204 70.1526 33.1806 70.2541 33.1806 70.3603C33.1806 70.5351 33.2415 70.6834 33.3633 70.8052C33.4882 70.927 33.6458 70.9878 33.8363 70.9878C34.0299 70.9878 34.2235 70.9301 34.4171 70.8146C34.6138 70.6959 34.7964 70.532 34.965 70.3228V68.7772C34.965 68.4338 34.8745 68.159 34.6934 67.9529C34.5154 67.7437 34.2438 67.6391 33.8785 67.6391C33.7192 67.6391 33.5522 67.6563 33.3773 67.6906C33.2056 67.7219 33.0073 67.7781 32.7825 67.8592L32.5062 67.1286C32.7934 66.9975 33.0729 66.9085 33.3445 66.8616C33.6162 66.8117 33.8597 66.7867 34.0752 66.7867C34.7153 66.7867 35.2086 66.9616 35.5552 67.3113C35.9049 67.6578 36.0797 68.1559 36.0797 68.8053V70.3837C36.0797 70.6335 36.0922 70.8708 36.1172 71.0956C36.1422 71.3173 36.1796 71.528 36.2296 71.7278H35.3912C35.3069 71.6779 35.2383 71.6108 35.1852 71.5265C35.1321 71.4422 35.0868 71.3516 35.0493 71.2548L35.0306 71.0768L34.9182 71.2408C34.6559 71.4874 34.4202 71.6498 34.211 71.7278C34.0049 71.8028 33.7848 71.8403 33.5506 71.8403ZM40.3336 71.7278V68.2573C40.3336 68.0794 40.2946 67.9326 40.2165 67.8171C40.1385 67.7016 40.0136 67.6438 39.8419 67.6438C39.7763 67.6438 39.7154 67.6516 39.6592 67.6672C39.603 67.6828 39.5312 67.6969 39.4438 67.7094C39.2845 67.7281 39.1424 67.6891 39.0176 67.5923C38.8958 67.4955 38.7818 67.3753 38.6757 67.2316C38.9941 67.0537 39.2673 66.9335 39.4953 66.871C39.7263 66.8054 39.9418 66.7727 40.1416 66.7727C40.3695 66.7727 40.585 66.8242 40.7879 66.9272C40.994 67.0303 41.1595 67.1926 41.2844 67.4143C41.4124 67.636 41.4764 67.9248 41.4764 68.2808V71.7278H40.3336ZM37.2893 71.7278V68.0653C37.2893 67.8905 37.2784 67.7047 37.2565 67.508C37.2347 67.3113 37.1972 67.1036 37.1441 66.8851H38.0668C38.2167 67.0537 38.3166 67.2207 38.3665 67.3862C38.4165 67.5517 38.4415 67.7281 38.4415 67.9154V71.7278H37.2893ZM44.8622 71.8403C44.3002 71.8403 43.8693 71.6716 43.5696 71.3344C43.2698 70.9972 43.12 70.5179 43.12 69.8966V67.7047H42.3097V67.0865L43.12 66.8851V65.7001L44.1972 65.3535V69.9387C44.1972 70.2572 44.2659 70.5132 44.4033 70.7068C44.5406 70.9004 44.7202 70.9972 44.9419 70.9972C45.0449 70.9972 45.1526 70.9878 45.265 70.9691C45.3806 70.9473 45.5195 70.9098 45.6819 70.8567L45.9254 71.6061C45.6912 71.6841 45.493 71.7419 45.3306 71.7794C45.1714 71.82 45.0152 71.8403 44.8622 71.8403ZM45.4055 67.7047C45.2369 67.7047 45.0949 67.6641 44.9793 67.5829C44.8638 67.4986 44.7686 67.394 44.6936 67.2691C44.6218 67.1442 44.5656 67.0162 44.525 66.8851H45.8692V67.7047H45.4055ZM47.1182 71.7278V64.918H51.1226V65.7704H48.2844V71.7278H47.1182ZM48.6403 68.5711C48.6809 68.4431 48.7371 68.3151 48.8089 68.1871C48.8839 68.0559 48.9791 67.9482 49.0946 67.8639C49.2133 67.7796 49.3569 67.7375 49.5255 67.7375H50.8041V68.5711H48.6403ZM52.4818 71.7278V64.6276H53.6105V71.7278H52.4818ZM57.0387 71.8403C56.6047 71.8403 56.2051 71.7419 55.8397 71.5452C55.4744 71.3485 55.1809 71.0612 54.9592 70.6834C54.7376 70.3056 54.6267 69.8451 54.6267 69.3018C54.6267 68.8678 54.7001 68.4915 54.8468 68.173C54.9936 67.8546 55.1856 67.5923 55.4229 67.3862C55.6633 67.1801 55.924 67.0271 56.2051 66.9272C56.4892 66.8242 56.7671 66.7727 57.0387 66.7727C57.5258 66.7727 57.9505 66.8819 58.3127 67.1005C58.6749 67.3191 58.9543 67.6188 59.151 67.9997C59.3508 68.3807 59.4508 68.8147 59.4508 69.3018C59.4508 69.7014 59.3836 70.0589 59.2494 70.3743C59.1151 70.6897 58.9324 70.9566 58.7014 71.1752C58.4735 71.3906 58.2159 71.5561 57.9286 71.6716C57.6413 71.7841 57.3447 71.8403 57.0387 71.8403ZM57.0387 70.9925C57.3041 70.9925 57.5258 70.916 57.7038 70.763C57.8818 70.61 58.0145 70.4055 58.1019 70.1495C58.1924 69.8935 58.2377 69.6109 58.2377 69.3018C58.2377 68.9614 58.1878 68.6648 58.0878 68.4119C57.9879 68.159 57.8474 67.9638 57.6663 67.8265C57.4884 67.6891 57.2792 67.6204 57.0387 67.6204C56.7983 67.6204 56.5876 67.6891 56.4065 67.8265C56.2254 67.9638 56.0849 68.159 55.9849 68.4119C55.885 68.6648 55.8351 68.9614 55.8351 69.3018C55.8351 69.7982 55.9412 70.2041 56.1535 70.5195C56.369 70.8349 56.664 70.9925 57.0387 70.9925ZM64.8414 71.7278L63.1319 66.8851H64.3402L65.4034 70.4492L65.469 70.7115L65.5345 70.4492L66.5883 66.8851H67.7639L66.0591 71.7278H64.8414ZM61.7362 71.7278L60.0267 66.8851H61.2304L62.2935 70.4492L62.3591 70.7115L62.4247 70.4492L63.1787 68.4353C63.2755 68.5883 63.3598 68.7835 63.4316 69.0208C63.5034 69.2581 63.5425 69.511 63.5487 69.7795C63.555 70.0449 63.5112 70.2978 63.4176 70.5382L62.9164 71.7278H61.7362Z" fill="#211968"/>
</svg>
