<svg width="981" height="630" viewBox="0 0 981 630" fill="none" xmlns="http://www.w3.org/2000/svg">
<g clip-path="url(#clip0_947_2018)">
<rect width="981" height="630" fill="#211968"/>
<g filter="url(#filter0_f_947_2018)">
<ellipse cx="879.5" cy="616" rx="335.5" ry="339" fill="#1E13F8"/>
</g>
<circle cx="437.628" cy="235.826" r="13.3281" fill="white" stroke="white" stroke-width="0.2203"/>
<circle cx="536.763" cy="226.133" r="9.36274" fill="white" stroke="white" stroke-width="0.2203"/>
<circle cx="536.763" cy="134.047" r="14.6499" fill="white" stroke="white" stroke-width="0.2203"/>
<circle cx="480.587" cy="190.885" r="14.6499" fill="white" stroke="white" stroke-width="0.2203"/>
<mask id="path-6-inside-1_947_2018" fill="white">
<path d="M556.81 134.157C556.81 145.29 547.786 154.315 536.653 154.315C525.52 154.315 516.496 145.29 516.496 134.157C516.496 123.025 525.52 114 536.653 114C547.786 114 556.81 123.025 556.81 134.157ZM518.511 134.157C518.511 144.177 526.634 152.299 536.653 152.299C546.672 152.299 554.795 144.177 554.795 134.157C554.795 124.138 546.672 116.016 536.653 116.016C526.634 116.016 518.511 124.138 518.511 134.157Z"/>
</mask>
<path d="M556.81 134.157C556.81 145.29 547.786 154.315 536.653 154.315C525.52 154.315 516.496 145.29 516.496 134.157C516.496 123.025 525.52 114 536.653 114C547.786 114 556.81 123.025 556.81 134.157ZM518.511 134.157C518.511 144.177 526.634 152.299 536.653 152.299C546.672 152.299 554.795 144.177 554.795 134.157C554.795 124.138 546.672 116.016 536.653 116.016C526.634 116.016 518.511 124.138 518.511 134.157Z" fill="white" stroke="white" stroke-width="0.4406" mask="url(#path-6-inside-1_947_2018)"/>
<mask id="path-7-inside-2_947_2018" fill="white">
<path d="M518.038 190.885C518.038 211.568 501.27 228.336 480.587 228.336C459.903 228.336 443.136 211.568 443.136 190.885C443.136 170.201 459.903 153.434 480.587 153.434C501.27 153.434 518.038 170.201 518.038 190.885ZM446.881 190.885C446.881 209.5 461.971 224.59 480.587 224.59C499.202 224.59 514.293 209.5 514.293 190.885C514.293 172.269 499.202 157.179 480.587 157.179C461.971 157.179 446.881 172.269 446.881 190.885Z"/>
</mask>
<path d="M518.038 190.885C518.038 211.568 501.27 228.336 480.587 228.336C459.903 228.336 443.136 211.568 443.136 190.885C443.136 170.201 459.903 153.434 480.587 153.434C501.27 153.434 518.038 170.201 518.038 190.885ZM446.881 190.885C446.881 209.5 461.971 224.59 480.587 224.59C499.202 224.59 514.293 209.5 514.293 190.885C514.293 172.269 499.202 157.179 480.587 157.179C461.971 157.179 446.881 172.269 446.881 190.885Z" fill="white" stroke="white" stroke-width="0.4406" mask="url(#path-7-inside-2_947_2018)"/>
<path d="M480.036 191.546L522.554 148.587" stroke="white" stroke-width="2.6436" stroke-miterlimit="1" stroke-linecap="square"/>
<path d="M435.646 237.588L455.693 216.66" stroke="white" stroke-width="2.6436"/>
<path d="M481.282 190.421C480.66 190.037 479.846 190.23 479.462 190.851C479.079 191.472 479.271 192.286 479.892 192.67L481.282 190.421ZM479.892 192.67L536.069 227.367L537.458 225.118L481.282 190.421L479.892 192.67Z" fill="white"/>
<path d="M246.36 395.416C241.432 395.416 236.792 394.6 232.44 392.968C228.12 391.336 224.296 388.968 220.968 385.864C217.672 382.76 215.08 378.984 213.192 374.536C211.304 370.088 210.36 365.048 210.36 359.416C210.36 354.008 211.304 349.096 213.192 344.68C215.08 340.232 217.672 336.408 220.968 333.208C224.296 330.008 228.12 327.544 232.44 325.816C236.792 324.088 241.432 323.224 246.36 323.224C249.112 323.224 252.12 323.528 255.384 324.136C258.68 324.744 262.008 325.848 265.368 327.448L262.872 333.688C259.48 332.184 256.424 331.24 253.704 330.856C251.016 330.44 248.568 330.232 246.36 330.232C243.064 330.232 239.848 330.84 236.712 332.056C233.576 333.24 230.76 335.048 228.264 337.48C225.8 339.88 223.832 342.904 222.36 346.552C220.888 350.2 220.152 354.488 220.152 359.416C220.152 364.312 220.888 368.584 222.36 372.232C223.832 375.88 225.8 378.904 228.264 381.304C230.76 383.704 233.576 385.512 236.712 386.728C239.848 387.912 243.064 388.504 246.36 388.504C247.768 388.504 249.384 388.408 251.208 388.216C253.032 387.992 255 387.544 257.112 386.872V361.912H265.944V390.712C263.64 391.928 261.32 392.888 258.984 393.592C256.68 394.264 254.456 394.728 252.312 394.984C250.168 395.272 248.184 395.416 246.36 395.416ZM277.227 394.264V361.432C277.227 358.488 277.099 355.512 276.843 352.504C276.619 349.496 276.235 346.872 275.691 344.632H282.315C283.339 345.688 284.059 346.856 284.475 348.136C284.923 349.384 285.291 350.776 285.579 352.312V354.04L286.347 352.312C287.595 349.848 289.387 347.848 291.723 346.312C294.059 344.744 296.523 343.96 299.115 343.96C299.851 343.96 300.603 344.024 301.371 344.152C302.139 344.28 302.955 344.472 303.819 344.728L302.667 352.216C301.675 351.96 300.795 351.8 300.027 351.736C299.291 351.672 298.635 351.64 298.059 351.64C296.075 351.64 294.139 352.184 292.251 353.272C290.363 354.36 288.811 356.088 287.595 358.456C286.379 360.824 285.771 363.928 285.771 367.768V394.264H277.227ZM326.919 395.224C323.591 395.224 320.711 394.632 318.279 393.448C315.879 392.232 314.023 390.6 312.711 388.552C311.431 386.504 310.791 384.184 310.791 381.592C310.791 378.36 311.639 375.688 313.335 373.576C315.031 371.432 317.815 369.704 321.687 368.392C325.591 367.08 330.823 366.04 337.383 365.272C337.255 366.04 336.967 366.952 336.519 368.008C336.103 369.064 335.415 370.04 334.455 370.936C333.495 371.832 332.167 372.408 330.471 372.664C327.655 373.112 325.511 373.768 324.039 374.632C322.599 375.496 321.607 376.488 321.063 377.608C320.551 378.696 320.295 379.832 320.295 381.016C320.295 382.968 320.999 384.68 322.407 386.152C323.815 387.592 325.735 388.312 328.167 388.312C330.343 388.312 332.535 387.768 334.743 386.68C336.951 385.592 338.983 383.832 340.839 381.4V363.448C340.839 359.64 339.911 356.552 338.055 354.184C336.231 351.784 333.127 350.584 328.743 350.584C327.015 350.584 325.303 350.76 323.607 351.112C321.911 351.464 319.911 352.056 317.607 352.888L315.399 346.936C318.535 345.592 321.303 344.712 323.703 344.296C326.103 343.88 328.359 343.672 330.471 343.672C336.615 343.672 341.383 345.464 344.775 349.048C348.167 352.6 349.863 357.624 349.863 364.12V377.848C349.863 381.688 350.007 384.968 350.295 387.688C350.615 390.376 350.983 392.568 351.399 394.264H344.871C343.975 393.72 343.271 393.016 342.759 392.152C342.247 391.288 341.799 390.36 341.415 389.368L341.319 387.64L340.263 389.368C337.831 391.8 335.575 393.384 333.495 394.12C331.415 394.856 329.223 395.224 326.919 395.224ZM396.648 394.264V358.168C396.648 355.96 396.152 354.152 395.16 352.744C394.168 351.304 392.68 350.584 390.696 350.584C389.928 350.584 389.256 350.664 388.68 350.824C388.104 350.984 387.4 351.16 386.568 351.352C384.712 351.768 382.984 351.784 381.384 351.4C379.784 351.016 378.312 350.136 376.968 348.76C380.392 346.744 383.24 345.4 385.512 344.728C387.816 344.024 389.832 343.672 391.56 343.672C394.12 343.672 396.488 344.136 398.664 345.064C400.84 345.992 402.584 347.576 403.896 349.816C405.208 352.056 405.864 355.16 405.864 359.128V394.264H396.648ZM365.16 394.264V356.728C365.16 354.936 365.048 353.032 364.824 351.016C364.632 349 364.264 346.872 363.72 344.632H370.632C372.168 346.36 373.176 348.072 373.656 349.768C374.136 351.464 374.376 353.272 374.376 355.192V394.264H365.16ZM440.204 395.32C434.988 395.32 430.972 393.608 428.156 390.184C425.372 386.76 423.98 382.008 423.98 375.928V351.256H415.148V346.936L423.98 344.632V331.96L432.428 329.272V376.984C432.428 380.28 433.132 383.048 434.54 385.288C435.98 387.496 437.868 388.6 440.204 388.6C441.452 388.6 442.652 388.488 443.804 388.264C444.988 388.04 446.412 387.672 448.076 387.16L450.188 393.208C447.756 394.008 445.868 394.552 444.524 394.84C443.18 395.16 441.74 395.32 440.204 395.32ZM443.948 351.256C442.444 351.256 441.164 350.968 440.108 350.392C439.084 349.784 438.22 348.984 437.516 347.992C436.844 346.968 436.3 345.848 435.884 344.632H449.42V351.256H443.948ZM463.607 394.264V324.472H503.351V331.384H472.727V394.264H463.607ZM476.375 361.048C476.823 359.832 477.399 358.712 478.103 357.688C478.807 356.664 479.687 355.848 480.743 355.24C481.799 354.632 483.095 354.328 484.631 354.328H500.087V361.048H476.375ZM518.254 394.264V321.496H526.99V394.264H518.254ZM561.445 395.224C557.157 395.224 553.253 394.232 549.733 392.248C546.245 390.264 543.461 387.352 541.381 383.512C539.333 379.672 538.309 374.968 538.309 369.4C538.309 365.016 538.965 361.208 540.277 357.976C541.621 354.744 543.397 352.072 545.605 349.96C547.845 347.848 550.341 346.28 553.093 345.256C555.845 344.2 558.629 343.672 561.445 343.672C566.341 343.672 570.517 344.824 573.973 347.128C577.429 349.4 580.053 352.488 581.845 356.392C583.669 360.264 584.581 364.6 584.581 369.4C584.581 373.56 583.957 377.256 582.709 380.488C581.493 383.688 579.813 386.392 577.669 388.6C575.525 390.776 573.061 392.424 570.277 393.544C567.493 394.664 564.549 395.224 561.445 395.224ZM561.445 388.312C564.549 388.312 567.109 387.448 569.125 385.72C571.141 383.992 572.629 381.704 573.589 378.856C574.581 375.976 575.077 372.824 575.077 369.4C575.077 365.112 574.437 361.576 573.157 358.792C571.909 356.008 570.245 353.944 568.165 352.6C566.117 351.256 563.877 350.584 561.445 350.584C559.013 350.584 556.757 351.256 554.677 352.6C552.629 353.944 550.965 356.008 549.685 358.792C548.437 361.576 547.813 365.112 547.813 369.4C547.813 374.968 548.997 379.512 551.365 383.032C553.733 386.552 557.093 388.312 561.445 388.312ZM640.253 394.264L622.781 344.632H632.381L644.669 383.32L645.341 385.72L646.013 383.32L658.205 344.632H667.325L649.853 394.264H640.253ZM608.477 394.264L590.909 344.632H600.509L612.797 383.32L613.469 385.72L614.141 383.32L622.877 359.896C623.837 360.952 624.605 362.36 625.181 364.12C625.789 365.88 626.109 367.8 626.141 369.88C626.205 371.96 625.885 374.008 625.181 376.024L617.597 394.264H608.477ZM683.967 395.704C682.335 395.704 680.975 395.176 679.887 394.12C678.831 393.032 678.303 391.672 678.303 390.04C678.303 388.344 678.831 386.952 679.887 385.864C680.975 384.744 682.335 384.184 683.967 384.184C685.663 384.184 687.055 384.744 688.143 385.864C689.263 386.952 689.823 388.344 689.823 390.04C689.823 391.672 689.263 393.032 688.143 394.12C687.055 395.176 685.663 395.704 683.967 395.704ZM719.263 395.224C715.935 395.224 713.055 394.632 710.623 393.448C708.223 392.232 706.367 390.6 705.055 388.552C703.775 386.504 703.135 384.184 703.135 381.592C703.135 378.36 703.983 375.688 705.679 373.576C707.375 371.432 710.159 369.704 714.031 368.392C717.935 367.08 723.167 366.04 729.727 365.272C729.599 366.04 729.311 366.952 728.863 368.008C728.447 369.064 727.759 370.04 726.799 370.936C725.839 371.832 724.511 372.408 722.815 372.664C719.999 373.112 717.855 373.768 716.383 374.632C714.943 375.496 713.951 376.488 713.407 377.608C712.895 378.696 712.639 379.832 712.639 381.016C712.639 382.968 713.343 384.68 714.751 386.152C716.159 387.592 718.079 388.312 720.511 388.312C722.687 388.312 724.879 387.768 727.087 386.68C729.295 385.592 731.327 383.832 733.183 381.4V363.448C733.183 359.64 732.255 356.552 730.399 354.184C728.575 351.784 725.471 350.584 721.087 350.584C719.359 350.584 717.647 350.76 715.951 351.112C714.255 351.464 712.255 352.056 709.951 352.888L707.743 346.936C710.879 345.592 713.647 344.712 716.047 344.296C718.447 343.88 720.703 343.672 722.815 343.672C728.959 343.672 733.727 345.464 737.119 349.048C740.511 352.6 742.207 357.624 742.207 364.12V377.848C742.207 381.688 742.351 384.968 742.639 387.688C742.959 390.376 743.327 392.568 743.743 394.264H737.215C736.319 393.72 735.615 393.016 735.103 392.152C734.591 391.288 734.143 390.36 733.759 389.368L733.663 387.64L732.607 389.368C730.175 391.8 727.919 393.384 725.839 394.12C723.759 394.856 721.567 395.224 719.263 395.224ZM757.024 394.264V344.632H766.24V394.264H757.024ZM761.632 335.992C760 335.992 758.624 335.448 757.504 334.36C756.416 333.24 755.872 331.864 755.872 330.232C755.872 328.536 756.416 327.144 757.504 326.056C758.624 324.936 760 324.376 761.632 324.376C763.328 324.376 764.704 324.936 765.76 326.056C766.848 327.144 767.392 328.536 767.392 330.232C767.392 331.864 766.848 333.24 765.76 334.36C764.704 335.448 763.328 335.992 761.632 335.992Z" fill="white"/>
<rect x="266" y="467" width="429.652" height="65.2142" rx="10.2053" fill="#1E13F8"/>
<path d="M311.163 509.097C309.621 509.097 308.224 508.843 306.972 508.335C305.72 507.827 304.641 507.11 303.734 506.185C302.845 505.26 302.155 504.171 301.665 502.919C301.176 501.649 300.931 500.271 300.931 498.783V498.184C300.931 496.914 301.148 495.689 301.584 494.51C302.037 493.313 302.681 492.242 303.516 491.299C304.369 490.337 305.403 489.584 306.618 489.04C307.834 488.478 309.204 488.196 310.728 488.196C312.379 488.196 313.848 488.514 315.136 489.149C316.425 489.766 317.459 490.637 318.239 491.762C319.019 492.868 319.473 494.156 319.6 495.626H316.878C316.751 494.519 316.388 493.603 315.79 492.877C315.191 492.133 314.447 491.58 313.558 491.217C312.687 490.836 311.744 490.646 310.728 490.646C309.694 490.646 308.741 490.836 307.87 491.217C306.999 491.58 306.247 492.106 305.612 492.796C304.995 493.485 304.514 494.311 304.169 495.272C303.824 496.234 303.652 497.313 303.652 498.511C303.652 499.871 303.834 501.069 304.196 502.103C304.577 503.119 305.104 503.972 305.775 504.661C306.446 505.332 307.235 505.84 308.142 506.185C309.068 506.53 310.075 506.702 311.163 506.702C312.705 506.702 314.057 506.394 315.218 505.777C316.397 505.142 317.286 504.325 317.885 503.328L316.905 506.566V500.661H319.409V505.396C318.52 506.557 317.377 507.464 315.98 508.117C314.583 508.77 312.977 509.097 311.163 509.097ZM310.456 501.205V498.973H321.096V501.205H310.456ZM331.222 509.097C329.952 509.097 328.836 508.879 327.874 508.444C326.913 508.008 326.096 507.437 325.425 506.729C324.772 506.004 324.273 505.196 323.928 504.307C323.602 503.418 323.438 502.511 323.438 501.586V501.096C323.438 500.171 323.611 499.264 323.955 498.375C324.3 497.467 324.808 496.66 325.479 495.953C326.151 495.227 326.967 494.655 327.929 494.238C328.89 493.803 329.988 493.585 331.222 493.585C332.455 493.585 333.553 493.803 334.515 494.238C335.476 494.655 336.293 495.227 336.964 495.953C337.635 496.66 338.143 497.467 338.488 498.375C338.833 499.264 339.005 500.171 339.005 501.096V501.586C339.005 502.511 338.833 503.418 338.488 504.307C338.161 505.196 337.662 506.004 336.991 506.729C336.338 507.437 335.531 508.008 334.569 508.444C333.607 508.879 332.492 509.097 331.222 509.097ZM331.222 506.757C332.31 506.757 333.235 506.521 333.997 506.049C334.778 505.559 335.367 504.906 335.766 504.09C336.184 503.273 336.392 502.357 336.392 501.341C336.392 500.307 336.184 499.382 335.766 498.565C335.349 497.749 334.75 497.105 333.97 496.633C333.208 496.161 332.292 495.925 331.222 495.925C330.169 495.925 329.253 496.161 328.473 496.633C327.693 497.105 327.094 497.749 326.677 498.565C326.26 499.382 326.051 500.307 326.051 501.341C326.051 502.357 326.25 503.273 326.65 504.09C327.067 504.906 327.657 505.559 328.419 506.049C329.199 506.521 330.133 506.757 331.222 506.757ZM354.771 508.77C353.682 508.77 352.739 508.616 351.94 508.308C351.16 507.999 350.552 507.473 350.117 506.729C349.7 505.967 349.491 504.942 349.491 503.654V489.666H351.995V503.981C351.995 504.761 352.203 505.369 352.621 505.804C353.056 506.221 353.664 506.43 354.444 506.43H357.002V508.77H354.771ZM346.987 496.034V494.075H357.002V496.034H346.987ZM367.286 509.097C366.016 509.097 364.9 508.879 363.938 508.444C362.977 508.008 362.16 507.437 361.489 506.729C360.836 506.004 360.337 505.196 359.992 504.307C359.666 503.418 359.503 502.511 359.503 501.586V501.096C359.503 500.171 359.675 499.264 360.02 498.375C360.364 497.467 360.872 496.66 361.544 495.953C362.215 495.227 363.031 494.655 363.993 494.238C364.954 493.803 366.052 493.585 367.286 493.585C368.52 493.585 369.617 493.803 370.579 494.238C371.54 494.655 372.357 495.227 373.028 495.953C373.699 496.66 374.207 497.467 374.552 498.375C374.897 499.264 375.069 500.171 375.069 501.096V501.586C375.069 502.511 374.897 503.418 374.552 504.307C374.225 505.196 373.727 506.004 373.055 506.729C372.402 507.437 371.595 508.008 370.633 508.444C369.672 508.879 368.556 509.097 367.286 509.097ZM367.286 506.757C368.374 506.757 369.3 506.521 370.062 506.049C370.842 505.559 371.431 504.906 371.831 504.09C372.248 503.273 372.457 502.357 372.457 501.341C372.457 500.307 372.248 499.382 371.831 498.565C371.413 497.749 370.815 497.105 370.034 496.633C369.272 496.161 368.356 495.925 367.286 495.925C366.234 495.925 365.317 496.161 364.537 496.633C363.757 497.105 363.158 497.749 362.741 498.565C362.324 499.382 362.115 500.307 362.115 501.341C362.115 502.357 362.315 503.273 362.714 504.09C363.131 504.906 363.721 505.559 364.483 506.049C365.263 506.521 366.197 506.757 367.286 506.757ZM390.835 508.77C389.746 508.77 388.803 508.616 388.005 508.308C387.224 507.999 386.617 507.473 386.181 506.729C385.764 505.967 385.555 504.942 385.555 503.654V489.666H388.059V503.981C388.059 504.761 388.268 505.369 388.685 505.804C389.12 506.221 389.728 506.43 390.508 506.43H393.066V508.77H390.835ZM383.052 496.034V494.075H393.066V496.034H383.052ZM396.762 508.607V488.741H399.374V500.606H398.721C398.721 499.173 398.902 497.939 399.265 496.905C399.646 495.853 400.227 495.045 401.007 494.483C401.787 493.921 402.785 493.639 404.001 493.639H404.109C405.851 493.639 407.167 494.22 408.056 495.381C408.945 496.524 409.389 498.166 409.389 500.307V508.607H406.776V499.763C406.776 498.583 406.441 497.667 405.77 497.014C405.116 496.361 404.264 496.034 403.211 496.034C402.05 496.034 401.116 496.424 400.408 497.204C399.719 497.966 399.374 498.973 399.374 500.225V508.607H396.762ZM420.347 509.097C419.077 509.097 417.979 508.879 417.054 508.444C416.129 508.008 415.376 507.437 414.795 506.729C414.215 506.004 413.779 505.196 413.489 504.307C413.217 503.418 413.081 502.511 413.081 501.586V501.096C413.081 500.153 413.217 499.236 413.489 498.347C413.779 497.458 414.215 496.66 414.795 495.953C415.376 495.227 416.11 494.655 416.999 494.238C417.907 493.803 418.968 493.585 420.183 493.585C421.762 493.585 423.059 493.93 424.075 494.619C425.109 495.29 425.871 496.161 426.361 497.232C426.869 498.302 427.123 499.445 427.123 500.661V501.831H414.224V499.871H425.218L424.619 500.933C424.619 499.899 424.456 499.01 424.13 498.266C423.803 497.504 423.313 496.914 422.66 496.497C422.007 496.08 421.181 495.871 420.183 495.871C419.149 495.871 418.288 496.107 417.598 496.578C416.927 497.05 416.419 497.694 416.074 498.511C415.748 499.327 415.584 500.271 415.584 501.341C415.584 502.375 415.748 503.309 416.074 504.144C416.419 504.96 416.945 505.614 417.653 506.103C418.36 506.575 419.258 506.811 420.347 506.811C421.49 506.811 422.415 506.557 423.123 506.049C423.848 505.541 424.284 504.951 424.429 504.28H426.878C426.679 505.278 426.279 506.14 425.681 506.865C425.082 507.591 424.329 508.145 423.422 508.526C422.515 508.907 421.49 509.097 420.347 509.097ZM446.278 509.097C444.736 509.097 443.339 508.843 442.087 508.335C440.835 507.827 439.755 507.11 438.848 506.185C437.959 505.26 437.27 504.171 436.78 502.919C436.29 501.649 436.045 500.271 436.045 498.783V498.184C436.045 496.914 436.263 495.689 436.698 494.51C437.152 493.313 437.796 492.242 438.631 491.299C439.483 490.337 440.517 489.584 441.733 489.04C442.948 488.478 444.318 488.196 445.842 488.196C447.493 488.196 448.963 488.514 450.251 489.149C451.539 489.766 452.573 490.637 453.353 491.762C454.134 492.868 454.587 494.156 454.714 495.626H451.993C451.866 494.519 451.503 493.603 450.904 492.877C450.305 492.133 449.562 491.58 448.673 491.217C447.802 490.836 446.858 490.646 445.842 490.646C444.808 490.646 443.856 490.836 442.985 491.217C442.114 491.58 441.361 492.106 440.726 492.796C440.109 493.485 439.628 494.311 439.284 495.272C438.939 496.234 438.767 497.313 438.767 498.511C438.767 499.871 438.948 501.069 439.311 502.103C439.692 503.119 440.218 503.972 440.889 504.661C441.561 505.332 442.35 505.84 443.257 506.185C444.182 506.53 445.189 506.702 446.278 506.702C447.82 506.702 449.171 506.394 450.333 505.777C451.512 505.142 452.401 504.325 453 503.328L452.02 506.566V500.661H454.524V505.396C453.635 506.557 452.492 507.464 451.095 508.117C449.698 508.77 448.092 509.097 446.278 509.097ZM445.57 501.205V498.973H456.211V501.205H445.57ZM459.641 508.607V494.075H461.71V500.062H461.601C461.601 497.939 462.063 496.388 462.989 495.408C463.932 494.41 465.338 493.911 467.207 493.911H467.697V496.252H466.772C465.32 496.252 464.204 496.642 463.424 497.422C462.644 498.184 462.254 499.291 462.254 500.742V508.607H459.641ZM479.541 508.607V504.253H479.105V499.218C479.105 498.22 478.842 497.467 478.316 496.959C477.808 496.451 477.055 496.197 476.057 496.197C475.495 496.197 474.914 496.207 474.315 496.225C473.717 496.243 473.145 496.261 472.601 496.279C472.057 496.297 471.585 496.324 471.186 496.361V494.075C471.585 494.038 472.002 494.011 472.438 493.993C472.891 493.957 473.354 493.939 473.826 493.939C474.297 493.921 474.751 493.911 475.186 493.911C476.674 493.911 477.89 494.093 478.833 494.456C479.776 494.8 480.475 495.372 480.928 496.17C481.382 496.969 481.609 498.048 481.609 499.409V508.607H479.541ZM474.778 508.988C473.689 508.988 472.746 508.807 471.948 508.444C471.168 508.063 470.56 507.519 470.124 506.811C469.707 506.103 469.498 505.251 469.498 504.253C469.498 503.219 469.725 502.357 470.179 501.668C470.651 500.978 471.331 500.461 472.22 500.116C473.109 499.753 474.179 499.572 475.431 499.572H479.377V501.531H475.322C474.27 501.531 473.463 501.785 472.9 502.293C472.338 502.801 472.057 503.455 472.057 504.253C472.057 505.051 472.338 505.695 472.9 506.185C473.463 506.675 474.27 506.92 475.322 506.92C475.939 506.92 476.529 506.811 477.091 506.593C477.654 506.357 478.116 505.976 478.479 505.45C478.86 504.906 479.069 504.162 479.105 503.219L479.813 504.253C479.722 505.287 479.468 506.158 479.051 506.865C478.652 507.555 478.089 508.081 477.363 508.444C476.656 508.807 475.794 508.988 474.778 508.988ZM486.404 508.607V494.075H488.472V500.307H488.146C488.146 498.874 488.336 497.667 488.717 496.687C489.116 495.689 489.715 494.937 490.513 494.429C491.311 493.902 492.318 493.639 493.534 493.639H493.643C495.475 493.639 496.827 494.211 497.698 495.354C498.587 496.497 499.031 498.148 499.031 500.307V508.607H496.419V499.763C496.419 498.638 496.101 497.74 495.466 497.068C494.831 496.379 493.96 496.034 492.854 496.034C491.711 496.034 490.785 496.388 490.078 497.096C489.37 497.803 489.016 498.747 489.016 499.926V508.607H486.404ZM509.472 508.77C508.383 508.77 507.44 508.616 506.642 508.308C505.862 507.999 505.254 507.473 504.818 506.729C504.401 505.967 504.192 504.942 504.192 503.654V489.666H506.696V503.981C506.696 504.761 506.905 505.369 507.322 505.804C507.757 506.221 508.365 506.43 509.145 506.43H511.704V508.77H509.472ZM501.689 496.034V494.075H511.704V496.034H501.689ZM520.055 509.043C518.15 509.043 516.671 508.634 515.619 507.818C514.585 507.002 514.05 505.886 514.013 504.471H516.463C516.499 505.033 516.78 505.568 517.306 506.076C517.851 506.566 518.767 506.811 520.055 506.811C521.216 506.811 522.105 506.584 522.722 506.131C523.339 505.659 523.647 505.087 523.647 504.416C523.647 503.817 523.42 503.355 522.967 503.028C522.513 502.684 521.778 502.457 520.762 502.348L519.184 502.185C517.805 502.039 516.68 501.631 515.809 500.96C514.939 500.271 514.503 499.309 514.503 498.075C514.503 497.15 514.739 496.361 515.211 495.708C515.682 495.036 516.336 494.528 517.17 494.184C518.005 493.821 518.966 493.639 520.055 493.639C521.688 493.639 523.012 494.002 524.028 494.728C525.044 495.454 525.57 496.533 525.607 497.966H523.157C523.139 497.386 522.867 496.896 522.341 496.497C521.833 496.08 521.071 495.871 520.055 495.871C519.039 495.871 518.268 496.08 517.742 496.497C517.216 496.914 516.952 497.44 516.952 498.075C516.952 498.62 517.134 499.055 517.497 499.382C517.878 499.708 518.495 499.917 519.347 500.007L520.926 500.171C522.486 500.334 523.738 500.769 524.681 501.477C525.625 502.166 526.096 503.146 526.096 504.416C526.096 505.323 525.833 506.131 525.307 506.838C524.799 507.528 524.092 508.072 523.185 508.471C522.277 508.852 521.234 509.043 520.055 509.043ZM540.321 508.607L543.26 494.565H546.798L550.227 508.607H547.995L544.566 494.619H545.437L542.471 508.607H540.321ZM538.987 508.607V506.539H542.008V508.607H538.987ZM538.388 508.607L534.279 494.075H536.783L540.783 508.607H538.388ZM548.539 508.607V506.539H551.56V508.607H548.539ZM549.764 508.607L553.247 494.075H555.615L552.05 508.607H549.764ZM559.851 508.607V494.075H562.464V508.607H559.851ZM557.619 496.143V494.075H562.464V496.143H557.619ZM560.586 491.734C560.005 491.734 559.57 491.58 559.28 491.272C559.007 490.963 558.871 490.573 558.871 490.101C558.871 489.63 559.007 489.24 559.28 488.931C559.57 488.623 560.005 488.469 560.586 488.469C561.166 488.469 561.593 488.623 561.865 488.931C562.155 489.24 562.3 489.63 562.3 490.101C562.3 490.573 562.155 490.963 561.865 491.272C561.593 491.58 561.166 491.734 560.586 491.734ZM566.59 508.607V505.695L574.509 496.197V496.633L574.074 495.98L574.427 496.143H566.481V494.075H576.822V496.987L568.903 506.484V506.103L569.393 506.784L569.012 506.539H577.258V508.607H566.59ZM589.593 508.607V504.253H589.158V499.218C589.158 498.22 588.895 497.467 588.369 496.959C587.861 496.451 587.108 496.197 586.11 496.197C585.548 496.197 584.967 496.207 584.368 496.225C583.77 496.243 583.198 496.261 582.654 496.279C582.11 496.297 581.638 496.324 581.239 496.361V494.075C581.638 494.038 582.055 494.011 582.491 493.993C582.944 493.957 583.407 493.939 583.878 493.939C584.35 493.921 584.804 493.911 585.239 493.911C586.727 493.911 587.942 494.093 588.886 494.456C589.829 494.8 590.528 495.372 590.981 496.17C591.435 496.969 591.662 498.048 591.662 499.409V508.607H589.593ZM584.831 508.988C583.742 508.988 582.799 508.807 582.001 508.444C581.221 508.063 580.613 507.519 580.177 506.811C579.76 506.103 579.551 505.251 579.551 504.253C579.551 503.219 579.778 502.357 580.232 501.668C580.703 500.978 581.384 500.461 582.273 500.116C583.162 499.753 584.232 499.572 585.484 499.572H589.43V501.531H585.375C584.323 501.531 583.516 501.785 582.953 502.293C582.391 502.801 582.11 503.455 582.11 504.253C582.11 505.051 582.391 505.695 582.953 506.185C583.516 506.675 584.323 506.92 585.375 506.92C585.992 506.92 586.582 506.811 587.144 506.593C587.707 506.357 588.169 505.976 588.532 505.45C588.913 504.906 589.122 504.162 589.158 503.219L589.866 504.253C589.775 505.287 589.521 506.158 589.104 506.865C588.704 507.555 588.142 508.081 587.416 508.444C586.709 508.807 585.847 508.988 584.831 508.988ZM596.457 508.607V494.075H598.525V500.062H598.416C598.416 497.939 598.879 496.388 599.804 495.408C600.748 494.41 602.154 493.911 604.022 493.911H604.512V496.252H603.587C602.135 496.252 601.02 496.642 600.24 497.422C599.459 498.184 599.069 499.291 599.069 500.742V508.607H596.457ZM613.528 509.097C612.494 509.097 611.542 508.907 610.671 508.526C609.8 508.145 609.038 507.609 608.385 506.92C607.75 506.23 607.251 505.432 606.888 504.525C606.543 503.618 606.371 502.638 606.371 501.586V501.096C606.371 500.062 606.543 499.091 606.888 498.184C607.233 497.277 607.713 496.479 608.33 495.789C608.965 495.1 609.709 494.565 610.562 494.184C611.433 493.784 612.394 493.585 613.447 493.585C614.553 493.585 615.56 493.821 616.467 494.292C617.374 494.746 618.118 495.463 618.699 496.442C619.279 497.422 619.606 498.692 619.679 500.252L618.59 498.511V488.741H621.203V508.607H619.134V502.157H619.896C619.824 503.808 619.479 505.151 618.862 506.185C618.245 507.201 617.465 507.945 616.522 508.417C615.596 508.87 614.599 509.097 613.528 509.097ZM613.882 506.811C614.771 506.811 615.578 506.611 616.304 506.212C617.03 505.813 617.61 505.242 618.046 504.498C618.481 503.736 618.699 502.847 618.699 501.831V500.579C618.699 499.581 618.472 498.737 618.019 498.048C617.583 497.34 616.993 496.805 616.25 496.442C615.524 496.061 614.726 495.871 613.855 495.871C612.893 495.871 612.04 496.098 611.297 496.551C610.571 497.005 609.999 497.64 609.582 498.456C609.183 499.273 608.983 500.234 608.983 501.341C608.983 502.448 609.192 503.418 609.609 504.253C610.027 505.069 610.607 505.704 611.351 506.158C612.095 506.593 612.939 506.811 613.882 506.811Z" fill="white"/>
<path d="M651.365 499.607L643.998 492.24L645.986 490.252L655.341 499.607L645.986 508.962L643.998 506.974L651.365 499.607Z" fill="white"/>
</g>
<defs>
<filter id="filter0_f_947_2018" x="44" y="-223" width="1671" height="1678" filterUnits="userSpaceOnUse" color-interpolation-filters="sRGB">
<feFlood flood-opacity="0" result="BackgroundImageFix"/>
<feBlend mode="normal" in="SourceGraphic" in2="BackgroundImageFix" result="shape"/>
<feGaussianBlur stdDeviation="250" result="effect1_foregroundBlur_947_2018"/>
</filter>
<clipPath id="clip0_947_2018">
<rect width="981" height="630" fill="white"/>
</clipPath>
</defs>
</svg>
