<svg data-testid="icon-button-logo" fill="currentColor" height="16" viewBox="0 0 16 16" width="16" xmlns="http://www.w3.org/2000/svg">
	<ellipse cx="1.62126" cy="14.4104" fill="currentColor" rx="1.62126" ry="1.58958" />
	<ellipse cx="13.5813" cy="13.2638" fill="currentColor" rx="1.14286" ry="1.12052" />
	<ellipse cx="13.5813" cy="2.37129" fill="currentColor" rx="1.78073" ry="1.74593" />
	<ellipse cx="6.80398" cy="9.09444" fill="currentColor" rx="1.78073" ry="1.74593" />
	<path d="M16.0003 2.38437C16.0003 3.70121 14.9115 4.76873 13.5684 4.76873C12.2253 4.76873 11.1365 3.70121 11.1365 2.38437C11.1365 1.06752 12.2253 0 13.5684 0C14.9115 0 16.0003 1.06752 16.0003 2.38437ZM11.3797 2.38437C11.3797 3.56953 12.3596 4.53029 13.5684 4.53029C14.7772 4.53029 15.7571 3.56953 15.7571 2.38437C15.7571 1.1992 14.7772 0.238437 13.5684 0.238437C12.3596 0.238437 11.3797 1.1992 11.3797 2.38437Z" fill="currentColor" />
	<path d="M11.3227 9.09452C11.3227 11.5411 9.29977 13.5245 6.8044 13.5245C4.30903 13.5245 2.28613 11.5411 2.28613 9.09452C2.28613 6.64792 4.30903 4.66455 6.8044 4.66455C9.29977 4.66455 11.3227 6.64792 11.3227 9.09452ZM2.73796 9.09452C2.73796 11.2965 4.55857 13.0815 6.8044 13.0815C9.05024 13.0815 10.8708 11.2965 10.8708 9.09452C10.8708 6.89258 9.05024 5.10755 6.8044 5.10755C4.55857 5.10755 2.73796 6.89258 2.73796 9.09452Z" fill="currentColor" />
	<path d="M6.7373 9.17262L11.8669 4.09119" stroke="currentColor" strokeLinecap="square" strokeMiterlimit="1" strokeWidth="0.759494" />
	<path d="M1.38184 14.6189L3.80044 12.1433" stroke="currentColor" strokeWidth="0.759494" />
	<path d="M7.00042 8.84778C6.82102 8.73914 6.58752 8.7965 6.47888 8.9759C6.37024 9.1553 6.4276 9.3888 6.607 9.49744L7.00042 8.84778ZM6.80371 9.17261L6.607 9.49744L13.3844 13.6017L13.5811 13.2768L13.7778 12.952L7.00042 8.84778L6.80371 9.17261Z" fill="currentColor" />
</svg>