<svg width="14" height="14" viewBox="0 0 14 14" fill="none" xmlns="http://www.w3.org/2000/svg">
<path d="M6.06536 10.0666L10.7654 5.36665L9.83203 4.43331L6.06536 8.19998L4.16536 6.29998L3.23203 7.23331L6.06536 10.0666ZM6.9987 13.6666C6.07648 13.6666 5.20981 13.4916 4.3987 13.1416C3.58759 12.7916 2.88203 12.3166 2.28203 11.7166C1.68203 11.1166 1.20703 10.4111 0.857031 9.59998C0.507031 8.78887 0.332031 7.9222 0.332031 6.99998C0.332031 6.07776 0.507031 5.21109 0.857031 4.39998C1.20703 3.58887 1.68203 2.88331 2.28203 2.28331C2.88203 1.68331 3.58759 1.20831 4.3987 0.858313C5.20981 0.508313 6.07648 0.333313 6.9987 0.333313C7.92092 0.333313 8.78759 0.508313 9.5987 0.858313C10.4098 1.20831 11.1154 1.68331 11.7154 2.28331C12.3154 2.88331 12.7904 3.58887 13.1404 4.39998C13.4904 5.21109 13.6654 6.07776 13.6654 6.99998C13.6654 7.9222 13.4904 8.78887 13.1404 9.59998C12.7904 10.4111 12.3154 11.1166 11.7154 11.7166C11.1154 12.3166 10.4098 12.7916 9.5987 13.1416C8.78759 13.4916 7.92092 13.6666 6.9987 13.6666ZM6.9987 12.3333C8.48759 12.3333 9.7487 11.8166 10.782 10.7833C11.8154 9.74998 12.332 8.48887 12.332 6.99998C12.332 5.51109 11.8154 4.24998 10.782 3.21665C9.7487 2.18331 8.48759 1.66665 6.9987 1.66665C5.50981 1.66665 4.2487 2.18331 3.21536 3.21665C2.18203 4.24998 1.66536 5.51109 1.66536 6.99998C1.66536 8.48887 2.18203 9.74998 3.21536 10.7833C4.2487 11.8166 5.50981 12.3333 6.9987 12.3333Z" fill="white"/>
</svg>
