<svg width="17" height="17" viewBox="0 0 17 17" fill="none" xmlns="http://www.w3.org/2000/svg">
<mask id="mask0_5062_456" style="mask-type:alpha" maskUnits="userSpaceOnUse" x="0" y="0" width="17" height="17">
<rect x="0.5" y="0.5" width="16" height="16" fill="#D9D9D9"/>
</mask>
<g mask="url(#mask0_5062_456)">
<path d="M2.5 2.5H7.83333V7.83333H2.5V2.5ZM9.16667 2.5H14.5V7.83333H9.16667V2.5ZM2.5 9.16667H7.83333V14.5H2.5V9.16667ZM11.1667 9.16667H12.5V11.1667H14.5V12.5H12.5V14.5H11.1667V12.5H9.16667V11.1667H11.1667V9.16667ZM10.5 3.83333V6.5H13.1667V3.83333H10.5ZM3.83333 3.83333V6.5H6.5V3.83333H3.83333ZM3.83333 10.5V13.1667H6.5V10.5H3.83333Z" fill="#4A4855"/>
</g>
</svg>
