<svg data-testid="icon-deadline" fill="none" height="16" viewBox="0 0 16 16" width="16" xmlns="http://www.w3.org/2000/svg">
	<mask height="16" id="mask0_2272_11722" maskUnits="userSpaceOnUse" style="mask-type: alpha" width="16" x="0" y="0">
		<rect fill="#D9D9D9" height="16" width="16" />
	</mask>
	<g mask="url(#mask0_2272_11722)">
		<path d="M5.33329 13.3333H10.6666V11.3333C10.6666 10.6 10.4055 9.9722 9.88329 9.44998C9.36107 8.92776 8.73329 8.66665 7.99996 8.66665C7.26663 8.66665 6.63885 8.92776 6.11663 9.44998C5.5944 9.9722 5.33329 10.6 5.33329 11.3333V13.3333ZM2.66663 14.6666V13.3333H3.99996V11.3333C3.99996 10.6555 4.15829 10.0194 4.47496 9.42498C4.79163 8.83053 5.23329 8.35554 5.79996 7.99998C5.23329 7.64442 4.79163 7.16942 4.47496 6.57498C4.15829 5.98054 3.99996 5.34442 3.99996 4.66665V2.66665H2.66663V1.33331H13.3333V2.66665H12V4.66665C12 5.34442 11.8416 5.98054 11.525 6.57498C11.2083 7.16942 10.7666 7.64442 10.2 7.99998C10.7666 8.35554 11.2083 8.83053 11.525 9.42498C11.8416 10.0194 12 10.6555 12 11.3333V13.3333H13.3333V14.6666H2.66663Z" fill="#2E2D36" />
	</g>
</svg>