<svg width="16" height="16" viewBox="0 0 24 24" fill="none" xmlns="http://www.w3.org/2000/svg">
  <mask id="mask0_3345_6286" style="mask-type:alpha" maskUnits="userSpaceOnUse" x="4" y="4" width="16" height="16">
    <rect x="4" y="4" width="16" height="16" fill="#D9D9D9"/>
  </mask>
  <g mask="url(#mask0_3345_6286)">
    <path d="M8.66602 18C8.29935 18 7.98546 17.8694 7.72435 17.6083C7.46324 17.3472 7.33268 17.0333 7.33268 16.6667V8H6.66602V6.66667H9.99935V6H13.9993V6.66667H17.3327V8H16.666V16.6667C16.666 17.0333 16.5355 17.3472 16.2743 17.6083C16.0132 17.8694 15.6993 18 15.3327 18H8.66602ZM15.3327 8H8.66602V16.6667H15.3327V8ZM9.99935 15.3333H11.3327V9.33333H9.99935V15.3333ZM12.666 15.3333H13.9993V9.33333H12.666V15.3333Z" fill="#1E13F8"/>
  </g>
</svg>