<svg fill="currentColor" height="12" viewBox="0 0 12 12" width="12" xmlns="http://www.w3.org/2000/svg">
	<mask height="12" id="mask0_2354_4048" maskUnits="userSpaceOnUse" style="mask-type: alpha" width="12" x="0" y="0">
		<rect fill="currentColor" height="12" width="12" />
	</mask>
	<g mask="url(#mask0_2354_4048)">
		<path d="M4.5 4.5V3.5H9V4.5H4.5ZM4.5 6V5H9V6H4.5ZM6 11H3C2.58333 11 2.22917 10.8542 1.9375 10.5625C1.64583 10.2708 1.5 9.91667 1.5 9.5V8H3V1H10.5V5.5125C10.3333 5.49583 10.1646 5.50208 9.99375 5.53125C9.82292 5.56042 9.65833 5.6125 9.5 5.6875V2H4V8H7L6 9H2.5V9.5C2.5 9.64167 2.54792 9.76042 2.64375 9.85625C2.73958 9.95208 2.85833 10 3 10H6V11ZM7 11V9.4625L9.7625 6.7125C9.8375 6.6375 9.92083 6.58333 10.0125 6.55C10.1042 6.51667 10.1958 6.5 10.2875 6.5C10.3875 6.5 10.4833 6.51875 10.575 6.55625C10.6667 6.59375 10.75 6.65 10.825 6.725L11.2875 7.1875C11.3542 7.2625 11.4062 7.34583 11.4438 7.4375C11.4813 7.52917 11.5 7.62083 11.5 7.7125C11.5 7.80417 11.4833 7.89792 11.45 7.99375C11.4167 8.08958 11.3625 8.175 11.2875 8.25L8.5375 11H7ZM7.75 10.25H8.225L9.7375 8.725L9.5125 8.4875L9.275 8.2625L7.75 9.775V10.25ZM9.5125 8.4875L9.275 8.2625L9.7375 8.725L9.5125 8.4875Z" fill="currentColor" />
	</g>
</svg>