<svg width="16" height="16" viewBox="0 0 16 16" fill="none" xmlns="http://www.w3.org/2000/svg">
<mask id="mask0_7005_11715" style="mask-type:alpha" maskUnits="userSpaceOnUse" x="0" y="0" width="16" height="16">
<rect width="16" height="16" fill="#D9D9D9"/>
</mask>
<g mask="url(#mask0_7005_11715)">
<path d="M2.66634 13.3334C2.29967 13.3334 1.98579 13.2028 1.72467 12.9417C1.46356 12.6806 1.33301 12.3667 1.33301 12V4.00002C1.33301 3.63335 1.46356 3.31946 1.72467 3.05835C1.98579 2.79724 2.29967 2.66669 2.66634 2.66669H13.333C13.6997 2.66669 14.0136 2.79724 14.2747 3.05835C14.5358 3.31946 14.6663 3.63335 14.6663 4.00002V12C14.6663 12.3667 14.5358 12.6806 14.2747 12.9417C14.0136 13.2028 13.6997 13.3334 13.333 13.3334H2.66634ZM7.99967 8.66669L2.66634 5.33335V12H13.333V5.33335L7.99967 8.66669ZM7.99967 7.33335L13.333 4.00002H2.66634L7.99967 7.33335ZM2.66634 5.33335V4.00002V12V5.33335Z" fill="#4A4855"/>
</g>
</svg>
