<svg fill="none" height="56" viewBox="0 0 48 56" width="48" xmlns="http://www.w3.org/2000/svg">
	<path d="M16.6943 8.50006H30.793L42.5 20.2071V42.793C42.4998 45.3646 40.2642 47.5 37.4404 47.5001H16.5703C13.7352 47.5001 11.5002 45.3641 11.5 42.793V13.2071L11.5068 12.9688C11.647 10.5177 13.9333 8.5002 16.6943 8.50006Z" fill="white" stroke="#DBDBDB" />
	<path d="M31.0257 16.16V8L43 20H35.0171C31.4248 20 30.8593 17.44 31.0257 16.16Z" fill="#D4D4D8" />
	<rect fill="#079455" height="15" rx="3" width="28" x="5" y="27" />
	<path d="M15.6454 33.7461H14.2455C14.2199 33.565 14.1677 33.4041 14.0889 33.2635C14.0101 33.1207 13.9089 32.9993 13.7853 32.8991C13.6617 32.799 13.519 32.7223 13.357 32.669C13.1972 32.6158 13.0236 32.5891 12.8361 32.5891C12.4973 32.5891 12.2022 32.6733 11.9508 32.8416C11.6994 33.0078 11.5044 33.2507 11.3659 33.5703C11.2274 33.8878 11.1582 34.2734 11.1582 34.7273C11.1582 35.1939 11.2274 35.5859 11.3659 35.9034C11.5065 36.2209 11.7025 36.4606 11.954 36.6225C12.2054 36.7844 12.4962 36.8654 12.8265 36.8654C13.0119 36.8654 13.1834 36.8409 13.341 36.7919C13.5008 36.7429 13.6425 36.6715 13.7661 36.5778C13.8897 36.4819 13.992 36.3658 14.0729 36.2294C14.156 36.093 14.2136 35.9375 14.2455 35.7628L15.6454 35.7692C15.6092 36.0696 15.5186 36.3594 15.3737 36.6385C15.231 36.9155 15.0381 37.1637 14.7952 37.3832C14.5545 37.6005 14.2668 37.7731 13.9323 37.9009C13.5999 38.0266 13.2239 38.0895 12.8041 38.0895C12.2203 38.0895 11.6983 37.9574 11.2381 37.6932C10.78 37.429 10.4177 37.0465 10.1514 36.5458C9.88721 36.0451 9.7551 35.4389 9.7551 34.7273C9.7551 34.0135 9.88934 33.4062 10.1578 32.9055C10.4263 32.4048 10.7906 32.0234 11.2508 31.7614C11.7111 31.4972 12.2288 31.3651 12.8041 31.3651C13.1834 31.3651 13.5349 31.4183 13.8588 31.5249C14.1848 31.6314 14.4735 31.7869 14.7249 31.9915C14.9763 32.1939 15.1809 32.4421 15.3386 32.7362C15.4984 33.0302 15.6006 33.3668 15.6454 33.7461ZM20.1885 33.337C20.163 33.0792 20.0532 32.8789 19.8593 32.7362C19.6654 32.5934 19.4023 32.522 19.0699 32.522C18.8441 32.522 18.6534 32.554 18.4978 32.6179C18.3423 32.6797 18.223 32.766 18.1399 32.8768C18.0589 32.9876 18.0184 33.1133 18.0184 33.2539C18.0142 33.3711 18.0387 33.4734 18.0919 33.5607C18.1473 33.6481 18.223 33.7237 18.3188 33.7876C18.4147 33.8494 18.5255 33.9038 18.6512 33.9506C18.7769 33.9954 18.9112 34.0337 19.0539 34.0657L19.642 34.2063C19.9275 34.2702 20.1896 34.3555 20.4282 34.462C20.6669 34.5685 20.8735 34.6996 21.0483 34.8551C21.223 35.0107 21.3583 35.1939 21.4541 35.4048C21.5522 35.6158 21.6022 35.8576 21.6044 36.1303C21.6022 36.5309 21.5 36.8782 21.2975 37.1722C21.0973 37.4641 20.8075 37.6911 20.4282 37.853C20.0511 38.0128 19.5962 38.0927 19.0635 38.0927C18.5351 38.0927 18.0749 38.0117 17.6828 37.8498C17.2929 37.6879 16.9882 37.4482 16.7688 37.1307C16.5514 36.8111 16.4375 36.4158 16.4268 35.945H17.7659C17.7809 36.1644 17.8437 36.3477 17.9545 36.4947C18.0674 36.6396 18.2176 36.7493 18.4051 36.8239C18.5948 36.8963 18.8089 36.9325 19.0475 36.9325C19.2819 36.9325 19.4854 36.8984 19.658 36.8303C19.8327 36.7621 19.968 36.6673 20.0639 36.5458C20.1598 36.4244 20.2077 36.2848 20.2077 36.1271C20.2077 35.9801 20.164 35.8565 20.0767 35.7564C19.9914 35.6562 19.8657 35.571 19.6995 35.5007C19.5355 35.4304 19.3341 35.3665 19.0955 35.3089L18.3828 35.13C17.8309 34.9957 17.3952 34.7859 17.0756 34.5004C16.756 34.2148 16.5973 33.8303 16.5994 33.3466C16.5973 32.9503 16.7027 32.604 16.9158 32.3079C17.131 32.0117 17.4261 31.7805 17.8011 31.6143C18.1761 31.4482 18.6022 31.3651 19.0795 31.3651C19.5653 31.3651 19.9893 31.4482 20.3515 31.6143C20.7159 31.7805 20.9992 32.0117 21.2017 32.3079C21.4041 32.604 21.5085 32.9471 21.5149 33.337H20.1885ZM23.7177 31.4545L25.2998 36.4276H25.3605L26.9457 31.4545H28.4798L26.2234 38H24.44L22.1804 31.4545H23.7177Z" fill="white" />
</svg>