<svg fill="none" height="56" viewBox="0 0 48 56" width="48" xmlns="http://www.w3.org/2000/svg">
	<path d="M16.6943 8.50005H30.793L42.5 20.2071V42.793C42.4998 45.3646 40.2642 47.5 37.4404 47.5H16.5703C13.7352 47.5 11.5002 45.3641 11.5 42.793V13.2071L11.5068 12.9688C11.647 10.5176 13.9333 8.50018 16.6943 8.50005Z" fill="white" stroke="#DBDBDB" />
	<path d="M31.0257 16.16V8L43 20H35.0171C31.4248 20 30.8593 17.44 31.0257 16.16Z" fill="#D4D4D8" />
	<rect fill="#D92D20" height="15" rx="3" width="26" x="5" y="27" />
	<path d="M9.74907 38V31.4545H12.3315C12.8279 31.4545 13.2508 31.5494 13.6003 31.739C13.9497 31.9265 14.216 32.1875 14.3993 32.522C14.5847 32.8544 14.6773 33.2379 14.6773 33.6726C14.6773 34.1072 14.5836 34.4908 14.3961 34.8232C14.2086 35.1555 13.9369 35.4144 13.5811 35.5998C13.2274 35.7852 12.7991 35.8778 12.2963 35.8778H10.6503V34.7688H12.0726C12.3389 34.7688 12.5584 34.723 12.731 34.6314C12.9057 34.5376 13.0356 34.4087 13.1209 34.2447C13.2082 34.0785 13.2519 33.8878 13.2519 33.6726C13.2519 33.4553 13.2082 33.2656 13.1209 33.1037C13.0356 32.9396 12.9057 32.8129 12.731 32.7234C12.5562 32.6317 12.3347 32.5859 12.0662 32.5859H11.1329V38H9.74907ZM17.8965 38H15.5762V31.4545H17.9157C18.5741 31.4545 19.1408 31.5856 19.616 31.8477C20.0911 32.1076 20.4565 32.4815 20.7122 32.9695C20.97 33.4574 21.0989 34.0412 21.0989 34.7209C21.0989 35.4027 20.97 35.9886 20.7122 36.4787C20.4565 36.9687 20.089 37.3448 19.6096 37.6069C19.1323 37.869 18.5613 38 17.8965 38ZM16.9601 36.8143H17.839C18.2481 36.8143 18.5922 36.7418 18.8713 36.5969C19.1526 36.4499 19.3635 36.223 19.5041 35.9162C19.6469 35.6072 19.7183 35.2088 19.7183 34.7209C19.7183 34.2372 19.6469 33.842 19.5041 33.5352C19.3635 33.2283 19.1536 33.0025 18.8745 32.8576C18.5954 32.7127 18.2513 32.6403 17.8422 32.6403H16.9601V36.8143ZM22.1241 38V31.4545H26.4579V32.5955H23.5079V34.1552H26.1702V35.2962H23.5079V38H22.1241Z" fill="white" />
</svg>