<svg width="40" height="40" viewBox="0 0 40 40" fill="none" xmlns="http://www.w3.org/2000/svg">
<path d="M12.6943 0.500061H26.793L38.5 12.2071V34.793C38.4998 37.3646 36.2642 39.5 33.4404 39.5001H12.5703C9.73516 39.5001 7.50023 37.3641 7.5 34.793V5.20709C7.50013 2.64978 9.84436 0.500203 12.6943 0.500061Z" fill="white" stroke="#DBDBDB"/>
<path d="M27.0257 8.16V0L39 12H31.0171C27.4248 12 26.8593 9.44 27.0257 8.16Z" fill="#D4D4D8"/>
<rect x="1" y="19" width="23.6667" height="15" rx="3" fill="#D74C4C"/>
<path d="M5.95122 23.4545H7.65789L9.46045 27.8523H9.53715L11.3397 23.4545H13.0464V30H11.7041V25.7397H11.6497L9.95583 29.968H9.04177L7.34788 25.7237H7.29355V30H5.95122V23.4545Z" fill="white"/>
<path d="M17.75 30L16 25.9725H17.75V23H18.9167V25.9725H20.6667L18.9167 30H17.75Z" fill="white"/>
</svg>
