<svg fill="none" height="56" viewBox="0 0 48 56" width="48" xmlns="http://www.w3.org/2000/svg">
	<path d="M16.6943 8.50006H30.793L42.5 20.2071V42.793C42.4998 45.3646 40.2642 47.5 37.4404 47.5001H16.5703C13.7352 47.5001 11.5002 45.3641 11.5 42.793V13.2071L11.5068 12.9688C11.647 10.5177 13.9333 8.5002 16.6943 8.50006Z" fill="white" stroke="#DBDBDB" />
	<path d="M31.0257 16.16V8L43 20H35.0171C31.4248 20 30.8593 17.44 31.0257 16.16Z" fill="#D4D4D8" />
	<rect fill="#E62E05" height="15" rx="3" width="26" x="5" y="27" />
	<path d="M9.73588 38V31.4545H12.3183C12.8147 31.4545 13.2377 31.5494 13.5871 31.739C13.9365 31.9265 14.2029 32.1875 14.3861 32.522C14.5715 32.8544 14.6642 33.2379 14.6642 33.6726C14.6642 34.1072 14.5704 34.4908 14.3829 34.8232C14.1954 35.1555 13.9237 35.4144 13.5679 35.5998C13.2142 35.7852 12.786 35.8778 12.2831 35.8778H10.6372V34.7688H12.0594C12.3257 34.7688 12.5452 34.723 12.7178 34.6314C12.8925 34.5376 13.0225 34.4087 13.1077 34.2447C13.195 34.0785 13.2387 33.8878 13.2387 33.6726C13.2387 33.4553 13.195 33.2656 13.1077 33.1037C13.0225 32.9396 12.8925 32.8129 12.7178 32.7234C12.5431 32.6317 12.3215 32.5859 12.053 32.5859H11.1198V38H9.73588ZM15.563 38V31.4545H18.1454C18.6419 31.4545 19.0648 31.5494 19.4142 31.739C19.7637 31.9265 20.03 32.1875 20.2132 32.522C20.3986 32.8544 20.4913 33.2379 20.4913 33.6726C20.4913 34.1072 20.3976 34.4908 20.2101 34.8232C20.0226 35.1555 19.7509 35.4144 19.3951 35.5998C19.0414 35.7852 18.6131 35.8778 18.1103 35.8778H16.4643V34.7688H17.8865C18.1529 34.7688 18.3723 34.723 18.5449 34.6314C18.7196 34.5376 18.8496 34.4087 18.9348 34.2447C19.0222 34.0785 19.0659 33.8878 19.0659 33.6726C19.0659 33.4553 19.0222 33.2656 18.9348 33.1037C18.8496 32.9396 18.7196 32.8129 18.5449 32.7234C18.3702 32.6317 18.1486 32.5859 17.8801 32.5859H16.9469V38H15.563ZM21.1409 32.5955V31.4545H26.5166V32.5955H24.5127V38H23.1448V32.5955H21.1409Z" fill="white" />
</svg>