<svg fill="none" height="56" viewBox="0 0 48 56" width="48" xmlns="http://www.w3.org/2000/svg">
	<path d="M16.6943 8.50006H30.793L42.5 20.2071V42.793C42.4998 45.3646 40.2642 47.5 37.4404 47.5001H16.5703C13.7352 47.5001 11.5002 45.3641 11.5 42.793V13.2071L11.5068 12.9688C11.647 10.5177 13.9333 8.5002 16.6943 8.50006Z" fill="white" stroke="#DBDBDB" />
	<path d="M31.0257 16.16V8L43 20H35.0171C31.4248 20 30.8593 17.44 31.0257 16.16Z" fill="#D4D4D8" />
	<rect fill="#155EEF" height="15" rx="3" width="29" x="5" y="27" />
	<path d="M12.2115 38H9.89116V31.4545H12.2306C12.889 31.4545 13.4558 31.5856 13.9309 31.8477C14.4061 32.1076 14.7715 32.4815 15.0272 32.9695C15.285 33.4574 15.4139 34.0412 15.4139 34.7209C15.4139 35.4027 15.285 35.9886 15.0272 36.4787C14.7715 36.9687 14.4039 37.3448 13.9245 37.6069C13.4473 37.869 12.8762 38 12.2115 38ZM11.275 36.8143H12.1539C12.563 36.8143 12.9071 36.7418 13.1863 36.5969C13.4675 36.4499 13.6784 36.223 13.8191 35.9162C13.9618 35.6072 14.0332 35.2088 14.0332 34.7209C14.0332 34.2372 13.9618 33.842 13.8191 33.5352C13.6784 33.2283 13.4686 33.0025 13.1895 32.8576C12.9103 32.7127 12.5662 32.6403 12.1571 32.6403H11.275V36.8143ZM22.4539 34.7273C22.4539 35.4411 22.3186 36.0483 22.048 36.549C21.7796 37.0497 21.4131 37.4322 20.9486 37.6964C20.4862 37.9585 19.9664 38.0895 19.3889 38.0895C18.8073 38.0895 18.2852 37.9574 17.8229 37.6932C17.3605 37.429 16.9951 37.0465 16.7267 36.5458C16.4582 36.0451 16.324 35.4389 16.324 34.7273C16.324 34.0135 16.4582 33.4062 16.7267 32.9055C16.9951 32.4048 17.3605 32.0234 17.8229 31.7614C18.2852 31.4972 18.8073 31.3651 19.3889 31.3651C19.9664 31.3651 20.4862 31.4972 20.9486 31.7614C21.4131 32.0234 21.7796 32.4048 22.048 32.9055C22.3186 33.4062 22.4539 34.0135 22.4539 34.7273ZM21.0509 34.7273C21.0509 34.2649 20.9816 33.875 20.8431 33.5575C20.7068 33.2401 20.5139 32.9993 20.2646 32.8352C20.0154 32.6712 19.7235 32.5891 19.3889 32.5891C19.0544 32.5891 18.7625 32.6712 18.5132 32.8352C18.2639 32.9993 18.07 33.2401 17.9316 33.5575C17.7952 33.875 17.727 34.2649 17.727 34.7273C17.727 35.1896 17.7952 35.5795 17.9316 35.897C18.07 36.2145 18.2639 36.4553 18.5132 36.6193C18.7625 36.7834 19.0544 36.8654 19.3889 36.8654C19.7235 36.8654 20.0154 36.7834 20.2646 36.6193C20.5139 36.4553 20.7068 36.2145 20.8431 35.897C20.9816 35.5795 21.0509 35.1896 21.0509 34.7273ZM29.2543 33.7461H27.8544C27.8288 33.565 27.7766 33.4041 27.6978 33.2635C27.619 33.1207 27.5178 32.9993 27.3942 32.8991C27.2706 32.799 27.1278 32.7223 26.9659 32.669C26.8061 32.6158 26.6325 32.5891 26.445 32.5891C26.1062 32.5891 25.8111 32.6733 25.5597 32.8416C25.3082 33.0078 25.1133 33.2507 24.9748 33.5703C24.8363 33.8878 24.767 34.2734 24.767 34.7273C24.767 35.1939 24.8363 35.5859 24.9748 35.9034C25.1154 36.2209 25.3114 36.4606 25.5629 36.6225C25.8143 36.7844 26.1051 36.8654 26.4354 36.8654C26.6207 36.8654 26.7923 36.8409 26.9499 36.7919C27.1097 36.7429 27.2514 36.6715 27.375 36.5778C27.4986 36.4819 27.6009 36.3658 27.6818 36.2294C27.7649 36.093 27.8224 35.9375 27.8544 35.7628L29.2543 35.7692C29.218 36.0696 29.1275 36.3594 28.9826 36.6385C28.8398 36.9155 28.647 37.1637 28.4041 37.3832C28.1634 37.6005 27.8757 37.7731 27.5412 37.9009C27.2088 38.0266 26.8327 38.0895 26.413 38.0895C25.8292 38.0895 25.3072 37.9574 24.8469 37.6932C24.3888 37.429 24.0266 37.0465 23.7603 36.5458C23.4961 36.0451 23.364 35.4389 23.364 34.7273C23.364 34.0135 23.4982 33.4062 23.7667 32.9055C24.0352 32.4048 24.3995 32.0234 24.8597 31.7614C25.32 31.4972 25.8377 31.3651 26.413 31.3651C26.7923 31.3651 27.1438 31.4183 27.4677 31.5249C27.7937 31.6314 28.0824 31.7869 28.3338 31.9915C28.5852 32.1939 28.7898 32.4421 28.9474 32.7362C29.1072 33.0302 29.2095 33.3668 29.2543 33.7461Z" fill="white" />
</svg>