<svg fill="none" height="56" viewBox="0 0 48 56" width="48" xmlns="http://www.w3.org/2000/svg">
	<path d="M16.6943 8.50006H30.793L42.5 20.2071V42.793C42.4998 45.3646 40.2642 47.5 37.4404 47.5001H16.5703C13.7352 47.5001 11.5002 45.3641 11.5 42.793V13.2071L11.5068 12.9688C11.647 10.5177 13.9333 8.5002 16.6943 8.50006Z" fill="white" stroke="#DBDBDB" />
	<path d="M31.0257 16.16V8L43 20H35.0171C31.4248 20 30.8593 17.44 31.0257 16.16Z" fill="#D4D4D8" />
	<rect fill="#155EEF" height="15" rx="3" width="35" x="5" y="27" />
	<path d="M12.065 38H9.74467V31.4545H12.0842C12.7425 31.4545 13.3093 31.5856 13.7844 31.8477C14.2596 32.1076 14.625 32.4815 14.8807 32.9695C15.1385 33.4574 15.2674 34.0412 15.2674 34.7209C15.2674 35.4027 15.1385 35.9886 14.8807 36.4787C14.625 36.9687 14.2575 37.3448 13.7781 37.6069C13.3008 37.869 12.7298 38 12.065 38ZM11.1286 36.8143H12.0075C12.4165 36.8143 12.7607 36.7418 13.0398 36.5969C13.321 36.4499 13.532 36.223 13.6726 35.9162C13.8153 35.6072 13.8867 35.2088 13.8867 34.7209C13.8867 34.2372 13.8153 33.842 13.6726 33.5352C13.532 33.2283 13.3221 33.0025 13.043 32.8576C12.7638 32.7127 12.4197 32.6403 12.0107 32.6403H11.1286V36.8143ZM22.3074 34.7273C22.3074 35.4411 22.1721 36.0483 21.9015 36.549C21.6331 37.0497 21.2666 37.4322 20.8021 37.6964C20.3398 37.9585 19.8199 38.0895 19.2425 38.0895C18.6608 38.0895 18.1388 37.9574 17.6764 37.6932C17.214 37.429 16.8486 37.0465 16.5802 36.5458C16.3117 36.0451 16.1775 35.4389 16.1775 34.7273C16.1775 34.0135 16.3117 33.4062 16.5802 32.9055C16.8486 32.4048 17.214 32.0234 17.6764 31.7614C18.1388 31.4972 18.6608 31.3651 19.2425 31.3651C19.8199 31.3651 20.3398 31.4972 20.8021 31.7614C21.2666 32.0234 21.6331 32.4048 21.9015 32.9055C22.1721 33.4062 22.3074 34.0135 22.3074 34.7273ZM20.9044 34.7273C20.9044 34.2649 20.8351 33.875 20.6966 33.5575C20.5603 33.2401 20.3675 32.9993 20.1182 32.8352C19.8689 32.6712 19.577 32.5891 19.2425 32.5891C18.9079 32.5891 18.616 32.6712 18.3667 32.8352C18.1175 32.9993 17.9236 33.2401 17.7851 33.5575C17.6487 33.875 17.5805 34.2649 17.5805 34.7273C17.5805 35.1896 17.6487 35.5795 17.7851 35.897C17.9236 36.2145 18.1175 36.4553 18.3667 36.6193C18.616 36.7834 18.9079 36.8654 19.2425 36.8654C19.577 36.8654 19.8689 36.7834 20.1182 36.6193C20.3675 36.4553 20.5603 36.2145 20.6966 35.897C20.8351 35.5795 20.9044 35.1896 20.9044 34.7273ZM29.1078 33.7461H27.7079C27.6824 33.565 27.6301 33.4041 27.5513 33.2635C27.4725 33.1207 27.3713 32.9993 27.2477 32.8991C27.1241 32.799 26.9814 32.7223 26.8194 32.669C26.6596 32.6158 26.486 32.5891 26.2985 32.5891C25.9597 32.5891 25.6646 32.6733 25.4132 32.8416C25.1618 33.0078 24.9668 33.2507 24.8283 33.5703C24.6898 33.8878 24.6206 34.2734 24.6206 34.7273C24.6206 35.1939 24.6898 35.5859 24.8283 35.9034C24.9689 36.2209 25.165 36.4606 25.4164 36.6225C25.6678 36.7844 25.9586 36.8654 26.2889 36.8654C26.4743 36.8654 26.6458 36.8409 26.8034 36.7919C26.9632 36.7429 27.1049 36.6715 27.2285 36.5778C27.3521 36.4819 27.4544 36.3658 27.5353 36.2294C27.6184 36.093 27.676 35.9375 27.7079 35.7628L29.1078 35.7692C29.0716 36.0696 28.981 36.3594 28.8361 36.6385C28.6934 36.9155 28.5005 37.1637 28.2576 37.3832C28.0169 37.6005 27.7292 37.7731 27.3947 37.9009C27.0623 38.0266 26.6863 38.0895 26.2665 38.0895C25.6827 38.0895 25.1607 37.9574 24.7005 37.6932C24.2424 37.429 23.8801 37.0465 23.6138 36.5458C23.3496 36.0451 23.2175 35.4389 23.2175 34.7273C23.2175 34.0135 23.3517 33.4062 23.6202 32.9055C23.8887 32.4048 24.253 32.0234 24.7132 31.7614C25.1735 31.4972 25.6912 31.3651 26.2665 31.3651C26.6458 31.3651 26.9973 31.4183 27.3212 31.5249C27.6472 31.6314 27.9359 31.7869 28.1873 31.9915C28.4387 32.1939 28.6433 32.4421 28.801 32.7362C28.9608 33.0302 29.063 33.3668 29.1078 33.7461ZM31.2571 31.4545L32.5771 33.6854H32.6282L33.9545 31.4545H35.5174L33.5199 34.7273L35.5621 38H33.9705L32.6282 35.766H32.5771L31.2347 38H29.6495L31.6982 34.7273L29.6879 31.4545H31.2571Z" fill="white" />
</svg>