<svg fill="none" height="56" viewBox="0 0 48 56" width="48" xmlns="http://www.w3.org/2000/svg">
	<path d="M16.6943 8.50006H30.793L42.5 20.2071V42.793C42.4998 45.3646 40.2642 47.5 37.4404 47.5001H16.5703C13.7352 47.5001 11.5002 45.3641 11.5 42.793V13.2071L11.5068 12.9688C11.647 10.5177 13.9333 8.5002 16.6943 8.50006Z" fill="white" stroke="#DBDBDB" />
	<path d="M31.0257 16.16V8L43 20H35.0171C31.4248 20 30.8593 17.44 31.0257 16.16Z" fill="#D4D4D8" />
	<rect fill="#E62E05" height="15" rx="3" width="33" x="5" y="27" />
	<path d="M10.0191 38V31.4545H12.6015C13.0979 31.4545 13.5209 31.5494 13.8703 31.739C14.2197 31.9265 14.4861 32.1875 14.6693 32.522C14.8547 32.8544 14.9474 33.2379 14.9474 33.6726C14.9474 34.1072 14.8536 34.4908 14.6661 34.8232C14.4786 35.1555 14.2069 35.4144 13.8511 35.5998C13.4974 35.7852 13.0692 35.8778 12.5663 35.8778H10.9204V34.7688H12.3426C12.6089 34.7688 12.8284 34.723 13.001 34.6314C13.1757 34.5376 13.3057 34.4087 13.3909 34.2447C13.4782 34.0785 13.5219 33.8878 13.5219 33.6726C13.5219 33.4553 13.4782 33.2656 13.3909 33.1037C13.3057 32.9396 13.1757 32.8129 13.001 32.7234C12.8263 32.6317 12.6047 32.5859 12.3362 32.5859H11.403V38H10.0191ZM15.8462 38V31.4545H18.4286C18.9251 31.4545 19.348 31.5494 19.6974 31.739C20.0469 31.9265 20.3132 32.1875 20.4964 32.522C20.6818 32.8544 20.7745 33.2379 20.7745 33.6726C20.7745 34.1072 20.6808 34.4908 20.4933 34.8232C20.3058 35.1555 20.0341 35.4144 19.6783 35.5998C19.3246 35.7852 18.8963 35.8778 18.3935 35.8778H16.7475V34.7688H18.1697C18.4361 34.7688 18.6555 34.723 18.8281 34.6314C19.0028 34.5376 19.1328 34.4087 19.218 34.2447C19.3054 34.0785 19.3491 33.8878 19.3491 33.6726C19.3491 33.4553 19.3054 33.2656 19.218 33.1037C19.1328 32.9396 19.0028 32.8129 18.8281 32.7234C18.6534 32.6317 18.4318 32.5859 18.1634 32.5859H17.2301V38H15.8462ZM21.4241 32.5955V31.4545H26.7998V32.5955H24.7959V38H23.428V32.5955H21.4241ZM28.9827 31.4545L30.3026 33.6854H30.3538L31.6801 31.4545H33.243L31.2455 34.7273L33.2877 38H31.6961L30.3538 35.766H30.3026L28.9603 38H27.3751L29.4237 34.7273L27.4134 31.4545H28.9827Z" fill="white" />
</svg>