<svg fill="none" height="56" viewBox="0 0 48 56" width="48" xmlns="http://www.w3.org/2000/svg">
	<path d="M16.6943 8.50006H30.793L42.5 20.2071V42.793C42.4998 45.3646 40.2642 47.5 37.4404 47.5001H16.5703C13.7352 47.5001 11.5002 45.3641 11.5 42.793V13.2071L11.5068 12.9688C11.647 10.5177 13.9333 8.5002 16.6943 8.50006Z" fill="white" stroke="#DBDBDB" />
	<path d="M31.0257 16.16V8L43 20H35.0171C31.4248 20 30.8593 17.44 31.0257 16.16Z" fill="#D4D4D8" />
	<rect fill="#D74C4C" height="15" rx="3" width="23.6667" x="5" y="27" />
	<path d="M9.95122 31.4545H11.6579L13.4604 35.8523H13.5372L15.3397 31.4545H17.0464V38H15.7041V33.7397H15.6497L13.9558 37.968H13.0418L11.3479 33.7237H11.2935V38H9.95122V31.4545Z" fill="white" />
	<path d="M21.75 38L20 33.9725H21.75V31H22.9167V33.9725H24.6667L22.9167 38H21.75Z" fill="white" />
</svg>