<svg fill="none" height="16" viewBox="0 0 16 16" width="16" xmlns="http://www.w3.org/2000/svg">
	<mask height="16" id="mask0_1436_3724" maskUnits="userSpaceOnUse" style="mask-type: alpha" width="16" x="0" y="0">
		<rect fill="#D9D9D9" height="16" width="16" />
	</mask>
	<g mask="url(#mask0_1436_3724)">
		<path d="M7.99999 14.6666C7.08888 14.6666 6.22777 14.4916 5.41666 14.1416C4.60555 13.7916 3.89722 13.3139 3.29166 12.7083C2.68611 12.1028 2.20833 11.3944 1.85833 10.5833C1.50833 9.7722 1.33333 8.91109 1.33333 7.99998C1.33333 7.07776 1.50833 6.21387 1.85833 5.40831C2.20833 4.60276 2.68611 3.8972 3.29166 3.29165C3.89722 2.68609 4.60555 2.20831 5.41666 1.85831C6.22777 1.50831 7.08888 1.33331 7.99999 1.33331C8.92222 1.33331 9.78611 1.50831 10.5917 1.85831C11.3972 2.20831 12.1028 2.68609 12.7083 3.29165C13.3139 3.8972 13.7917 4.60276 14.1417 5.40831C14.4917 6.21387 14.6667 7.07776 14.6667 7.99998C14.6667 8.91109 14.4917 9.7722 14.1417 10.5833C13.7917 11.3944 13.3139 12.1028 12.7083 12.7083C12.1028 13.3139 11.3972 13.7916 10.5917 14.1416C9.78611 14.4916 8.92222 14.6666 7.99999 14.6666ZM7.99999 13.3C8.28888 12.9 8.53888 12.4833 8.74999 12.05C8.96111 11.6166 9.13333 11.1555 9.26666 10.6666H6.73333C6.86666 11.1555 7.03888 11.6166 7.24999 12.05C7.46111 12.4833 7.71111 12.9 7.99999 13.3ZM6.26666 13.0333C6.06666 12.6666 5.89166 12.2861 5.74166 11.8916C5.59166 11.4972 5.46666 11.0889 5.36666 10.6666H3.39999C3.72222 11.2222 4.12499 11.7055 4.60833 12.1166C5.09166 12.5278 5.64444 12.8333 6.26666 13.0333ZM9.73333 13.0333C10.3555 12.8333 10.9083 12.5278 11.3917 12.1166C11.875 11.7055 12.2778 11.2222 12.6 10.6666H10.6333C10.5333 11.0889 10.4083 11.4972 10.2583 11.8916C10.1083 12.2861 9.93333 12.6666 9.73333 13.0333ZM2.83333 9.33331H5.09999C5.06666 9.11109 5.04166 8.89165 5.02499 8.67498C5.00833 8.45831 4.99999 8.23331 4.99999 7.99998C4.99999 7.76665 5.00833 7.54165 5.02499 7.32498C5.04166 7.10831 5.06666 6.88887 5.09999 6.66665H2.83333C2.77777 6.88887 2.73611 7.10831 2.70833 7.32498C2.68055 7.54165 2.66666 7.76665 2.66666 7.99998C2.66666 8.23331 2.68055 8.45831 2.70833 8.67498C2.73611 8.89165 2.77777 9.11109 2.83333 9.33331ZM6.43333 9.33331H9.56666C9.59999 9.11109 9.625 8.89165 9.64166 8.67498C9.65833 8.45831 9.66666 8.23331 9.66666 7.99998C9.66666 7.76665 9.65833 7.54165 9.64166 7.32498C9.625 7.10831 9.59999 6.88887 9.56666 6.66665H6.43333C6.39999 6.88887 6.37499 7.10831 6.35833 7.32498C6.34166 7.54165 6.33333 7.76665 6.33333 7.99998C6.33333 8.23331 6.34166 8.45831 6.35833 8.67498C6.37499 8.89165 6.39999 9.11109 6.43333 9.33331ZM10.9 9.33331H13.1667C13.2222 9.11109 13.2639 8.89165 13.2917 8.67498C13.3194 8.45831 13.3333 8.23331 13.3333 7.99998C13.3333 7.76665 13.3194 7.54165 13.2917 7.32498C13.2639 7.10831 13.2222 6.88887 13.1667 6.66665H10.9C10.9333 6.88887 10.9583 7.10831 10.975 7.32498C10.9917 7.54165 11 7.76665 11 7.99998C11 8.23331 10.9917 8.45831 10.975 8.67498C10.9583 8.89165 10.9333 9.11109 10.9 9.33331ZM10.6333 5.33331H12.6C12.2778 4.77776 11.875 4.29442 11.3917 3.88331C10.9083 3.4722 10.3555 3.16665 9.73333 2.96665C9.93333 3.33331 10.1083 3.71387 10.2583 4.10831C10.4083 4.50276 10.5333 4.91109 10.6333 5.33331ZM6.73333 5.33331H9.26666C9.13333 4.84442 8.96111 4.38331 8.74999 3.94998C8.53888 3.51665 8.28888 3.09998 7.99999 2.69998C7.71111 3.09998 7.46111 3.51665 7.24999 3.94998C7.03888 4.38331 6.86666 4.84442 6.73333 5.33331ZM3.39999 5.33331H5.36666C5.46666 4.91109 5.59166 4.50276 5.74166 4.10831C5.89166 3.71387 6.06666 3.33331 6.26666 2.96665C5.64444 3.16665 5.09166 3.4722 4.60833 3.88331C4.12499 4.29442 3.72222 4.77776 3.39999 5.33331Z" fill="#4A4855" />
	</g>
</svg>