<svg width="16" height="16" viewBox="0 0 16 16" fill="none" xmlns="http://www.w3.org/2000/svg">
<mask id="mask0_1922_7705" style="mask-type:alpha" maskUnits="userSpaceOnUse" x="0" y="0" width="16" height="16">
<rect width="16" height="16" fill="#D9D9D9"/>
</mask>
<g mask="url(#mask0_1922_7705)">
<path d="M7.06666 11.0667L11.7667 6.36668L10.8333 5.43334L7.06666 9.20001L5.16666 7.30001L4.23333 8.23334L7.06666 11.0667ZM7.99999 14.6667C7.07777 14.6667 6.21111 14.4917 5.39999 14.1417C4.58888 13.7917 3.88333 13.3167 3.28333 12.7167C2.68333 12.1167 2.20833 11.4111 1.85833 10.6C1.50833 9.7889 1.33333 8.92223 1.33333 8.00001C1.33333 7.07779 1.50833 6.21112 1.85833 5.40001C2.20833 4.5889 2.68333 3.88334 3.28333 3.28334C3.88333 2.68334 4.58888 2.20834 5.39999 1.85834C6.21111 1.50834 7.07777 1.33334 7.99999 1.33334C8.92222 1.33334 9.78888 1.50834 10.6 1.85834C11.4111 2.20834 12.1167 2.68334 12.7167 3.28334C13.3167 3.88334 13.7917 4.5889 14.1417 5.40001C14.4917 6.21112 14.6667 7.07779 14.6667 8.00001C14.6667 8.92223 14.4917 9.7889 14.1417 10.6C13.7917 11.4111 13.3167 12.1167 12.7167 12.7167C12.1167 13.3167 11.4111 13.7917 10.6 14.1417C9.78888 14.4917 8.92222 14.6667 7.99999 14.6667ZM7.99999 13.3333C9.48888 13.3333 10.75 12.8167 11.7833 11.7833C12.8167 10.75 13.3333 9.4889 13.3333 8.00001C13.3333 6.51112 12.8167 5.25001 11.7833 4.21668C10.75 3.18334 9.48888 2.66668 7.99999 2.66668C6.51111 2.66668 5.24999 3.18334 4.21666 4.21668C3.18333 5.25001 2.66666 6.51112 2.66666 8.00001C2.66666 9.4889 3.18333 10.75 4.21666 11.7833C5.24999 12.8167 6.51111 13.3333 7.99999 13.3333Z" fill="#4A4855"/>
</g>
</svg>