<svg width="16" height="16" viewBox="0 0 16 16" fill="none" xmlns="http://www.w3.org/2000/svg">
<mask id="mask0_1848_7388" style="mask-type:alpha" maskUnits="userSpaceOnUse" x="0" y="0" width="16" height="16">
<rect width="16" height="16" fill="#D9D9D9"/>
</mask>
<g mask="url(#mask0_1848_7388)">
<path d="M5.5 14L2 10.5V5.5L5.5 2H10.5L14 5.5V10.5L10.5 14H5.5ZM6.1 10.8333L8 8.93333L9.9 10.8333L10.8333 9.9L8.93333 8L10.8333 6.1L9.9 5.16667L8 7.06667L6.1 5.16667L5.16667 6.1L7.06667 8L5.16667 9.9L6.1 10.8333ZM6.06667 12.6667H9.93333L12.6667 9.93333V6.06667L9.93333 3.33333H6.06667L3.33333 6.06667V9.93333L6.06667 12.6667Z" fill="#4A4855"/>
</g>
</svg>