<svg width="16" height="16" viewBox="0 0 16 16" fill="none" xmlns="http://www.w3.org/2000/svg">
<mask id="mask0_1848_7389" style="mask-type:alpha" maskUnits="userSpaceOnUse" x="0" y="0" width="16" height="16">
<rect width="16" height="16" fill="#D9D9D9"/>
</mask>
<g mask="url(#mask0_1848_7389)">
<path d="M8 14.6833C7.82222 14.6833 7.65278 14.65 7.49167 14.5833C7.33056 14.5167 7.18333 14.4222 7.05 14.3L1.7 8.95002C1.57778 8.81668 1.48333 8.66946 1.41667 8.50835C1.35 8.34724 1.31667 8.17779 1.31667 8.00001C1.31667 7.82224 1.35 7.65001 1.41667 7.48335C1.48333 7.31668 1.57778 7.17224 1.7 7.05001L7.05 1.70001C7.18333 1.56668 7.33056 1.46946 7.49167 1.40835C7.65278 1.34724 7.82222 1.31668 8 1.31668C8.17778 1.31668 8.35 1.34724 8.51667 1.40835C8.68333 1.46946 8.82778 1.56668 8.95 1.70001L14.3 7.05001C14.4333 7.17224 14.5306 7.31668 14.5917 7.48335C14.6528 7.65001 14.6833 7.82224 14.6833 8.00001C14.6833 8.17779 14.6528 8.34724 14.5917 8.50835C14.5306 8.66946 14.4333 8.81668 14.3 8.95002L8.95 14.3C8.82778 14.4222 8.68333 14.5167 8.51667 14.5833C8.35 14.65 8.17778 14.6833 8 14.6833ZM8 13.35L13.35 8.00001L8 2.65001L2.65 8.00001L8 13.35ZM7.33333 8.66668H8.66667V4.66668H7.33333V8.66668ZM8 10.6667C8.18889 10.6667 8.34722 10.6028 8.475 10.475C8.60278 10.3472 8.66667 10.1889 8.66667 10C8.66667 9.81113 8.60278 9.65279 8.475 9.52501C8.34722 9.39724 8.18889 9.33335 8 9.33335C7.81111 9.33335 7.65278 9.39724 7.525 9.52501C7.39722 9.65279 7.33333 9.81113 7.33333 10C7.33333 10.1889 7.39722 10.3472 7.525 10.475C7.65278 10.6028 7.81111 10.6667 8 10.6667Z" fill="#4A4855"/>
</g>
</svg>