<svg xmlns="http://www.w3.org/2000/svg" width="20" height="21" viewBox="0 0 20 21" fill="none">
    <mask id="mask0_5266_7628" style="mask-type:alpha" maskUnits="userSpaceOnUse" x="0" y="0" width="20" height="21">
        <rect y="0.5" width="20" height="20" fill="#D9D9D9"/>
    </mask>
    <g mask="url(#mask0_5266_7628)">
        <path d="M8.83268 14.3334L14.7077 8.45835L13.541 7.29169L8.83268 12L6.45768 9.62502L5.29102 10.7917L8.83268 14.3334ZM9.99935 18.8334C8.84657 18.8334 7.76324 18.6146 6.74935 18.1771C5.73546 17.7396 4.85352 17.1459 4.10352 16.3959C3.35352 15.6459 2.75977 14.7639 2.32227 13.75C1.88477 12.7361 1.66602 11.6528 1.66602 10.5C1.66602 9.34724 1.88477 8.26391 2.32227 7.25002C2.75977 6.23613 3.35352 5.35419 4.10352 4.60419C4.85352 3.85419 5.73546 3.26044 6.74935 2.82294C7.76324 2.38544 8.84657 2.16669 9.99935 2.16669C11.1521 2.16669 12.2355 2.38544 13.2493 2.82294C14.2632 3.26044 15.1452 3.85419 15.8952 4.60419C16.6452 5.35419 17.2389 6.23613 17.6764 7.25002C18.1139 8.26391 18.3327 9.34724 18.3327 10.5C18.3327 11.6528 18.1139 12.7361 17.6764 13.75C17.2389 14.7639 16.6452 15.6459 15.8952 16.3959C15.1452 17.1459 14.2632 17.7396 13.2493 18.1771C12.2355 18.6146 11.1521 18.8334 9.99935 18.8334ZM9.99935 17.1667C11.8605 17.1667 13.4368 16.5209 14.7285 15.2292C16.0202 13.9375 16.666 12.3611 16.666 10.5C16.666 8.63891 16.0202 7.06252 14.7285 5.77085C13.4368 4.47919 11.8605 3.83335 9.99935 3.83335C8.13824 3.83335 6.56185 4.47919 5.27018 5.77085C3.97852 7.06252 3.33268 8.63891 3.33268 10.5C3.33268 12.3611 3.97852 13.9375 5.27018 15.2292C6.56185 16.5209 8.13824 17.1667 9.99935 17.1667Z" fill="#119D47"/>
    </g>
</svg>