<svg width="32" height="32" viewBox="0 0 32 32" fill="none" xmlns="http://www.w3.org/2000/svg">
<mask id="mask0_2939_70527" style="mask-type:alpha" maskUnits="userSpaceOnUse" x="0" y="0" width="32" height="32">
<rect width="32" height="32" fill="#D9D9D9"/>
</mask>
<g mask="url(#mask0_2939_70527)">
<path d="M1.3335 28V25.3333H30.6668V28H1.3335ZM5.3335 24C4.60016 24 3.97238 23.7389 3.45016 23.2167C2.92794 22.6944 2.66683 22.0667 2.66683 21.3333V6.66667C2.66683 5.93333 2.92794 5.30556 3.45016 4.78333C3.97238 4.26111 4.60016 4 5.3335 4H26.6668C27.4002 4 28.0279 4.26111 28.5502 4.78333C29.0724 5.30556 29.3335 5.93333 29.3335 6.66667V21.3333C29.3335 22.0667 29.0724 22.6944 28.5502 23.2167C28.0279 23.7389 27.4002 24 26.6668 24H5.3335ZM5.3335 21.3333H26.6668V6.66667H5.3335V21.3333Z" fill="#4A4855"/>
</g>
</svg>
