<svg width="10" height="10" viewBox="0 0 10 10" fill="none" xmlns="http://www.w3.org/2000/svg">
<path d="M2.49964 9.00001V3.48751C2.49964 3.21251 2.59964 2.97917 2.79964 2.78751C2.99964 2.59584 3.23714 2.50001 3.51214 2.50001H8.99964C9.27464 2.50001 9.51006 2.59792 9.70589 2.79376C9.90172 2.98959 9.99964 3.22501 9.99964 3.50001V7.50001L7.49964 10H3.49964C3.22464 10 2.98922 9.90209 2.79339 9.70626C2.59756 9.51042 2.49964 9.27501 2.49964 9.00001ZM0.0121406 2.12501C-0.0378594 1.85001 0.0163073 1.60209 0.174641 1.38126C0.332974 1.16042 0.549641 1.02501 0.824641 0.975007L6.24964 0.0125068C6.52464 -0.0374932 6.77256 0.0166735 6.99339 0.175007C7.21422 0.33334 7.34964 0.550007 7.39964 0.825007L7.52464 1.50001H6.49964L6.41214 1.00001L0.999641 1.96251L1.49964 4.78751V8.27501C1.36631 8.20001 1.25172 8.10001 1.15589 7.97501C1.06006 7.85001 0.999641 7.70834 0.974641 7.55001L0.0121406 2.12501ZM3.49964 3.50001V9.00001H6.99964V7.00001H8.99964V3.50001H3.49964Z" fill="#211968"/>
</svg>
