<svg width="16" height="17" viewBox="0 0 16 17" fill="none" xmlns="http://www.w3.org/2000/svg">
<mask id="mask0_5062_104" style="mask-type:alpha" maskUnits="userSpaceOnUse" x="0" y="0" width="16" height="17">
<rect y="0.5" width="16" height="16" fill="#D9D9D9"/>
</mask>
<g mask="url(#mask0_5062_104)">
<path d="M4.66672 13.8333V6.48332C4.66672 6.11666 4.80005 5.80554 5.06672 5.54999C5.33338 5.29443 5.65005 5.16666 6.01672 5.16666H13.3334C13.7001 5.16666 14.0139 5.29721 14.2751 5.55832C14.5362 5.81943 14.6667 6.13332 14.6667 6.49999V11.8333L11.3334 15.1667H6.00005C5.63338 15.1667 5.31949 15.0361 5.05838 14.775C4.79727 14.5139 4.66672 14.2 4.66672 13.8333ZM1.35005 4.66666C1.28338 4.29999 1.35561 3.96943 1.56672 3.67499C1.77783 3.38054 2.06672 3.19999 2.43338 3.13332L9.66672 1.84999C10.0334 1.78332 10.3639 1.85554 10.6584 2.06666C10.9528 2.27777 11.1334 2.56666 11.2001 2.93332L11.3667 3.83332H10.0001L9.88338 3.16666L2.66672 4.44999L3.33338 8.21666V12.8667C3.15561 12.7667 3.00283 12.6333 2.87505 12.4667C2.74727 12.3 2.66672 12.1111 2.63338 11.9L1.35005 4.66666ZM6.00005 6.49999V13.8333H10.6667V11.1667H13.3334V6.49999H6.00005Z" fill="#1E13F8"/>
</g>
</svg>
