<svg width="15" height="15" viewBox="0 0 15 15" fill="none" xmlns="http://www.w3.org/2000/svg">
<path d="M5.66647 14.1668L5.39981 12.0335C5.25536 11.9779 5.11925 11.9113 4.99147 11.8335C4.86369 11.7557 4.73869 11.6724 4.61647 11.5835L2.63314 12.4168L0.799805 9.25016L2.51647 7.95016C2.50536 7.87238 2.4998 7.79738 2.4998 7.72516V7.27516C2.4998 7.20294 2.50536 7.12794 2.51647 7.05016L0.799805 5.75016L2.63314 2.5835L4.61647 3.41683C4.73869 3.32794 4.86647 3.24461 4.9998 3.16683C5.13314 3.08905 5.26647 3.02238 5.39981 2.96683L5.66647 0.833496H9.33314L9.5998 2.96683C9.74425 3.02238 9.88036 3.08905 10.0081 3.16683C10.1359 3.24461 10.2609 3.32794 10.3831 3.41683L12.3665 2.5835L14.1998 5.75016L12.4831 7.05016C12.4942 7.12794 12.4998 7.20294 12.4998 7.27516V7.72516C12.4998 7.79738 12.4887 7.87238 12.4665 7.95016L14.1831 9.25016L12.3498 12.4168L10.3831 11.5835C10.2609 11.6724 10.1331 11.7557 9.99981 11.8335C9.86647 11.9113 9.73314 11.9779 9.5998 12.0335L9.33314 14.1668H5.66647ZM6.83314 12.8335H8.14981L8.38314 11.0668C8.72758 10.9779 9.04703 10.8474 9.34147 10.6752C9.63592 10.5029 9.90536 10.2946 10.1498 10.0502L11.7998 10.7335L12.4498 9.60016L11.0165 8.51683C11.072 8.36127 11.1109 8.19738 11.1331 8.02516C11.1554 7.85294 11.1665 7.67794 11.1665 7.50016C11.1665 7.32238 11.1554 7.14739 11.1331 6.97516C11.1109 6.80294 11.072 6.63905 11.0165 6.4835L12.4498 5.40016L11.7998 4.26683L10.1498 4.96683C9.90536 4.71127 9.63592 4.49738 9.34147 4.32516C9.04703 4.15294 8.72758 4.02238 8.38314 3.9335L8.16647 2.16683H6.8498L6.61647 3.9335C6.27203 4.02238 5.95258 4.15294 5.65814 4.32516C5.36369 4.49738 5.09425 4.70572 4.8498 4.95016L3.1998 4.26683L2.5498 5.40016L3.98314 6.46683C3.92758 6.6335 3.88869 6.80016 3.86647 6.96683C3.84425 7.1335 3.83314 7.31127 3.83314 7.50016C3.83314 7.67794 3.84425 7.85016 3.86647 8.01683C3.88869 8.1835 3.92758 8.35016 3.98314 8.51683L2.5498 9.60016L3.1998 10.7335L4.8498 10.0335C5.09425 10.2891 5.36369 10.5029 5.65814 10.6752C5.95258 10.8474 6.27203 10.9779 6.61647 11.0668L6.83314 12.8335ZM7.53314 9.8335C8.17758 9.8335 8.72758 9.60572 9.18314 9.15016C9.63869 8.69461 9.86647 8.14461 9.86647 7.50016C9.86647 6.85572 9.63869 6.30572 9.18314 5.85016C8.72758 5.39461 8.17758 5.16683 7.53314 5.16683C6.87758 5.16683 6.3248 5.39461 5.8748 5.85016C5.42481 6.30572 5.1998 6.85572 5.1998 7.50016C5.1998 8.14461 5.42481 8.69461 5.8748 9.15016C6.3248 9.60572 6.87758 9.8335 7.53314 9.8335Z" fill="#1E13F8"/>
</svg>
