<svg width="12" height="13" viewBox="0 0 12 13" fill="none" xmlns="http://www.w3.org/2000/svg">
<path d="M6.125 5.83333H7.29167V4.66667H8.45833V3.5H7.29167V2.33333H6.125V3.5H4.95833V4.66667H6.125V5.83333ZM4.95833 8.16667H8.45833V7H4.95833V8.16667ZM3.5 10.5C3.17917 10.5 2.90451 10.3858 2.67604 10.1573C2.44757 9.92882 2.33333 9.65417 2.33333 9.33333V1.16667C2.33333 0.845833 2.44757 0.571181 2.67604 0.342708C2.90451 0.114236 3.17917 0 3.5 0H7.58333L11.0833 3.5V9.33333C11.0833 9.65417 10.9691 9.92882 10.7406 10.1573C10.5122 10.3858 10.2375 10.5 9.91667 10.5H3.5ZM3.5 9.33333H9.91667V4.08333L7 1.16667H3.5V9.33333ZM1.16667 12.8333C0.845833 12.8333 0.571181 12.7191 0.342708 12.4906C0.114236 12.2622 0 11.9875 0 11.6667V3.5H1.16667V11.6667H7.58333V12.8333H1.16667Z" fill="#2E2D36"/>
</svg>
