<svg width="13" height="12" viewBox="0 0 13 12" fill="none" xmlns="http://www.w3.org/2000/svg">
<mask id="mask0_5027_10040" style="mask-type:alpha" maskUnits="userSpaceOnUse" x="0" y="0" width="13" height="12">
<rect x="0.5" width="12" height="12" fill="#D9D9D9"/>
</mask>
<g mask="url(#mask0_5027_10040)">
<path d="M4.5 6V5H8.5V6H4.5ZM4.5 4V3H8.5V4H4.5ZM3.5 7H7.25C7.49167 7 7.71667 7.05208 7.925 7.15625C8.13333 7.26042 8.30833 7.40833 8.45 7.6L9.5 8.975V2H3.5V7ZM3.5 10H9.025L7.6625 8.2125C7.6125 8.14583 7.55208 8.09375 7.48125 8.05625C7.41042 8.01875 7.33333 8 7.25 8H3.5V10ZM9.5 11H3.5C3.225 11 2.98958 10.9021 2.79375 10.7063C2.59792 10.5104 2.5 10.275 2.5 10V2C2.5 1.725 2.59792 1.48958 2.79375 1.29375C2.98958 1.09792 3.225 1 3.5 1H9.5C9.775 1 10.0104 1.09792 10.2063 1.29375C10.4021 1.48958 10.5 1.725 10.5 2V10C10.5 10.275 10.4021 10.5104 10.2063 10.7063C10.0104 10.9021 9.775 11 9.5 11Z" fill="white"/>
</g>
</svg>
