<svg fill="currentColor" height="12" viewBox="0 0 12 12" width="12" xmlns="http://www.w3.org/2000/svg">
	<mask height="12" id="mask0_2354_4071" maskUnits="userSpaceOnUse" style="mask-type: alpha" width="12" x="0" y="0">
		<rect fill="currentColor" height="12" width="12" />
	</mask>
	<g mask="url(#mask0_2354_4071)">
		<path d="M4 6V5H8V6H4ZM4 4V3H8V4H4ZM3 7H6.75C6.99167 7 7.21667 7.05208 7.425 7.15625C7.63333 7.26042 7.80833 7.40833 7.95 7.6L9 8.975V2H3V7ZM3 10H8.525L7.1625 8.2125C7.1125 8.14583 7.05208 8.09375 6.98125 8.05625C6.91042 8.01875 6.83333 8 6.75 8H3V10ZM9 11H3C2.725 11 2.48958 10.9021 2.29375 10.7063C2.09792 10.5104 2 10.275 2 10V2C2 1.725 2.09792 1.48958 2.29375 1.29375C2.48958 1.09792 2.725 1 3 1H9C9.275 1 9.51042 1.09792 9.70625 1.29375C9.90208 1.48958 10 1.725 10 2V10C10 10.275 9.90208 10.5104 9.70625 10.7063C9.51042 10.9021 9.275 11 9 11Z" fill="currentColor" />
	</g>
</svg>