<svg width="851" height="502" viewBox="0 0 851 502" fill="none" xmlns="http://www.w3.org/2000/svg">
<path d="M4.52995e-05 1L177.837 126L239.125 73L297.4 126M4.52995e-05 1L94.4445 168L297.4 126M4.52995e-05 1V501H850L560.638 393M4.52995e-05 1L182.861 21L297.4 126M460.668 137.5L282.329 327M460.668 137.5L606.856 301M460.668 137.5L297.4 126M282.329 327L297.4 126M282.329 327L281.368 330.772M297.4 126L84.3972 363L42.1986 340L4.52995e-05 317L129.61 501L384.811 418L567.671 501L560.638 393M560.638 393L487.293 352L264.244 398L281.368 330.772M560.638 393L606.856 301M281.368 330.772L606.856 301" stroke="white" stroke-width="0.3"/>
</svg>