<svg width="117" height="19" viewBox="0 0 117 19" fill="none" xmlns="http://www.w3.org/2000/svg">
<path d="M10.0205 18.788C8.72449 18.788 7.52049 18.576 6.40849 18.152C5.30449 17.728 4.33649 17.124 3.50449 16.34C2.68049 15.548 2.03649 14.6 1.57249 13.496C1.11649 12.392 0.888488 11.156 0.888488 9.788C0.888488 8.46 1.12049 7.244 1.58449 6.14C2.04849 5.036 2.69649 4.08 3.52849 3.272C4.36049 2.464 5.32849 1.84 6.43249 1.4C7.54449 0.96 8.74849 0.74 10.0445 0.74C10.7245 0.74 11.4845 0.82 12.3245 0.98C13.1725 1.132 14.0245 1.404 14.8805 1.796L14.1845 3.56C13.3205 3.192 12.5525 2.956 11.8805 2.852C11.2085 2.74 10.5965 2.684 10.0445 2.684C9.18849 2.684 8.37249 2.844 7.59649 3.164C6.82849 3.476 6.14849 3.936 5.55649 4.544C4.97249 5.152 4.50849 5.896 4.16449 6.776C3.82849 7.648 3.66049 8.652 3.66049 9.788C3.66049 10.9 3.82849 11.896 4.16449 12.776C4.50049 13.648 4.96049 14.388 5.54449 14.996C6.13649 15.604 6.81649 16.068 7.58449 16.388C8.35249 16.7 9.16449 16.856 10.0205 16.856C10.3725 16.856 10.7605 16.836 11.1845 16.796C11.6085 16.748 12.0845 16.644 12.6125 16.484V10.412H15.0485V17.612C14.4725 17.908 13.8805 18.144 13.2725 18.32C12.6725 18.488 12.0925 18.608 11.5325 18.68C10.9805 18.752 10.4765 18.788 10.0205 18.788ZM17.9409 18.5V9.968C17.9409 9.312 17.9089 8.644 17.8449 7.964C17.7889 7.276 17.6929 6.652 17.5569 6.092H19.4529C19.6769 6.316 19.8489 6.588 19.9689 6.908C20.0889 7.228 20.1809 7.584 20.2449 7.976L20.2569 8.444L20.4609 7.976C20.7809 7.352 21.2209 6.852 21.7809 6.476C22.3489 6.092 22.9409 5.9 23.5569 5.9C23.7569 5.9 23.9609 5.92 24.1689 5.96C24.3769 5.992 24.5969 6.048 24.8289 6.128L24.5169 8.228C24.2529 8.156 24.0209 8.108 23.8209 8.084C23.6289 8.06 23.4529 8.048 23.2929 8.048C22.7809 8.048 22.3009 8.196 21.8529 8.492C21.4049 8.788 21.0409 9.236 20.7609 9.836C20.4809 10.436 20.3409 11.192 20.3409 12.104V18.5H17.9409ZM30.3759 18.764C29.5599 18.764 28.8559 18.608 28.2639 18.296C27.6719 17.984 27.2159 17.568 26.8959 17.048C26.5839 16.52 26.4279 15.936 26.4279 15.296C26.4279 14.528 26.6359 13.872 27.0519 13.328C27.4679 12.776 28.1559 12.324 29.1159 11.972C30.0839 11.62 31.3959 11.356 33.0519 11.18C33.0119 11.42 32.9359 11.68 32.8239 11.96C32.7119 12.24 32.5359 12.492 32.2959 12.716C32.0639 12.932 31.7479 13.072 31.3479 13.136C30.7319 13.232 30.2559 13.38 29.9199 13.58C29.5839 13.78 29.3519 14.012 29.2239 14.276C29.0959 14.54 29.0319 14.816 29.0319 15.104C29.0319 15.568 29.1999 15.972 29.5359 16.316C29.8719 16.66 30.3159 16.832 30.8679 16.832C31.3879 16.832 31.9119 16.692 32.4399 16.412C32.9759 16.124 33.4679 15.692 33.9159 15.116V10.856C33.9159 9.944 33.6839 9.204 33.2199 8.636C32.7639 8.06 32.0239 7.772 30.9999 7.772C30.5759 7.772 30.1479 7.816 29.7159 7.904C29.2839 7.992 28.7799 8.14 28.2039 8.348L27.5799 6.692C28.3479 6.356 29.0519 6.132 29.6919 6.02C30.3319 5.9 30.9239 5.84 31.4679 5.84C33.0439 5.84 34.2639 6.288 35.1279 7.184C35.9999 8.08 36.4359 9.348 36.4359 10.988V14.696C36.4359 15.512 36.4719 16.236 36.5439 16.868C36.6159 17.492 36.7079 18.036 36.8199 18.5H34.9599C34.7439 18.372 34.5679 18.2 34.4319 17.984C34.3039 17.76 34.1919 17.528 34.0959 17.288L34.0599 16.832L33.7839 17.264C33.1439 17.888 32.5599 18.296 32.0319 18.488C31.5119 18.672 30.9599 18.764 30.3759 18.764ZM47.7819 18.5V9.536C47.7819 9.024 47.6699 8.604 47.4459 8.276C47.2219 7.948 46.8739 7.784 46.4019 7.784C46.2179 7.784 46.0539 7.804 45.9099 7.844C45.7659 7.884 45.5859 7.924 45.3699 7.964C44.9299 8.044 44.5259 8.004 44.1579 7.844C43.7979 7.676 43.4659 7.416 43.1619 7.064C44.0019 6.576 44.7099 6.248 45.2859 6.08C45.8699 5.912 46.3939 5.828 46.8579 5.828C47.4739 5.828 48.0499 5.952 48.5859 6.2C49.1219 6.448 49.5499 6.852 49.8699 7.412C50.1979 7.972 50.3619 8.732 50.3619 9.692V18.5H47.7819ZM39.9459 18.5V9.116C39.9459 8.668 39.9179 8.192 39.8619 7.688C39.8059 7.184 39.7099 6.652 39.5739 6.092H41.5899C41.9739 6.524 42.2259 6.952 42.3459 7.376C42.4739 7.8 42.5379 8.252 42.5379 8.732V18.5H39.9459ZM58.9856 18.776C57.6176 18.776 56.5696 18.348 55.8416 17.492C55.1136 16.628 54.7496 15.42 54.7496 13.868V7.94H52.6016V6.644L54.7496 6.092V2.984L57.1496 2.216V14.06C57.1496 14.884 57.3256 15.56 57.6776 16.088C58.0296 16.616 58.4936 16.88 59.0696 16.88C59.3656 16.88 59.6576 16.856 59.9456 16.808C60.2416 16.752 60.5976 16.656 61.0136 16.52L61.5896 18.212C60.9816 18.412 60.4896 18.556 60.1136 18.644C59.7456 18.732 59.3696 18.776 58.9856 18.776ZM60.1256 7.94C59.7256 7.94 59.3856 7.856 59.1056 7.688C58.8336 7.512 58.6056 7.284 58.4216 7.004C58.2456 6.716 58.1056 6.412 58.0016 6.092H61.4096V7.94H60.1256ZM64.7958 18.5V1.052H74.8758V2.984H67.3878V18.5H64.7958ZM68.2998 10.292C68.4118 9.98 68.5558 9.68 68.7318 9.392C68.9158 9.096 69.1478 8.86 69.4278 8.684C69.7078 8.5 70.0518 8.408 70.4598 8.408H74.0598V10.292H68.2998ZM78.5039 18.5V0.308H80.9999V18.5H78.5039ZM89.6812 18.764C88.6012 18.764 87.6092 18.516 86.7052 18.02C85.8012 17.516 85.0772 16.784 84.5332 15.824C83.9972 14.856 83.7292 13.676 83.7292 12.284C83.7292 11.18 83.9052 10.224 84.2572 9.416C84.6092 8.6 85.0732 7.928 85.6492 7.4C86.2332 6.872 86.8772 6.48 87.5812 6.224C88.2852 5.96 88.9852 5.828 89.6812 5.828C90.9212 5.828 91.9852 6.112 92.8732 6.68C93.7692 7.248 94.4532 8.02 94.9252 8.996C95.4052 9.972 95.6452 11.068 95.6452 12.284C95.6452 13.316 95.4812 14.236 95.1532 15.044C94.8332 15.844 94.3932 16.524 93.8332 17.084C93.2812 17.636 92.6452 18.056 91.9252 18.344C91.2132 18.624 90.4652 18.764 89.6812 18.764ZM89.6812 16.832C90.4172 16.832 91.0252 16.628 91.5052 16.22C91.9932 15.804 92.3532 15.252 92.5852 14.564C92.8252 13.868 92.9452 13.108 92.9452 12.284C92.9452 11.3 92.8012 10.472 92.5132 9.8C92.2252 9.128 91.8332 8.62 91.3372 8.276C90.8492 7.932 90.2972 7.76 89.6812 7.76C89.0732 7.76 88.5212 7.932 88.0252 8.276C87.5372 8.62 87.1452 9.128 86.8492 9.8C86.5612 10.472 86.4172 11.3 86.4172 12.284C86.4172 13.62 86.7052 14.712 87.2812 15.56C87.8572 16.408 88.6572 16.832 89.6812 16.832ZM109.517 18.5L105.149 6.092H107.861L110.777 15.524L110.945 16.16L111.113 15.524L114.005 6.092H116.609L112.241 18.5H109.517ZM101.573 18.5L97.1812 6.092H99.8932L102.809 15.524L102.977 16.16L103.145 15.524L105.221 9.98C105.461 10.3 105.661 10.72 105.821 11.24C105.989 11.752 106.081 12.304 106.097 12.896C106.113 13.488 106.017 14.06 105.809 14.612L104.189 18.5H101.573Z" fill="#211968"/>
</svg>
