<svg width="191" height="143" viewBox="0 0 191 143" fill="none" xmlns="http://www.w3.org/2000/svg">
<path d="M100.847 103.509H82.5668L41.8096 83.2812H60.0708L100.847 103.509Z" fill="#DEDDFD"/>
<path d="M134.458 103.509H116.197L75.4209 83.2812H93.701L134.458 103.509Z" fill="#DEDDFD"/>
<path d="M168.089 103.509H149.828L109.052 83.2812H127.332L168.089 103.509Z" fill="#DEDDFD"/>
<path d="M176.161 90.8243V99.8978L142.682 83.2812H160.962L176.161 90.8243Z" fill="#DEDDFD"/>
<path d="M145.592 56.5503L144.125 59.0647L140.942 53.5444L134.968 63.9044H149.827L145.592 56.5503Z" fill="#DEDDFD"/>
<path d="M67.2166 103.508H48.9354L32.8672 95.5306V86.4761L67.2166 103.508Z" fill="#DEDDFD"/>
<path d="M149.941 141.6H134.987V138.216H149.941V141.6Z" fill="#1E13F8"/>
<path d="M147.861 137.12L138.068 132.281L139.146 127.365L146.216 130.882L147.861 137.12Z" fill="#1E13F8"/>
<path d="M144.61 124.681L140.205 122.488L140.942 119.047H143.135L144.61 124.681Z" fill="#1E13F8"/>
<path d="M148.693 56.0777C149.393 56.0777 149.96 55.5107 149.96 54.8111C149.96 54.1116 149.393 53.5444 148.693 53.5444C147.994 53.5444 147.427 54.1116 147.427 54.8111C147.427 55.5107 147.994 56.0777 148.693 56.0777Z" fill="#1E13F8"/>
<path d="M59.6738 40.5957L60.9216 42.7509C61.035 42.1648 61.1673 41.6166 61.2201 41.4464C60.6865 41.1969 60.17 40.9127 59.6738 40.5957Z" fill="#1E13F8"/>
<path d="M65.5347 30.123L63.6063 30.8404C63.3538 30.211 62.9597 29.6481 62.4544 29.1957C61.9492 28.7431 61.3464 28.4133 60.693 28.2315C60.8159 28.1538 60.913 28.0416 60.9722 27.9088C61.0315 27.7761 61.0501 27.6287 61.0259 27.4854C61.0016 27.3421 60.9356 27.2092 60.836 27.1032C60.7364 26.9973 60.6077 26.9233 60.4661 26.8903C59.41 26.6771 58.3165 26.7448 57.2948 27.0865C56.273 27.4282 55.3588 28.0319 54.6434 28.8375C54.5503 28.9424 54.489 29.0718 54.4668 29.2103C54.4445 29.3488 54.4622 29.4908 54.5177 29.6196C54.5732 29.7485 54.6644 29.8588 54.7804 29.9378C54.8964 30.0167 55.0324 30.0609 55.1727 30.0653C54.5968 30.7739 54.2328 31.6307 54.1225 32.5371C54.0121 33.4434 54.1599 34.3625 54.5489 35.1886L55.6493 34.7697C56.0901 36.4104 57.2175 38.5636 57.7816 40.1606C57.912 38.8326 57.7901 37.4921 57.4224 36.2094C57.231 36.1878 57.0458 36.128 56.878 36.0336C56.7101 35.9392 56.5628 35.812 56.4449 35.6597C56.327 35.5074 56.2409 35.3329 56.1915 35.1468C56.1423 34.9606 56.1307 34.7664 56.1578 34.5756L57.4781 34.0781C57.6907 34.2002 57.9204 34.2895 58.1597 34.3428C58.4582 34.4135 58.498 33.9169 58.5169 33.6821L65.8162 30.9021C66.457 30.5777 65.854 29.8981 65.5347 30.123Z" fill="#1E13F8"/>
<path d="M63.7568 83.2807H65.2881L66.1767 77.25L63.7568 83.2807Z" fill="#1E13F8"/>
<path d="M87.4629 140.371C84.7884 138.01 80.6969 135.197 77.0652 134.133C73.8232 135.069 70.3831 135.069 67.1411 134.133C66.4631 136.047 66.0496 138.044 65.9122 140.068C65.8998 140.253 65.9255 140.438 65.9875 140.612C66.0497 140.786 66.147 140.945 66.2733 141.08C66.3997 141.215 66.5525 141.322 66.7222 141.395C66.8918 141.468 67.0747 141.506 67.2595 141.505C73.6275 141.524 79.1119 141.581 87.0142 141.6C87.1569 141.6 87.2962 141.556 87.4131 141.474C87.5301 141.392 87.619 141.276 87.668 141.142C87.717 141.008 87.7235 140.862 87.6869 140.724C87.6502 140.587 87.572 140.463 87.4629 140.371Z" fill="#1E13F8"/>
<path d="M20.4856 78.8382C20.2687 78.7487 20.0266 78.7427 19.805 78.8193C15.1365 80.469 8.51076 81.8362 0.999548 85.7764C0.833353 85.8649 0.697476 86.0012 0.609418 86.1674C0.521361 86.3336 0.485172 86.5226 0.50552 86.7097C0.525858 86.8967 0.601806 87.0738 0.723554 87.2171C0.845302 87.3614 1.00728 87.4649 1.1886 87.5156C6.76444 88.9743 12.4959 89.7554 18.2588 89.8409C20.2249 85.1903 21.6607 82.9973 24.0437 81.5824C23.0981 80.3924 21.8769 79.4502 20.4856 78.8382Z" fill="#1E13F8"/>
<path d="M177.088 76.0405C177.088 76.2912 176.988 76.532 176.811 76.7091C176.634 76.8862 176.393 76.9857 176.143 76.9857C175.892 76.9857 175.651 76.8862 175.474 76.7091C175.297 76.532 175.197 76.2912 175.197 76.0405C175.197 75.7897 175.297 75.5489 175.474 75.3718C175.651 75.1947 175.892 75.0952 176.143 75.0952C176.393 75.0952 176.634 75.1947 176.811 75.3718C176.988 75.5489 177.088 75.7897 177.088 76.0405Z" fill="#1E13F8"/>
<path d="M33.7753 76.0405C33.7753 76.2912 33.6757 76.532 33.4984 76.7091C33.3211 76.8862 33.0808 76.9857 32.83 76.9857C32.5793 76.9857 32.3389 76.8862 32.1616 76.7091C31.9844 76.532 31.8848 76.2912 31.8848 76.0405C31.8848 75.7897 31.9844 75.5489 32.1616 75.3718C32.3389 75.1947 32.5793 75.0952 32.83 75.0952C33.0808 75.0952 33.3211 75.1947 33.4984 75.3718C33.6757 75.5489 33.7753 75.7897 33.7753 76.0405Z" fill="#1E13F8"/>
<path d="M32.8675 84.831V100.275L23.6787 95.2665C24.2881 90.6497 26.5935 86.424 30.1462 83.4131L32.8675 84.831Z" fill="#1E13F8"/>
<path d="M69.3903 103.496L66.9336 125.964C70.9355 128.352 75.3145 128.638 79.788 127.628L83.8148 103.496H69.3903Z" fill="#1E13F8"/>
<path d="M38.6709 103.508L43.0569 105.966C44.6078 106.839 46.3724 107.258 48.1501 107.179C49.9278 107.098 51.6474 106.521 53.1133 105.512C53.9306 104.966 54.6524 104.289 55.2496 103.508H38.6709Z" fill="#1E13F8"/>
<path d="M64.1756 68.7439L62.8333 64.6982H55.3072C53.6624 66.6882 49.8058 71.9617 49.1063 77.3636C48.8795 79.0651 48.3501 81.4849 47.9531 83.2809H75.8937L70.2978 72.903C68.9617 72.9816 67.6367 72.6165 66.5295 71.8642C65.4222 71.112 64.5947 70.0152 64.1756 68.7439Z" fill="#1E13F8"/>
<path fill-rule="evenodd" clip-rule="evenodd" d="M88.3135 59.6707C89.9641 59.1909 91.4995 58.3613 92.8119 57.231C96.1522 54.3117 96.8168 55.1657 93.4337 59.4442C95.7233 59.0778 97.8815 58.418 99.9949 57.4579C101.435 56.8609 101.866 57.6658 100.411 58.6867C99.4815 59.3125 98.4317 59.9191 97.4248 60.4071C98.9233 60.1023 100.401 59.7035 101.849 59.2131C103.307 58.6529 103.604 59.625 102.094 60.5364C100.947 61.1424 99.7173 61.742 98.5213 62.2408C99.6009 62.1133 100.673 61.9303 101.735 61.6926C103.244 61.3175 103.435 62.3503 101.83 63.0349C100.687 63.4763 99.4019 63.8967 98.2188 64.207C98.9631 64.2137 99.7083 64.1822 100.45 64.1124C101.961 63.9134 101.961 64.6955 100.355 65.2846C98.97 65.7916 97.5203 66.1753 96.0965 66.5521C95.8835 66.6085 95.6706 66.6648 95.4587 66.7213C93.4303 67.2622 90.5659 67.8403 88.3135 68.2378V68.9332H120.734V48.479H88.3135V59.6707Z" fill="#1E13F8"/>
<path d="M149.941 141.6H134.987V138.216H149.941V141.6Z" stroke="#2E2D36" stroke-linecap="round" stroke-linejoin="round"/>
<path d="M147.861 137.121L138.068 132.281L139.146 127.366L146.216 130.882L147.861 137.121Z" stroke="#2E2D36" stroke-linecap="round" stroke-linejoin="round"/>
<path d="M144.61 124.681L140.205 122.488L140.942 119.047H143.135L144.61 124.681Z" stroke="#2E2D36" stroke-linecap="round" stroke-linejoin="round"/>
<path d="M146.217 130.882L139.146 127.365L140.205 122.488L144.61 124.681L146.217 130.882Z" stroke="#2E2D36" stroke-linecap="round" stroke-linejoin="round"/>
<path d="M148.145 138.178H136.783L138.069 132.281L147.862 137.12L148.145 138.178Z" stroke="#2E2D36" stroke-linecap="round" stroke-linejoin="round"/>
<path d="M64.6453 31.3442C65.0747 31.5089 65.444 31.8003 65.704 32.1797C65.964 32.5591 66.1025 33.0087 66.101 33.4686C66.0997 33.947 65.9498 34.413 65.6721 34.8025C65.3944 35.192 65.0026 35.4855 64.5508 35.6426" stroke="#2E2D36" stroke-linecap="round" stroke-linejoin="round"/>
<path d="M57.7834 40.1605C57.2153 38.5506 56.0919 36.4104 55.6641 34.7646" stroke="#2E2D36" stroke-linecap="round" stroke-linejoin="round"/>
<path d="M57.5186 34.0731C57.6948 34.1811 57.8854 34.2635 58.0847 34.3178C58.4827 34.4173 58.4469 34.1069 58.4827 33.7139" stroke="#2E2D36" stroke-linecap="round" stroke-linejoin="round"/>
<path d="M68.6523 48.479H81.4132V56.0778" stroke="#2E2D36" stroke-linecap="round" stroke-linejoin="round"/>
<path d="M67.9912 47.4771L74.6458 57.2499L88.3141 54.8868" stroke="#2E2D36" stroke-linecap="round" stroke-linejoin="round"/>
<path d="M164.299 83.2811V38.2703C164.301 34.3355 162.74 30.5609 159.96 27.7763C157.18 24.9917 153.408 23.4252 149.473 23.4209H59.5787C57.6305 23.42 55.7012 23.8029 53.9009 24.5477C52.1007 25.2926 50.4648 26.3849 49.0868 27.7621C47.7087 29.1393 46.6155 30.7744 45.8696 32.5742C45.1236 34.3741 44.7396 36.3032 44.7393 38.2514V83.2811" stroke="#2E2D36" stroke-linecap="round" stroke-linejoin="round"/>
<path d="M49.6924 106.987C52.4115 109.417 55.9327 110.757 59.5797 110.749H68.5019" stroke="#2E2D36" stroke-linecap="round" stroke-linejoin="round"/>
<path d="M162.209 103.508C160.894 105.713 159.028 107.54 156.797 108.809C154.564 110.077 152.041 110.746 149.473 110.749H82.6611" stroke="#2E2D36" stroke-linecap="round" stroke-linejoin="round"/>
<path d="M63.417 41.4463H164.289" stroke="#2E2D36" stroke-linecap="round" stroke-linejoin="round"/>
<path d="M44.7393 41.4463H57.4802" stroke="#2E2D36" stroke-linecap="round" stroke-linejoin="round"/>
<path d="M73.2467 33.4686C73.2463 33.9247 73.1105 34.3704 72.8569 34.7495C72.6032 35.1285 72.2427 35.4238 71.8212 35.5981C71.3996 35.7724 70.936 35.8177 70.4886 35.7284C70.0414 35.6391 69.6306 35.4192 69.3082 35.0964C68.986 34.7737 68.7666 34.3627 68.6778 33.9152C68.5892 33.4678 68.635 33.0041 68.8098 32.5828C68.9846 32.1615 69.2804 31.8014 69.6598 31.5483C70.0392 31.2951 70.485 31.16 70.9412 31.1602C71.2443 31.16 71.5444 31.2195 71.8244 31.3354C72.1045 31.4514 72.3588 31.6214 72.573 31.8359C72.7872 32.0504 72.9569 32.3049 73.0725 32.5851C73.188 32.8653 73.2472 33.1655 73.2467 33.4686Z" stroke="#2E2D36" stroke-linecap="round" stroke-linejoin="round"/>
<path d="M88.3135 59.6887V48.479H120.734V68.9332H88.3135V68.1959" stroke="#2E2D36" stroke-linecap="round" stroke-linejoin="round"/>
<path d="M157.294 68.9332H127.634V48.479H157.294V68.9332Z" stroke="#2E2D36" stroke-linecap="round" stroke-linejoin="round"/>
<path d="M52.2438 68.9332H51.7334V48.479H55.4766" stroke="#2E2D36" stroke-linecap="round" stroke-linejoin="round"/>
<path d="M88.3135 83.2812V75.9839H120.734V83.2812" stroke="#2E2D36" stroke-linecap="round" stroke-linejoin="round"/>
<path d="M127.634 83.2812V75.9839H157.294V83.2812" stroke="#2E2D36" stroke-linecap="round" stroke-linejoin="round"/>
<path d="M71.9609 75.9839H81.4134V83.2812" stroke="#2E2D36" stroke-linecap="round" stroke-linejoin="round"/>
<path d="M120.733 48.479L103.021 59.6509" stroke="#2E2D36" stroke-linecap="round" stroke-linejoin="round"/>
<path d="M88.3135 48.479L120.734 68.9332" stroke="#2E2D36" stroke-linecap="round" stroke-linejoin="round"/>
<path d="M140.943 53.5444L134.969 63.9044H146.917L140.943 53.5444Z" stroke="#2E2D36" stroke-linecap="round" stroke-linejoin="round"/>
<path d="M145.593 56.5503L144.138 59.0647L146.917 63.9043H149.828L145.593 56.5503Z" stroke="#2E2D36" stroke-linecap="round" stroke-linejoin="round"/>
<path d="M148.693 56.0777C149.393 56.0777 149.96 55.5106 149.96 54.8111C149.96 54.1115 149.393 53.5444 148.693 53.5444C147.994 53.5444 147.427 54.1115 147.427 54.8111C147.427 55.5106 147.994 56.0777 148.693 56.0777Z" stroke="#2E2D36" stroke-linecap="round" stroke-linejoin="round"/>
<path d="M92.377 59.5942C95.0104 59.2755 97.5798 58.5551 99.9947 57.4579C101.434 56.8609 101.866 57.6659 100.411 58.6867C99.0624 59.5944 97.6246 60.3612 96.1191 60.9752" stroke="#2E2D36" stroke-linecap="round" stroke-linejoin="round"/>
<path d="M97.4252 60.4069C98.9236 60.1021 100.401 59.7033 101.849 59.2129C103.308 58.6527 103.604 59.6248 102.095 60.5363C100.261 61.5052 98.3595 62.3392 96.4043 63.0317" stroke="#2E2D36" stroke-linecap="round" stroke-linejoin="round"/>
<path d="M98.5217 62.2408C99.6013 62.1132 100.674 61.9302 101.736 61.6925C103.244 61.3174 103.435 62.3502 101.83 63.0348C100.137 63.6895 98.3914 64.2017 96.6123 64.5661" stroke="#2E2D36" stroke-linecap="round" stroke-linejoin="round"/>
<path d="M98.219 64.2067C98.9632 64.2135 99.7085 64.1819 100.45 64.1122C101.961 63.9132 101.961 64.6953 100.355 65.2843C98.7632 65.8674 97.0847 66.2873 95.4588 66.7211C93.3992 67.2703 90.6192 67.8156 88.3516 68.2136" stroke="#2E2D36" stroke-linecap="round" stroke-linejoin="round"/>
<path d="M93.5875 59.4309C96.9706 55.1524 96.1527 54.3117 92.8124 57.231C91.068 58.7333 88.9295 59.7043 86.6504 60.0289" stroke="#2E2D36" stroke-linecap="round" stroke-linejoin="round"/>
<path d="M60.9116 42.715L59.6738 40.5957C60.1797 40.9042 60.7037 41.182 61.2429 41.4275" stroke="#2E2D36" stroke-linecap="round" stroke-linejoin="round"/>
<path d="M63.2668 31.8691C65.3832 35.472 65.3732 42.3166 62.1126 41.6729L61.243 41.4271L60.9027 42.7505C60.7587 43.3316 60.7849 43.942 60.9783 44.5086L56.8192 43.7902C57.2215 42.6033 57.5436 41.3906 57.7833 40.1605C57.9204 38.8337 57.8049 37.4931 57.4431 36.2093C56.3555 35.9427 56.0381 35.1556 56.1804 34.5686" stroke="#2E2D36" stroke-linecap="round" stroke-linejoin="round"/>
<path d="M65.5347 30.1233C65.4292 30.1601 63.6063 30.8407 63.6063 30.8407C63.3538 30.2112 62.9597 29.6484 62.4544 29.196C61.9492 28.7434 61.3464 28.4136 60.693 28.2318C60.8159 28.1541 60.913 28.0419 60.9722 27.9091C61.0315 27.7763 61.0501 27.629 61.0259 27.4856C61.0016 27.3424 60.9356 27.2093 60.836 27.1035C60.7364 26.9976 60.6077 26.9236 60.4661 26.8905C59.41 26.6739 58.3155 26.7399 57.2931 27.0818C56.2707 27.4237 55.3566 28.0294 54.6434 28.8378C54.5503 28.9427 54.489 29.0721 54.4668 29.2106C54.4445 29.3491 54.4622 29.4911 54.5177 29.6199C54.5732 29.7488 54.6644 29.8591 54.7804 29.938C54.8964 30.017 55.0324 30.0612 55.1727 30.0656C54.5968 30.7742 54.2328 31.631 54.1225 32.5374C54.0121 33.4437 54.1599 34.3628 54.5489 35.1888L65.8162 30.8974C65.868 30.8796 65.9156 30.8517 65.9564 30.8153C65.9972 30.7789 66.0304 30.7347 66.0539 30.6854C66.0775 30.6359 66.0911 30.5824 66.0936 30.5278C66.0963 30.4731 66.088 30.4185 66.0694 30.3671C66.0507 30.3157 66.0219 30.2685 65.9847 30.2284C65.9476 30.1882 65.9029 30.1557 65.8531 30.133C65.8033 30.1104 65.7495 30.0978 65.6948 30.0961C65.6401 30.0944 65.5857 30.1037 65.5347 30.1233Z" stroke="#2E2D36" stroke-linecap="round" stroke-linejoin="round"/>
<path d="M66.1767 77.2505L65.2881 83.2812H63.7568L66.1767 77.2505Z" stroke="#2E2D36" stroke-linecap="round" stroke-linejoin="round"/>
<path d="M55.231 103.508C53.8296 105.31 51.8282 106.549 49.5907 107C47.3532 107.45 45.0282 107.084 43.0383 105.966L38.6523 103.508" stroke="#2E2D36" stroke-linecap="round" stroke-linejoin="round"/>
<path d="M32.8675 84.8315L30.1462 83.4136C26.6528 86.1518 24.6299 90.2084 23.6787 95.267L32.8646 100.257" stroke="#2E2D36" stroke-linecap="round" stroke-linejoin="round"/>
<path d="M48.0664 83.2809C48.4823 81.3526 48.8455 79.3108 49.1062 77.3636C50.0256 70.522 55.2881 64.6982 55.2881 64.6982H62.8312" stroke="#2E2D36" stroke-linecap="round" stroke-linejoin="round"/>
<path d="M69.3713 103.527L66.9336 125.966C70.5624 128.235 74.8936 128.67 79.788 127.63L83.5879 105.266C83.6824 104.68 83.7581 104.094 83.7959 103.508" stroke="#2E2D36" stroke-linecap="round" stroke-linejoin="round"/>
<path d="M70.3164 72.9399L75.8934 83.2621" stroke="#2E2D36" stroke-linecap="round" stroke-linejoin="round"/>
<path d="M87.009 141.605C79.1077 141.48 73.6243 141.521 67.2543 141.511C67.0701 141.51 66.8879 141.472 66.7191 141.398C66.5502 141.325 66.3982 141.217 66.2725 141.083C66.1467 140.947 66.0498 140.789 65.9878 140.615C65.9258 140.442 65.9001 140.258 65.912 140.074C66.0535 138.049 66.4668 136.053 67.1408 134.139C70.3827 135.075 73.8232 135.075 77.065 134.139C80.6947 135.197 84.7882 138.019 87.4627 140.376C87.5722 140.469 87.6505 140.592 87.687 140.731C87.7235 140.869 87.7165 141.015 87.667 141.149C87.6173 141.284 87.5276 141.4 87.4099 141.482C87.2922 141.563 87.1522 141.606 87.009 141.605Z" stroke="#2E2D36" stroke-linecap="round" stroke-linejoin="round"/>
<path d="M67.1221 134.152L68.3121 126.723" stroke="#2E2D36" stroke-linecap="round" stroke-linejoin="round"/>
<path d="M77.8778 127.97L76.9893 134.152" stroke="#2E2D36" stroke-linecap="round" stroke-linejoin="round"/>
<path d="M20.4856 78.8382C20.2687 78.7487 20.0266 78.7427 19.805 78.8193C15.1365 80.469 8.51076 81.8362 0.999548 85.7764C0.833353 85.8649 0.697476 86.0012 0.609418 86.1674C0.521361 86.3336 0.485172 86.5226 0.50552 86.7097C0.525858 86.8967 0.601806 87.0738 0.723554 87.2171C0.845302 87.3614 1.00728 87.4649 1.1886 87.5156C6.76444 88.9743 12.4959 89.7554 18.2588 89.8409C20.2249 85.1903 21.6607 82.9973 24.0437 81.5824C23.0981 80.3924 21.8769 79.4502 20.4856 78.8382Z" stroke="#2E2D36" stroke-linecap="round" stroke-linejoin="round"/>
<path d="M24.0391 81.5039L29.0489 84.3018" stroke="#2E2D36" stroke-linecap="round" stroke-linejoin="round"/>
<path d="M18.2549 89.8408L24.1712 93.0736" stroke="#2E2D36" stroke-linecap="round" stroke-linejoin="round"/>
<path d="M32.8672 76.2485V141.619" stroke="#2E2D36" stroke-linecap="round" stroke-linejoin="round"/>
<path d="M176.161 141.619V76.2476" stroke="#2E2D36" stroke-linecap="round" stroke-linejoin="round"/>
<path d="M18.0654 141.6H189.545" stroke="#2E2D36" stroke-linecap="round" stroke-linejoin="round"/>
<path d="M176.161 83.2812H32.8672" stroke="#2E2D36" stroke-linecap="round" stroke-linejoin="round"/>
<path d="M176.161 103.508H32.8672" stroke="#2E2D36" stroke-linecap="round" stroke-linejoin="round"/>
<path d="M30.8823 61.0396H22.3193" stroke="#2E2D36" stroke-linecap="round" stroke-linejoin="round"/>
<path d="M26.6006 65.3221V56.7393" stroke="#2E2D36" stroke-linecap="round" stroke-linejoin="round"/>
<path d="M183.25 43.5634C183.293 44.0552 183.189 44.5485 182.952 44.9812C182.715 45.4139 182.354 45.7665 181.916 45.9944C181.478 46.2223 180.982 46.3152 180.492 46.2615C180.001 46.2077 179.538 46.0096 179.16 45.6924C178.781 45.3751 178.506 44.9529 178.369 44.479C178.23 44.0052 178.235 43.5011 178.384 43.0303C178.533 42.5597 178.817 42.1436 179.202 41.8346C179.587 41.5257 180.055 41.3378 180.547 41.2948C180.873 41.2652 181.202 41.3005 181.516 41.3986C181.828 41.4968 182.119 41.6558 182.37 41.8668C182.621 42.0776 182.828 42.336 182.979 42.6272C183.131 42.9184 183.222 43.2366 183.25 43.5634Z" stroke="#2E2D36" stroke-linecap="round" stroke-linejoin="round"/>
<path d="M120.242 0.5L118.125 5.2352H121.982L119.864 9.9515" stroke="#2E2D36" stroke-linecap="round" stroke-linejoin="round"/>
<path d="M54.5127 75.0951C57.5184 74.3121 60.1461 72.4823 61.9235 69.9351" stroke="#2E2D36" stroke-linecap="round" stroke-linejoin="round"/>
<path d="M67.6709 119.974C71.8762 121.507 76.3813 122.038 80.8278 121.524" stroke="#2E2D36" stroke-linecap="round" stroke-linejoin="round"/>
<path d="M60.1276 56.5503L64.1753 68.744C64.6392 70.1525 65.6033 71.342 66.8853 72.0872C68.1671 72.8325 69.6779 73.0822 71.1313 72.7887L88.1259 69.3908C88.8463 66.1003 87.6543 61.6367 86.2553 59.2915L72.793 61.6169C70.9403 55.9643 70.2647 52.2191 69.2389 49.6878C67.9593 46.5287 66.1772 45.265 60.9804 44.5138L56.8213 43.7954C56.6322 44.3815 56.4402 45.0043 56.2352 45.667C54.335 51.8339 54.01 58.3785 55.29 64.7033" stroke="#2E2D36" stroke-linecap="round" stroke-linejoin="round"/>
<path d="M100.847 103.509H82.5668L41.8096 83.2812H60.0708L100.847 103.509Z" stroke="#2E2D36" stroke-linecap="round" stroke-linejoin="round"/>
<path d="M134.458 103.509H116.197L75.4209 83.2812H93.701L134.458 103.509Z" stroke="#2E2D36" stroke-linecap="round" stroke-linejoin="round"/>
<path d="M168.089 103.509H149.828L109.052 83.2812H127.332L168.089 103.509Z" stroke="#2E2D36" stroke-linecap="round" stroke-linejoin="round"/>
<path d="M176.161 90.8243V99.8978L142.682 83.2812H160.962L176.161 90.8243Z" stroke="#2E2D36" stroke-linecap="round" stroke-linejoin="round"/>
<path d="M67.2166 103.508H48.9354L32.8672 95.5306V86.4761L67.2166 103.508Z" stroke="#2E2D36" stroke-linecap="round" stroke-linejoin="round"/>
</svg>
