<svg width="32" height="32" viewBox="0 0 32 32" fill="none" xmlns="http://www.w3.org/2000/svg">
<rect y="0.437134" width="31.1871" height="31.5629" rx="15.5936" fill="#1E13F8"/>
<circle cx="8.05638" cy="23.9444" r="1.91576" fill="white"/>
<ellipse cx="22.1883" cy="22.5624" rx="1.35045" ry="1.35045" fill="white"/>
<circle cx="22.1882" cy="9.43488" r="2.10419" fill="white"/>
<circle cx="14.1804" cy="17.5375" r="2.10419" fill="white"/>
<path d="M25.0461 9.45054C25.0461 11.0376 23.7595 12.3242 22.1725 12.3242C20.5854 12.3242 19.2988 11.0376 19.2988 9.45054C19.2988 7.86347 20.5854 6.5769 22.1725 6.5769C23.7595 6.5769 25.0461 7.86347 25.0461 9.45054ZM19.5862 9.45054C19.5862 10.8789 20.7441 12.0368 22.1725 12.0368C23.6008 12.0368 24.7587 10.8789 24.7587 9.45054C24.7587 8.02218 23.6008 6.86427 22.1725 6.86427C20.7441 6.86427 19.5862 8.02218 19.5862 9.45054Z" fill="white"/>
<path d="M19.5198 17.5376C19.5198 20.4862 17.1294 22.8766 14.1808 22.8766C11.2321 22.8766 8.8418 20.4862 8.8418 17.5376C8.8418 14.589 11.2321 12.1986 14.1808 12.1986C17.1294 12.1986 19.5198 14.589 19.5198 17.5376ZM9.3757 17.5376C9.3757 20.1914 11.527 22.3427 14.1808 22.3427C16.8346 22.3427 18.9859 20.1914 18.9859 17.5376C18.9859 14.8838 16.8346 12.7325 14.1808 12.7325C11.527 12.7325 9.3757 14.8838 9.3757 17.5376Z" fill="white"/>
<path d="M14.1016 17.6317L20.1629 11.5076" stroke="white" stroke-width="0.594306" stroke-miterlimit="1" stroke-linecap="square"/>
<path d="M7.77344 24.1955L10.6314 21.2119" stroke="white" stroke-width="0.594306"/>
<path d="M14.3358 17.379C14.1962 17.2928 14.0131 17.3361 13.9269 17.4757C13.8406 17.6153 13.8839 17.7984 14.0235 17.8847L14.3358 17.379ZM14.1797 17.6318L14.0235 17.8847L22.032 22.8311L22.1882 22.5783L22.3443 22.3254L14.3358 17.379L14.1797 17.6318Z" fill="white"/>
</svg>
