<svg width="56" height="57" viewBox="0 0 56 57" fill="none" xmlns="http://www.w3.org/2000/svg">
<circle cx="5.66287" cy="51.3372" r="5.66287" fill="#211968"/>
<circle cx="47.4381" cy="47.2526" r="3.99186" fill="#211968"/>
<circle cx="47.4381" cy="8.4479" r="6.21987" fill="#211968"/>
<circle cx="23.7654" cy="32.3991" r="6.21987" fill="#211968"/>
<path d="M55.886 8.4943C55.886 13.1856 52.083 16.9886 47.3917 16.9886C42.7004 16.9886 38.8974 13.1856 38.8974 8.4943C38.8974 3.80303 42.7004 0 47.3917 0C52.083 0 55.886 3.80303 55.886 8.4943ZM39.7468 8.4943C39.7468 12.7164 43.1696 16.1392 47.3917 16.1392C51.6138 16.1392 55.0366 12.7164 55.0366 8.4943C55.0366 4.27215 51.6138 0.84943 47.3917 0.84943C43.1696 0.84943 39.7468 4.27215 39.7468 8.4943Z" fill="#211968"/>
<path d="M39.5472 32.3989C39.5472 41.115 32.4815 48.1807 23.7655 48.1807C15.0495 48.1807 7.98372 41.115 7.98372 32.3989C7.98372 23.6829 15.0495 16.6172 23.7655 16.6172C32.4815 16.6172 39.5472 23.6829 39.5472 32.3989ZM9.5619 32.3989C9.5619 40.2434 15.9211 46.6025 23.7655 46.6025C31.6099 46.6025 37.9691 40.2434 37.9691 32.3989C37.9691 24.5545 31.6099 18.1954 23.7655 18.1954C15.9211 18.1954 9.5619 24.5545 9.5619 32.3989Z" fill="#211968"/>
<path d="M23.5334 32.6773L41.4503 14.5747" stroke="#211968" stroke-width="1.11401" stroke-miterlimit="1" stroke-linecap="square"/>
<path d="M4.82739 52.08L13.2753 43.2607" stroke="#211968" stroke-width="1.11401"/>
<path d="M24.0582 32.2038C23.7965 32.0422 23.4532 32.1233 23.2916 32.385C23.1299 32.6468 23.2111 32.99 23.4728 33.1516L24.0582 32.2038ZM23.7655 32.6777L23.4728 33.1516L47.1454 47.773L47.4381 47.2991L47.7308 46.8252L24.0582 32.2038L23.7655 32.6777Z" fill="#211968"/>
</svg>