<svg width="229" height="57" viewBox="0 0 229 57" fill="none" xmlns="http://www.w3.org/2000/svg">
<circle cx="5.66287" cy="51.3372" r="5.66287" fill="#211968"/>
<circle cx="47.4381" cy="47.2526" r="3.99186" fill="#211968"/>
<circle cx="47.4386" cy="8.4479" r="6.21987" fill="#211968"/>
<circle cx="23.7658" cy="32.3991" r="6.21987" fill="#211968"/>
<path d="M55.8861 8.4943C55.8861 13.1856 52.083 16.9886 47.3918 16.9886C42.7005 16.9886 38.8975 13.1856 38.8975 8.4943C38.8975 3.80303 42.7005 0 47.3918 0C52.083 0 55.8861 3.80303 55.8861 8.4943ZM39.7469 8.4943C39.7469 12.7164 43.1696 16.1392 47.3918 16.1392C51.6139 16.1392 55.0366 12.7164 55.0366 8.4943C55.0366 4.27215 51.6139 0.84943 47.3918 0.84943C43.1696 0.84943 39.7469 4.27215 39.7469 8.4943Z" fill="#211968"/>
<path d="M39.5469 32.3989C39.5469 41.115 32.4812 48.1807 23.7652 48.1807C15.0491 48.1807 7.9834 41.115 7.9834 32.3989C7.9834 23.6829 15.0491 16.6172 23.7652 16.6172C32.4812 16.6172 39.5469 23.6829 39.5469 32.3989ZM9.56157 32.3989C9.56157 40.2434 15.9207 46.6025 23.7652 46.6025C31.6096 46.6025 37.9687 40.2434 37.9687 32.3989C37.9687 24.5545 31.6096 18.1954 23.7652 18.1954C15.9207 18.1954 9.56157 24.5545 9.56157 32.3989Z" fill="#211968"/>
<path d="M23.5332 32.6773L41.4501 14.5747" stroke="#211968" stroke-width="1.11401" stroke-miterlimit="1" stroke-linecap="square"/>
<path d="M4.82715 52.08L13.275 43.2607" stroke="#211968" stroke-width="1.11401"/>
<path d="M24.0583 32.2038C23.7966 32.0422 23.4534 32.1233 23.2917 32.385C23.1301 32.6468 23.2112 32.99 23.4729 33.1516L23.7656 32.6777L24.0583 32.2038ZM23.7656 32.6777L23.4729 33.1516L47.1456 47.773L47.4383 47.2991L47.731 46.8252L24.0583 32.2038L23.7656 32.6777Z" fill="#211968"/>
<path d="M85.7311 30.884C84.0031 30.884 82.3978 30.6013 80.9151 30.036C79.4431 29.4707 78.1524 28.6653 77.0431 27.62C75.9444 26.564 75.0858 25.3 74.4671 23.828C73.8591 22.356 73.5551 20.708 73.5551 18.884C73.5551 17.1133 73.8644 15.492 74.4831 14.02C75.1018 12.548 75.9658 11.2733 77.0751 10.196C78.1844 9.11867 79.4751 8.28666 80.9471 7.7C82.4298 7.11333 84.0351 6.82 85.7631 6.82C86.6698 6.82 87.6831 6.92667 88.8031 7.14C89.9338 7.34267 91.0698 7.70533 92.2111 8.228L91.2831 10.58C90.1311 10.0893 89.1071 9.77467 88.2111 9.636C87.3151 9.48667 86.4991 9.412 85.7631 9.412C84.6218 9.412 83.5338 9.62533 82.4991 10.052C81.4751 10.468 80.5684 11.0813 79.7791 11.892C79.0004 12.7027 78.3818 13.6947 77.9231 14.868C77.4751 16.0307 77.2511 17.3693 77.2511 18.884C77.2511 20.3667 77.4751 21.6947 77.9231 22.868C78.3711 24.0307 78.9844 25.0173 79.7631 25.828C80.5524 26.6387 81.4591 27.2573 82.4831 27.684C83.5071 28.1 84.5898 28.308 85.7311 28.308C86.2004 28.308 86.7178 28.2813 87.2831 28.228C87.8484 28.164 88.4831 28.0253 89.1871 27.812V19.716H92.4351V29.316C91.6671 29.7107 90.8778 30.0253 90.0671 30.26C89.2671 30.484 88.4938 30.644 87.7471 30.74C87.0111 30.836 86.3391 30.884 85.7311 30.884ZM96.2916 30.5V19.124C96.2916 18.2493 96.2489 17.3587 96.1636 16.452C96.0889 15.5347 95.9609 14.7027 95.7796 13.956H98.3076C98.6063 14.2547 98.8356 14.6173 98.9956 15.044C99.1556 15.4707 99.2783 15.9453 99.3636 16.468L99.3796 17.092L99.6516 16.468C100.078 15.636 100.665 14.9693 101.412 14.468C102.169 13.956 102.958 13.7 103.78 13.7C104.046 13.7 104.318 13.7267 104.596 13.78C104.873 13.8227 105.166 13.8973 105.476 14.004L105.06 16.804C104.708 16.708 104.398 16.644 104.132 16.612C103.876 16.58 103.641 16.564 103.428 16.564C102.745 16.564 102.105 16.7613 101.508 17.156C100.91 17.5507 100.425 18.148 100.052 18.948C99.6783 19.748 99.4916 20.756 99.4916 21.972V30.5H96.2916ZM112.872 30.852C111.784 30.852 110.845 30.644 110.056 30.228C109.266 29.812 108.658 29.2573 108.232 28.564C107.816 27.86 107.608 27.0813 107.608 26.228C107.608 25.204 107.885 24.3293 108.44 23.604C108.994 22.868 109.912 22.2653 111.192 21.796C112.482 21.3267 114.232 20.9747 116.44 20.74C116.386 21.06 116.285 21.4067 116.136 21.78C115.986 22.1533 115.752 22.4893 115.432 22.788C115.122 23.076 114.701 23.2627 114.168 23.348C113.346 23.476 112.712 23.6733 112.264 23.94C111.816 24.2067 111.506 24.516 111.336 24.868C111.165 25.22 111.08 25.588 111.08 25.972C111.08 26.5907 111.304 27.1293 111.752 27.588C112.2 28.0467 112.792 28.276 113.528 28.276C114.221 28.276 114.92 28.0893 115.624 27.716C116.338 27.332 116.994 26.756 117.592 25.988V20.308C117.592 19.092 117.282 18.1053 116.664 17.348C116.056 16.58 115.069 16.196 113.704 16.196C113.138 16.196 112.568 16.2547 111.992 16.372C111.416 16.4893 110.744 16.6867 109.976 16.964L109.144 14.756C110.168 14.308 111.106 14.0093 111.96 13.86C112.813 13.7 113.602 13.62 114.328 13.62C116.429 13.62 118.056 14.2173 119.208 15.412C120.37 16.6067 120.952 18.2973 120.952 20.484V25.428C120.952 26.516 121 27.4813 121.096 28.324C121.192 29.156 121.314 29.8813 121.464 30.5H118.984C118.696 30.3293 118.461 30.1 118.28 29.812C118.109 29.5133 117.96 29.204 117.832 28.884L117.784 28.276L117.416 28.852C116.562 29.684 115.784 30.228 115.08 30.484C114.386 30.7293 113.65 30.852 112.872 30.852ZM136.08 30.5V18.548C136.08 17.8653 135.93 17.3053 135.632 16.868C135.333 16.4307 134.869 16.212 134.24 16.212C133.994 16.212 133.776 16.2387 133.584 16.292C133.392 16.3453 133.152 16.3987 132.864 16.452C132.277 16.5587 131.738 16.5053 131.248 16.292C130.768 16.068 130.325 15.7213 129.92 15.252C131.04 14.6013 131.984 14.164 132.752 13.94C133.53 13.716 134.229 13.604 134.848 13.604C135.669 13.604 136.437 13.7693 137.152 14.1C137.866 14.4307 138.437 14.9693 138.864 15.716C139.301 16.4627 139.52 17.476 139.52 18.756V30.5H136.08ZM125.632 30.5V17.988C125.632 17.3907 125.594 16.756 125.52 16.084C125.445 15.412 125.317 14.7027 125.136 13.956H127.824C128.336 14.532 128.672 15.1027 128.832 15.668C129.002 16.2333 129.088 16.836 129.088 17.476V30.5H125.632ZM151.018 30.868C149.194 30.868 147.797 30.2973 146.826 29.156C145.855 28.004 145.37 26.3933 145.37 24.324V16.42H142.506V14.692L145.37 13.956V9.812L148.57 8.788V24.58C148.57 25.6787 148.805 26.58 149.274 27.284C149.743 27.988 150.362 28.34 151.13 28.34C151.525 28.34 151.914 28.308 152.298 28.244C152.693 28.1693 153.167 28.0413 153.722 27.86L154.49 30.116C153.679 30.3827 153.023 30.5747 152.522 30.692C152.031 30.8093 151.53 30.868 151.018 30.868ZM152.538 16.42C152.005 16.42 151.551 16.308 151.178 16.084C150.815 15.8493 150.511 15.5453 150.266 15.172C150.031 14.788 149.845 14.3827 149.706 13.956H154.25V16.42H152.538ZM158.765 30.5V7.236H172.205V9.812H162.221V30.5H158.765ZM163.437 19.556C163.586 19.14 163.778 18.74 164.013 18.356C164.258 17.9613 164.568 17.6467 164.941 17.412C165.314 17.1667 165.773 17.044 166.317 17.044H171.117V19.556H163.437ZM177.042 30.5V6.244H180.37V30.5H177.042ZM191.945 30.852C190.505 30.852 189.183 30.5213 187.977 29.86C186.772 29.188 185.807 28.212 185.081 26.932C184.367 25.6413 184.009 24.068 184.009 22.212C184.009 20.74 184.244 19.4653 184.713 18.388C185.183 17.3 185.801 16.404 186.569 15.7C187.348 14.996 188.207 14.4733 189.145 14.132C190.084 13.78 191.017 13.604 191.945 13.604C193.599 13.604 195.017 13.9827 196.201 14.74C197.396 15.4973 198.308 16.5267 198.937 17.828C199.577 19.1293 199.897 20.5907 199.897 22.212C199.897 23.588 199.679 24.8147 199.241 25.892C198.815 26.9587 198.228 27.8653 197.481 28.612C196.745 29.348 195.897 29.908 194.937 30.292C193.988 30.6653 192.991 30.852 191.945 30.852ZM191.945 28.276C192.927 28.276 193.737 28.004 194.377 27.46C195.028 26.9053 195.508 26.1693 195.817 25.252C196.137 24.324 196.297 23.3107 196.297 22.212C196.297 20.9 196.105 19.796 195.721 18.9C195.337 18.004 194.815 17.3267 194.153 16.868C193.503 16.4093 192.767 16.18 191.945 16.18C191.135 16.18 190.399 16.4093 189.737 16.868C189.087 17.3267 188.564 18.004 188.169 18.9C187.785 19.796 187.593 20.9 187.593 22.212C187.593 23.9933 187.977 25.4493 188.745 26.58C189.513 27.7107 190.58 28.276 191.945 28.276ZM218.393 30.5L212.569 13.956H216.185L220.073 26.532L220.297 27.38L220.521 26.532L224.377 13.956H227.849L222.025 30.5H218.393ZM207.801 30.5L201.945 13.956H205.561L209.449 26.532L209.673 27.38L209.897 26.532L212.665 19.14C212.985 19.5667 213.252 20.1267 213.465 20.82C213.689 21.5027 213.812 22.2387 213.833 23.028C213.855 23.8173 213.727 24.58 213.449 25.316L211.289 30.5H207.801Z" fill="#211968"/>
<path d="M79.3158 39.332C80.2225 39.332 80.9425 39.4173 81.4758 39.588C82.0092 39.748 82.3932 40.036 82.6278 40.452C82.8732 40.868 82.9958 41.4547 82.9958 42.212C82.9958 43.0013 82.8465 43.604 82.5478 44.02C82.2598 44.436 81.7852 44.676 81.1238 44.74V44.804C81.9452 44.8787 82.5158 45.1667 82.8358 45.668C83.1665 46.1693 83.3318 46.8627 83.3318 47.748C83.3318 48.5053 83.2145 49.092 82.9798 49.508C82.7452 49.924 82.3665 50.2173 81.8438 50.388C81.3318 50.548 80.6545 50.628 79.8118 50.628C79.1825 50.628 78.6385 50.6227 78.1798 50.612C77.7318 50.612 77.3158 50.6013 76.9318 50.58C76.5478 50.5587 76.1478 50.532 75.7318 50.5L75.9558 49.38C76.1905 49.3907 76.6332 49.4013 77.2838 49.412C77.9452 49.4227 78.7132 49.428 79.5878 49.428C80.1745 49.428 80.6332 49.38 80.9638 49.284C81.3052 49.1773 81.5452 48.9853 81.6838 48.708C81.8332 48.4307 81.9078 48.0307 81.9078 47.508C81.9078 46.932 81.8332 46.4893 81.6838 46.18C81.5345 45.8707 81.2838 45.652 80.9318 45.524C80.5798 45.396 80.0998 45.3267 79.4918 45.316H75.9398V44.244H79.4758C80.0092 44.2333 80.4305 44.18 80.7398 44.084C81.0598 43.9773 81.2892 43.7907 81.4278 43.524C81.5665 43.2467 81.6358 42.8627 81.6358 42.372C81.6358 41.8707 81.5612 41.4867 81.4118 41.22C81.2625 40.9533 81.0118 40.772 80.6598 40.676C80.3185 40.58 79.8492 40.532 79.2518 40.532C78.7292 40.532 78.2598 40.532 77.8438 40.532C77.4278 40.532 77.0598 40.5373 76.7398 40.548C76.4305 40.548 76.1692 40.5587 75.9558 40.58L75.7318 39.46C76.1052 39.4173 76.4572 39.3907 76.7878 39.38C77.1292 39.3587 77.4972 39.348 77.8918 39.348C78.2972 39.3373 78.7718 39.332 79.3158 39.332ZM77.1078 39.46V50.5H75.7318V39.46H77.1078ZM92.4217 42.708L89.3017 50.932C89.1737 51.2733 89.0137 51.6093 88.8217 51.94C88.6297 52.2707 88.3951 52.5693 88.1177 52.836C87.8511 53.1133 87.5311 53.3373 87.1577 53.508C86.7951 53.6787 86.3737 53.7747 85.8937 53.796L85.7657 52.9C86.3951 52.6973 86.8804 52.4253 87.2217 52.084C87.5631 51.7427 87.8351 51.3267 88.0377 50.836L88.4217 49.908C88.5071 49.6947 88.5924 49.46 88.6777 49.204C88.7631 48.948 88.8431 48.7187 88.9177 48.516L90.9497 42.708H92.4217ZM86.0057 42.708L88.0697 48.516C88.1231 48.676 88.1764 48.836 88.2297 48.996C88.2831 49.1453 88.3257 49.3 88.3577 49.46H88.7257L88.2777 50.5H87.8617C87.7551 50.5 87.6537 50.468 87.5577 50.404C87.4724 50.34 87.4137 50.2547 87.3817 50.148L84.5497 42.708H86.0057ZM105.015 39.46L101.671 50.1C101.628 50.2067 101.559 50.3027 101.463 50.388C101.367 50.4627 101.255 50.5 101.127 50.5H99.703C99.5643 50.5 99.447 50.4627 99.351 50.388C99.255 50.3027 99.191 50.2067 99.159 50.1L95.815 39.46H97.271L99.879 48.212C99.9323 48.4147 99.9856 48.6173 100.039 48.82C100.103 49.012 100.156 49.2093 100.199 49.412H100.631C100.684 49.2093 100.738 49.0067 100.791 48.804C100.844 48.6013 100.903 48.3987 100.967 48.196L103.559 39.46H105.015ZM108.774 42.516C109.115 42.516 109.478 42.5267 109.862 42.548C110.246 42.5693 110.624 42.596 110.998 42.628C111.382 42.66 111.734 42.7027 112.054 42.756L111.942 43.748C111.451 43.7267 110.955 43.7107 110.454 43.7C109.963 43.6787 109.472 43.668 108.982 43.668C108.502 43.6573 108.123 43.668 107.846 43.7C107.568 43.732 107.366 43.8173 107.238 43.956C107.12 44.0947 107.062 44.3293 107.062 44.66C107.062 45.0653 107.158 45.332 107.35 45.46C107.542 45.588 107.824 45.6947 108.198 45.78L110.47 46.292C111.088 46.4413 111.542 46.6707 111.83 46.98C112.128 47.2893 112.278 47.7747 112.278 48.436C112.278 49.076 112.155 49.556 111.91 49.876C111.675 50.196 111.312 50.4093 110.822 50.516C110.331 50.6227 109.707 50.676 108.95 50.676C108.672 50.676 108.256 50.6653 107.702 50.644C107.158 50.6227 106.555 50.5587 105.894 50.452L105.99 49.46C106.246 49.4707 106.518 49.4867 106.806 49.508C107.094 49.5187 107.392 49.524 107.702 49.524C108.022 49.524 108.347 49.524 108.678 49.524C109.264 49.524 109.723 49.4973 110.054 49.444C110.384 49.3907 110.619 49.2893 110.758 49.14C110.896 48.98 110.966 48.7453 110.966 48.436C110.966 48.052 110.854 47.796 110.63 47.668C110.406 47.54 110.107 47.4333 109.734 47.348L107.494 46.836C107.067 46.7293 106.726 46.5907 106.47 46.42C106.214 46.2387 106.027 46.0093 105.91 45.732C105.792 45.444 105.734 45.0867 105.734 44.66C105.734 44.052 105.84 43.5933 106.054 43.284C106.267 42.9747 106.598 42.7667 107.046 42.66C107.494 42.5533 108.07 42.5053 108.774 42.516ZM118.771 42.516C119.72 42.516 120.403 42.868 120.819 43.572C121.235 44.2653 121.443 45.2893 121.443 46.644C121.443 47.6467 121.336 48.4467 121.123 49.044C120.909 49.6307 120.584 50.052 120.147 50.308C119.72 50.564 119.171 50.692 118.499 50.692C117.987 50.692 117.48 50.6227 116.979 50.484C116.488 50.3453 116.008 50.132 115.539 49.844L115.619 49.028C116.12 49.1667 116.563 49.284 116.947 49.38C117.331 49.4653 117.736 49.508 118.163 49.508C118.621 49.508 118.984 49.428 119.251 49.268C119.528 49.108 119.731 48.82 119.859 48.404C119.987 47.988 120.051 47.4013 120.051 46.644C120.051 45.908 119.992 45.3267 119.875 44.9C119.757 44.4733 119.571 44.1693 119.315 43.988C119.069 43.796 118.739 43.7 118.323 43.7C117.896 43.7 117.475 43.8013 117.059 44.004C116.643 44.2067 116.157 44.516 115.603 44.932L115.475 44.02C115.763 43.7107 116.088 43.444 116.451 43.22C116.813 42.996 117.192 42.8253 117.587 42.708C117.992 42.58 118.387 42.516 118.771 42.516ZM115.427 42.708L115.571 44.324L115.667 44.532V49.524L115.603 49.716C115.635 50.0147 115.651 50.3027 115.651 50.58C115.661 50.8573 115.667 51.1507 115.667 51.46V53.716H114.307V42.708H115.427ZM128.324 42.516C129.732 42.516 130.436 43.2307 130.436 44.66V50.5H129.06V45.044C129.06 44.5213 128.975 44.164 128.804 43.972C128.644 43.7693 128.361 43.668 127.956 43.668C127.476 43.668 126.996 43.78 126.516 44.004C126.036 44.228 125.465 44.5533 124.804 44.98L124.74 44.004C125.348 43.5453 125.951 43.1827 126.548 42.916C127.145 42.6493 127.737 42.516 128.324 42.516ZM124.948 39.3L124.964 42.388C124.964 42.74 124.948 43.0707 124.916 43.38C124.895 43.6893 124.857 43.9613 124.804 44.196L124.948 44.436V50.5H123.588V39.3H124.948ZM136.085 42.516C137.258 42.516 138.106 42.7293 138.629 43.156C139.162 43.5827 139.429 44.2173 139.429 45.06C139.439 45.7533 139.295 46.2973 138.997 46.692C138.698 47.076 138.223 47.268 137.573 47.268H133.029V46.212H137.221C137.573 46.212 137.802 46.0947 137.909 45.86C138.015 45.6147 138.069 45.348 138.069 45.06C138.058 44.5587 137.909 44.2013 137.621 43.988C137.333 43.7747 136.842 43.668 136.149 43.668C135.583 43.668 135.135 43.7533 134.805 43.924C134.485 44.084 134.255 44.372 134.117 44.788C133.989 45.1933 133.925 45.764 133.925 46.5C133.925 47.332 134.005 47.9667 134.165 48.404C134.335 48.8413 134.602 49.14 134.965 49.3C135.327 49.46 135.807 49.54 136.405 49.54C136.821 49.54 137.274 49.524 137.765 49.492C138.266 49.4493 138.714 49.4013 139.109 49.348L139.253 50.26C139.007 50.356 138.703 50.436 138.341 50.5C137.989 50.564 137.621 50.612 137.237 50.644C136.863 50.676 136.527 50.692 136.229 50.692C135.333 50.692 134.613 50.5587 134.069 50.292C133.525 50.0147 133.125 49.5773 132.869 48.98C132.623 48.372 132.501 47.572 132.501 46.58C132.501 45.556 132.623 44.7507 132.869 44.164C133.125 43.5667 133.514 43.1453 134.037 42.9C134.57 42.644 135.253 42.516 136.085 42.516ZM142.534 42.708L142.71 44.196L142.838 44.436V50.5H141.478V42.708H142.534ZM146.358 42.516L146.198 43.796H145.75C145.292 43.796 144.833 43.892 144.374 44.084C143.916 44.2653 143.356 44.5267 142.694 44.868L142.582 44.02C143.158 43.5507 143.734 43.1827 144.31 42.916C144.897 42.6493 145.462 42.516 146.006 42.516H146.358ZM151.58 42.516C152.156 42.516 152.642 42.596 153.036 42.756C153.442 42.9053 153.746 43.1613 153.948 43.524C154.151 43.8867 154.252 44.3827 154.252 45.012V50.5H153.18L152.972 48.804L152.876 48.628V45.012C152.876 44.532 152.764 44.1907 152.54 43.988C152.327 43.7747 151.911 43.668 151.292 43.668C150.887 43.668 150.375 43.6893 149.756 43.732C149.148 43.7747 148.546 43.8227 147.948 43.876L147.82 42.868C148.183 42.804 148.578 42.7453 149.004 42.692C149.442 42.6387 149.884 42.596 150.332 42.564C150.78 42.532 151.196 42.516 151.58 42.516ZM153.612 45.7L153.596 46.724L149.868 46.74C149.495 46.7507 149.234 46.852 149.084 47.044C148.935 47.2253 148.86 47.4813 148.86 47.812V48.308C148.86 48.7133 148.956 49.012 149.148 49.204C149.34 49.3853 149.65 49.476 150.076 49.476C150.375 49.476 150.711 49.4227 151.084 49.316C151.468 49.1987 151.852 49.0227 152.236 48.788C152.62 48.5533 152.972 48.2547 153.292 47.892V48.9C153.175 49.0493 153.004 49.2253 152.78 49.428C152.567 49.62 152.306 49.812 151.996 50.004C151.698 50.1853 151.362 50.34 150.988 50.468C150.626 50.5853 150.231 50.644 149.804 50.644C149.346 50.644 148.94 50.564 148.588 50.404C148.236 50.2333 147.959 49.988 147.756 49.668C147.564 49.3373 147.468 48.9373 147.468 48.468V47.62C147.468 47.012 147.655 46.5427 148.028 46.212C148.412 45.8707 148.946 45.7 149.628 45.7H153.612Z" fill="#211968"/>
</svg>
