<svg width="163" height="41" viewBox="0 0 163 41" fill="none" xmlns="http://www.w3.org/2000/svg">
<circle cx="3.25145" cy="32.2385" r="2.95922" fill="#211968"/>
<circle cx="25.0821" cy="30.1041" r="2.086" fill="#211968"/>
<circle cx="25.0816" cy="9.82597" r="3.25029" fill="#211968"/>
<circle cx="12.7112" cy="22.3421" r="3.25029" fill="#211968"/>
<path d="M29.4958 9.85044C29.4958 12.3019 27.5085 14.2893 25.057 14.2893C22.6055 14.2893 20.6182 12.3019 20.6182 9.85044C20.6182 7.39895 22.6055 5.41162 25.057 5.41162C27.5085 5.41162 29.4958 7.39895 29.4958 9.85044ZM21.062 9.85044C21.062 12.0568 22.8506 13.8454 25.057 13.8454C27.2633 13.8454 29.0519 12.0568 29.0519 9.85044C29.0519 7.6441 27.2633 5.8555 25.057 5.8555C22.8506 5.8555 21.062 7.6441 21.062 9.85044Z" fill="#211968"/>
<path d="M20.9586 22.3422C20.9586 26.8969 17.2663 30.5892 12.7116 30.5892C8.1569 30.5892 4.4646 26.8969 4.4646 22.3422C4.4646 17.7875 8.1569 14.0952 12.7116 14.0952C17.2663 14.0952 20.9586 17.7875 20.9586 22.3422ZM5.2893 22.3422C5.2893 26.4414 8.61237 29.7645 12.7116 29.7645C16.8108 29.7645 20.1339 26.4414 20.1339 22.3422C20.1339 18.243 16.8108 14.9199 12.7116 14.9199C8.61237 14.9199 5.2893 18.243 5.2893 22.3422Z" fill="#211968"/>
<path d="M12.5898 22.4876L21.9526 13.0278" stroke="#211968" stroke-width="0.918008" stroke-miterlimit="1" stroke-linecap="square"/>
<path d="M2.81494 32.6267L7.22951 28.0181" stroke="#211968" stroke-width="0.918008"/>
<path d="M12.9524 22.0973C12.7367 21.9641 12.4539 22.0309 12.3207 22.2466C12.1874 22.4623 12.2543 22.7451 12.47 22.8783L12.9524 22.0973ZM12.47 22.8783L24.8405 30.5189L25.3229 29.7379L12.9524 22.0973L12.47 22.8783Z" fill="#211968"/>
<path d="M46.0291 27.5574C44.9479 27.5574 43.9299 27.3784 42.9751 27.0204C42.0274 26.6623 41.1884 26.1428 40.4583 25.4618C39.7351 24.7808 39.1665 23.9524 38.7523 22.9765C38.3381 22.0007 38.131 20.8949 38.131 19.6593C38.131 18.4728 38.3381 17.3952 38.7523 16.4264C39.1665 15.4505 39.7351 14.6115 40.4583 13.9095C41.1884 13.2074 42.0274 12.6669 42.9751 12.2877C43.9299 11.9086 44.9479 11.7191 46.0291 11.7191C46.6328 11.7191 47.2928 11.7858 48.0089 11.9192C48.732 12.0526 49.4621 12.2948 50.1993 12.6458L49.6517 14.0148C48.9075 13.6848 48.237 13.4777 47.6403 13.3935C47.0506 13.3022 46.5135 13.2566 46.0291 13.2566C45.3059 13.2566 44.6004 13.39 43.9124 13.6568C43.2244 13.9165 42.6066 14.3132 42.0589 14.8467C41.5184 15.3733 41.0866 16.0367 40.7637 16.8371C40.4407 17.6374 40.2792 18.5782 40.2792 19.6593C40.2792 20.7335 40.4407 21.6707 40.7637 22.471C41.0866 23.2714 41.5184 23.9348 42.0589 24.4614C42.6066 24.9879 43.2244 25.3846 43.9124 25.6513C44.6004 25.9111 45.3059 26.041 46.0291 26.041C46.338 26.041 46.6925 26.0199 47.0927 25.9778C47.4928 25.9287 47.9246 25.8304 48.388 25.6829V20.2069H50.3256V26.5254C49.8202 26.7922 49.3112 27.0028 48.7987 27.1573C48.2932 27.3047 47.8053 27.4065 47.3349 27.4626C46.8645 27.5258 46.4292 27.5574 46.0291 27.5574ZM52.801 27.3047V20.1016C52.801 19.4557 52.773 18.8028 52.7168 18.1429C52.6676 17.4829 52.5834 16.9073 52.464 16.4158H53.9173C54.142 16.6475 54.2999 16.9038 54.3912 17.1846C54.4895 17.4584 54.5702 17.7638 54.6334 18.1008V18.4799L54.8019 18.1008C55.0757 17.5602 55.4688 17.1214 55.9813 16.7844C56.4938 16.4404 57.0344 16.2684 57.6031 16.2684C57.7646 16.2684 57.9295 16.2824 58.098 16.3105C58.2665 16.3386 58.4456 16.3807 58.6351 16.4369L58.3824 18.0797C58.1647 18.0235 57.9717 17.9884 57.8032 17.9744C57.6417 17.9603 57.4978 17.9533 57.3714 17.9533C56.9361 17.9533 56.5114 18.0727 56.0972 18.3114C55.683 18.5501 55.3425 18.9292 55.0757 19.4487C54.8089 19.9682 54.6755 20.6492 54.6755 21.4917V27.3047H52.801ZM63.7031 27.5153C62.9729 27.5153 62.3411 27.3854 61.8075 27.1257C61.281 26.8589 60.8738 26.5008 60.5859 26.0515C60.3051 25.6022 60.1647 25.0932 60.1647 24.5246C60.1647 23.8155 60.3507 23.2293 60.7228 22.7659C61.0949 22.2955 61.7057 21.9164 62.5552 21.6286C63.4117 21.3407 64.5596 21.1126 65.9988 20.9441C65.9707 21.1126 65.9075 21.3127 65.8092 21.5443C65.718 21.776 65.567 21.9901 65.3564 22.1867C65.1458 22.3833 64.8544 22.5097 64.4823 22.5658C63.8645 22.6641 63.3942 22.808 63.0712 22.9976C62.7553 23.1871 62.5376 23.4048 62.4183 23.6505C62.306 23.8892 62.2498 24.1384 62.2498 24.3982C62.2498 24.8264 62.4043 25.202 62.7132 25.525C63.0221 25.8409 63.4433 25.9989 63.9769 25.9989C64.4543 25.9989 64.9352 25.8795 65.4196 25.6408C65.904 25.4021 66.3498 25.016 66.757 24.4824V20.5439C66.757 19.7085 66.5534 19.031 66.1462 18.5115C65.746 17.9849 65.065 17.7216 64.1032 17.7216C63.7241 17.7216 63.3485 17.7603 62.9764 17.8375C62.6043 17.9147 62.1656 18.0446 61.6601 18.2271L61.1757 16.9213C61.8637 16.6264 62.471 16.4334 62.9975 16.3421C63.524 16.2508 64.019 16.2052 64.4823 16.2052C65.8303 16.2052 66.8763 16.5984 67.6205 17.3847C68.3647 18.1639 68.7368 19.2662 68.7368 20.6913V23.7031C68.7368 24.5456 68.7684 25.2652 68.8316 25.862C68.9018 26.4517 68.9825 26.9326 69.0738 27.3047H67.6416C67.445 27.1853 67.2906 27.0309 67.1782 26.8413C67.0659 26.6518 66.9676 26.4482 66.8834 26.2305L66.8623 25.8514L66.6306 26.2305C66.0971 26.7641 65.6021 27.1116 65.1458 27.2731C64.6894 27.4346 64.2085 27.5153 63.7031 27.5153ZM79.001 27.3047V19.3855C79.001 18.9011 78.8922 18.5044 78.6746 18.1955C78.4569 17.8796 78.1305 17.7216 77.6952 17.7216C77.5267 17.7216 77.3793 17.7392 77.2529 17.7743C77.1266 17.8094 76.9721 17.848 76.7896 17.8901C76.3824 17.9814 76.0033 17.9849 75.6522 17.9007C75.3012 17.8164 74.9783 17.6234 74.6834 17.3215C75.4346 16.8792 76.0594 16.5843 76.5579 16.4369C77.0634 16.2824 77.5057 16.2052 77.8848 16.2052C78.4464 16.2052 78.9659 16.307 79.4433 16.5106C79.9207 16.7142 80.3033 17.0617 80.5912 17.5532C80.879 18.0446 81.023 18.7256 81.023 19.5961V27.3047H79.001ZM72.0928 27.3047V19.0696C72.0928 18.6764 72.0683 18.2587 72.0191 17.8164C71.977 17.3741 71.8962 16.9073 71.7769 16.4158H73.2933C73.6303 16.7949 73.8515 17.1705 73.9568 17.5426C74.0621 17.9147 74.1147 18.3114 74.1147 18.7326V27.3047H72.0928ZM88.5568 27.5364C87.4124 27.5364 86.5313 27.1608 85.9135 26.4096C85.3027 25.6584 84.9973 24.6158 84.9973 23.2819V17.8691H83.0597V16.9213L84.9973 16.4158V13.6357L86.8508 13.046V23.5136C86.8508 24.2367 87.0052 24.844 87.3141 25.3354C87.63 25.8198 88.0443 26.0621 88.5568 26.0621C88.8306 26.0621 89.0938 26.0375 89.3466 25.9883C89.6063 25.9392 89.9187 25.8585 90.2838 25.7461L90.7472 27.073C90.2136 27.2485 89.7994 27.3679 89.5045 27.4311C89.2097 27.5013 88.8937 27.5364 88.5568 27.5364ZM89.3782 17.8691C89.0482 17.8691 88.7674 17.8059 88.5357 17.6795C88.311 17.5461 88.1215 17.3706 87.967 17.153C87.8196 16.9283 87.7003 16.6826 87.609 16.4158H90.5787V17.8691H89.3782ZM93.6912 27.3047V11.9929H102.411V13.5093H95.692V27.3047H93.6912ZM96.4924 20.0174C96.5907 19.7506 96.717 19.5049 96.8715 19.2802C97.0259 19.0556 97.219 18.8765 97.4507 18.7431C97.6824 18.6097 97.9667 18.5431 98.3037 18.5431H101.695V20.0174H96.4924ZM105.68 27.3047V11.34H107.597V27.3047H105.68ZM115.156 27.5153C114.215 27.5153 113.359 27.2977 112.587 26.8624C111.821 26.4271 111.211 25.7883 110.754 24.9458C110.305 24.1033 110.08 23.0713 110.08 21.8497C110.08 20.8879 110.224 20.0525 110.512 19.3434C110.807 18.6343 111.197 18.0481 111.681 17.5847C112.172 17.1214 112.72 16.7774 113.324 16.5527C113.928 16.3211 114.538 16.2052 115.156 16.2052C116.23 16.2052 117.146 16.458 117.905 16.9634C118.663 17.4619 119.239 18.1394 119.632 18.9959C120.032 19.8454 120.232 20.7966 120.232 21.8497C120.232 22.7624 120.095 23.5733 119.821 24.2823C119.554 24.9844 119.186 25.5776 118.716 26.0621C118.245 26.5394 117.705 26.901 117.094 27.1467C116.483 27.3924 115.837 27.5153 115.156 27.5153ZM115.156 25.9989C115.837 25.9989 116.399 25.8093 116.841 25.4302C117.283 25.0511 117.61 24.5491 117.82 23.9243C118.038 23.2924 118.147 22.6009 118.147 21.8497C118.147 20.909 118.006 20.1332 117.726 19.5224C117.452 18.9116 117.087 18.4588 116.63 18.1639C116.181 17.8691 115.69 17.7216 115.156 17.7216C114.623 17.7216 114.128 17.8691 113.671 18.1639C113.222 18.4588 112.857 18.9116 112.576 19.5224C112.302 20.1332 112.165 20.909 112.165 21.8497C112.165 23.0713 112.425 24.0682 112.945 24.8405C113.464 25.6127 114.201 25.9989 115.156 25.9989ZM132.446 27.3047L128.613 16.4158H130.719L133.415 24.9037L133.562 25.4302L133.71 24.9037L136.385 16.4158H138.385L134.552 27.3047H132.446ZM125.475 27.3047L121.62 16.4158H123.727L126.422 24.9037L126.57 25.4302L126.717 24.9037L128.634 19.7646C128.845 19.9963 129.013 20.3052 129.139 20.6913C129.273 21.0775 129.343 21.4987 129.35 21.955C129.364 22.4114 129.294 22.8607 129.139 23.303L127.476 27.3047H125.475ZM142.037 27.6206C141.678 27.6206 141.38 27.5048 141.141 27.2731C140.91 27.0344 140.794 26.736 140.794 26.378C140.794 26.0059 140.91 25.7005 141.141 25.4618C141.38 25.2161 141.678 25.0932 142.037 25.0932C142.409 25.0932 142.714 25.2161 142.953 25.4618C143.198 25.7005 143.321 26.0059 143.321 26.378C143.321 26.736 143.198 27.0344 142.953 27.2731C142.714 27.5048 142.409 27.6206 142.037 27.6206ZM149.78 27.5153C149.05 27.5153 148.418 27.3854 147.885 27.1257C147.358 26.8589 146.951 26.5008 146.663 26.0515C146.382 25.6022 146.242 25.0932 146.242 24.5246C146.242 23.8155 146.428 23.2293 146.8 22.7659C147.172 22.2955 147.783 21.9164 148.632 21.6286C149.489 21.3407 150.637 21.1126 152.076 20.9441C152.048 21.1126 151.985 21.3127 151.886 21.5443C151.795 21.776 151.644 21.9901 151.433 22.1867C151.223 22.3833 150.931 22.5097 150.559 22.5658C149.942 22.6641 149.471 22.808 149.148 22.9976C148.832 23.1871 148.615 23.4048 148.495 23.6505C148.383 23.8892 148.327 24.1384 148.327 24.3982C148.327 24.8264 148.481 25.202 148.79 25.525C149.099 25.8409 149.52 25.9989 150.054 25.9989C150.531 25.9989 151.012 25.8795 151.497 25.6408C151.981 25.4021 152.427 25.016 152.834 24.4824V20.5439C152.834 19.7085 152.63 19.031 152.223 18.5115C151.823 17.9849 151.142 17.7216 150.18 17.7216C149.801 17.7216 149.426 17.7603 149.053 17.8375C148.681 17.9147 148.243 18.0446 147.737 18.2271L147.253 16.9213C147.941 16.6264 148.548 16.4334 149.075 16.3421C149.601 16.2508 150.096 16.2052 150.559 16.2052C151.907 16.2052 152.953 16.5984 153.698 17.3847C154.442 18.1639 154.814 19.2662 154.814 20.6913V23.7031C154.814 24.5456 154.845 25.2652 154.909 25.862C154.979 26.4517 155.06 26.9326 155.151 27.3047H153.719C153.522 27.1853 153.368 27.0309 153.255 26.8413C153.143 26.6518 153.045 26.4482 152.96 26.2305L152.939 25.8514L152.708 26.2305C152.174 26.7641 151.679 27.1116 151.223 27.2731C150.766 27.4346 150.286 27.5153 149.78 27.5153ZM158.065 27.3047V16.4158H160.086V27.3047H158.065ZM159.076 14.5203C158.717 14.5203 158.416 14.4009 158.17 14.1622C157.931 13.9165 157.812 13.6146 157.812 13.2566C157.812 12.8845 157.931 12.5791 158.17 12.3404C158.416 12.0947 158.717 11.9718 159.076 11.9718C159.448 11.9718 159.749 12.0947 159.981 12.3404C160.22 12.5791 160.339 12.8845 160.339 13.2566C160.339 13.6146 160.22 13.9165 159.981 14.1622C159.749 14.4009 159.448 14.5203 159.076 14.5203Z" fill="#211968"/>
</svg>