<svg width="146" height="146" viewBox="0 0 146 146" fill="none" xmlns="http://www.w3.org/2000/svg">
<path d="M115.754 61.8913L115.536 60.4386C115.497 60.184 115.508 59.9241 115.57 59.6739C115.631 59.4237 115.742 59.1881 115.894 58.9808C116.203 58.5619 116.665 58.2824 117.179 58.2036L114.225 58.6445C113.77 58.7154 113.353 58.9443 113.049 59.2911C112.745 59.6379 112.572 60.0806 112.561 60.5417L106.953 61.2681C107.657 61.9305 108.306 62.5755 108.816 63.145L112.877 62.654C113.016 63.0975 113.309 63.4769 113.703 63.7237C114.097 63.9705 114.566 64.0684 115.026 63.9999L117.96 63.5575C117.706 63.5954 117.446 63.5821 117.197 63.5186C116.947 63.455 116.713 63.3423 116.508 63.1872C116.302 63.0321 116.13 62.8376 116.001 62.6151C115.871 62.3926 115.788 62.1465 115.754 61.8913Z" fill="#DEDDFD"/>
<path d="M49.7346 47.373C46.2292 45.7619 40.9298 38.8173 39.9499 40.6942C39.4415 41.6602 46.0084 53.9973 46.5052 55.7914C48.7525 54.3085 51.3137 53.3683 53.9866 53.045C53.0874 51.2924 53.2254 48.9877 49.7346 47.373Z" fill="#DEDDFD"/>
<path d="M36.5687 76.7814C35.6604 76.6592 34.7369 76.7155 33.85 76.947C30.0962 77.8295 21.9822 75.5807 22.0374 77.6922C22.0788 79.0854 36.3617 84.7582 36.9414 85.3371C37.7082 82.9075 38.999 80.6759 40.7227 78.7999C39.4415 78.2028 38.4042 77.0712 36.5687 76.7814Z" fill="#DEDDFD"/>
<path d="M127.844 20.2671C126.724 20.3362 125.649 20.7363 124.756 21.4167C123.863 22.0971 123.191 23.0271 122.827 24.0892C122.555 24.8829 122.461 25.7273 122.554 26.5614C122.647 27.3956 122.924 28.1987 123.365 28.9129C123.806 29.6271 124.4 30.2346 125.104 30.6917C125.808 31.1488 126.604 31.444 127.436 31.556C128.268 31.6687 129.114 31.5954 129.914 31.3415C130.714 31.0875 131.448 30.6593 132.062 30.0877C132.677 29.516 133.157 28.8152 133.468 28.0357C133.779 27.2561 133.913 26.4173 133.861 25.5796C133.768 24.0772 133.082 22.6732 131.954 21.6762C131.395 21.1826 130.745 20.8041 130.039 20.5623C129.334 20.3205 128.588 20.2202 127.844 20.2671ZM125.208 28.5911C124.963 28.5166 124.748 28.3653 124.595 28.1593C124.442 27.9533 124.36 27.7037 124.36 27.4473C124.36 27.1908 124.442 26.9411 124.595 26.7351C124.747 26.5291 124.962 26.3776 125.208 26.303C125.453 26.2285 125.716 26.2348 125.957 26.3211C126.199 26.4073 126.406 26.569 126.549 26.7821C126.692 26.9953 126.762 27.2486 126.749 27.5048C126.737 27.7609 126.643 28.0063 126.48 28.2047C126.279 28.4498 125.989 28.6052 125.673 28.6368C125.516 28.6528 125.359 28.6368 125.208 28.5911ZM128.948 25.2789C128.621 25.1808 128.33 24.9878 128.112 24.7244C127.894 24.461 127.76 24.1389 127.725 23.7989C127.69 23.4588 127.757 23.1161 127.917 22.8141C128.077 22.512 128.323 22.2641 128.623 22.1017C128.924 21.9394 129.266 21.8698 129.607 21.9019C129.947 21.9339 130.27 22.0661 130.535 22.2818C130.8 22.4974 130.996 22.7868 131.096 23.1134C131.197 23.4401 131.199 23.7892 131.101 24.1168C130.968 24.5553 130.667 24.9236 130.264 25.1413C129.861 25.359 129.388 25.4085 128.948 25.2789ZM129.845 29.2012C129.762 29.1777 129.684 29.1379 129.615 29.0839C129.547 29.0299 129.491 28.963 129.449 28.8869C129.407 28.8108 129.38 28.7271 129.371 28.6408C129.362 28.5544 129.37 28.467 129.394 28.3837C129.419 28.3004 129.46 28.2229 129.515 28.1556C129.57 28.0884 129.638 28.0327 129.715 27.9919C129.791 27.9511 129.875 27.926 129.962 27.918C130.049 27.91 130.136 27.9193 130.219 27.9454C130.383 27.9969 130.52 28.1109 130.601 28.2628C130.682 28.4147 130.699 28.5922 130.65 28.7571C130.601 28.922 130.489 29.061 130.339 29.144C130.188 29.2271 130.011 29.2477 129.845 29.2012Z" fill="#DEDDFD"/>
<path d="M120.86 100.256C120.984 100.878 120.919 101.523 120.676 102.109C120.432 102.695 120.02 103.195 119.492 103.547C118.964 103.898 118.343 104.085 117.709 104.084C117.075 104.083 116.455 103.895 115.928 103.542C115.489 103.248 115.13 102.851 114.882 102.385C114.634 101.92 114.505 101.4 114.506 100.873C114.507 100.345 114.637 99.8261 114.887 99.3612C115.136 98.8964 115.496 98.5002 115.935 98.2078C116.374 97.9153 116.878 97.7357 117.403 97.6847C117.928 97.6337 118.458 97.713 118.945 97.9155C119.432 98.118 119.862 98.4375 120.196 98.8457C120.53 99.2539 120.758 99.7382 120.86 100.256Z" fill="#DEDDFD"/>
<path d="M102.601 38.0444C102.397 31.0198 107.599 32.3999 110.373 41.7153C109.269 36.9955 116.145 31.282 116.636 58.3843C116.382 58.4991 116.159 58.6734 115.987 58.8928C114.334 54.9342 111.18 57.329 111.612 60.5634C111.67 60.9963 111.356 61.2251 110.702 60.5111C110.017 59.7448 109.219 60.1697 109.144 60.9949L107.333 61.2157C104.693 58.579 102.556 55.4827 101.028 52.0789C97.9505 45.634 99.6894 38.154 104.892 48.7529C103.464 45.3588 102.686 41.726 102.601 38.0444Z" fill="#1E13F8"/>
<path d="M110.385 63.0774C110.667 63.9926 110.792 64.9492 110.757 65.9065C110.626 64.7771 110.09 63.9817 109.268 63.113L110.385 63.0774Z" fill="#1E13F8"/>
<path d="M91.8523 42.9551C91.6176 42.4467 91.2712 41.7567 90.9414 41.1218C92.0033 41.2584 92.3077 41.9753 91.8523 42.9551Z" fill="#1E13F8"/>
<path d="M87.2021 67.8662C86.167 68.3078 85.8772 70.2537 86.2636 72.9724L92.3773 71.9512C90.7619 69.5637 88.6236 67.2866 87.2021 67.8662Z" fill="#1E13F8"/>
<path d="M98.3396 90.1418C98.105 91.4943 97.3874 92.3361 96.0625 91.7565C96.8215 91.2306 97.5806 90.6924 98.3396 90.1418Z" fill="#1E13F8"/>
<path d="M83.7666 47.718C82.5108 47.649 82.096 46.8762 82.7033 45.7307C83.0207 46.412 83.3751 47.0759 83.7666 47.718Z" fill="#1E13F8"/>
<path d="M111.959 70.5574C111.959 70.713 111.897 70.8623 111.787 70.9723C111.677 71.0824 111.528 71.1442 111.372 71.1442C111.216 71.1442 111.067 71.0824 110.957 70.9723C110.847 70.8623 110.785 70.713 110.785 70.5574C110.785 70.4017 110.847 70.2524 110.957 70.1424C111.067 70.0323 111.216 69.9705 111.372 69.9705C111.528 69.9705 111.677 70.0323 111.787 70.1424C111.897 70.2524 111.959 70.4017 111.959 70.5574Z" fill="#1E13F8"/>
<path d="M121.607 67.3004C121.595 67.448 121.528 67.5857 121.419 67.6862C121.311 67.7867 121.168 67.8425 121.02 67.8425C120.872 67.8425 120.729 67.7867 120.621 67.6862C120.512 67.5857 120.445 67.448 120.434 67.3004C120.443 67.151 120.508 67.0107 120.617 66.9082C120.726 66.8056 120.87 66.7485 121.02 66.7485C121.17 66.7485 121.314 66.8056 121.423 66.9082C121.532 67.0107 121.598 67.151 121.607 67.3004Z" fill="#1E13F8"/>
<path d="M125.441 56.8402C125.441 56.9191 125.425 56.9972 125.394 57.0698C125.363 57.1424 125.318 57.2081 125.261 57.2629C125.205 57.3177 125.137 57.3605 125.064 57.3887C124.99 57.417 124.911 57.4301 124.833 57.4273C124.754 57.4245 124.676 57.4059 124.605 57.3725C124.533 57.3391 124.469 57.2917 124.416 57.2331C124.364 57.1744 124.323 57.1057 124.298 57.0311C124.272 56.9565 124.262 56.8775 124.267 56.7988C124.278 56.6469 124.347 56.505 124.46 56.4032C124.573 56.3014 124.722 56.2474 124.874 56.2528C125.026 56.2582 125.17 56.3224 125.276 56.432C125.382 56.5415 125.441 56.6879 125.441 56.8402Z" fill="#1E13F8"/>
<path d="M134.521 51.5958C134.512 51.7452 134.446 51.8854 134.337 51.988C134.228 52.0905 134.084 52.1477 133.934 52.1477C133.785 52.1477 133.641 52.0905 133.532 51.988C133.423 51.8854 133.357 51.7452 133.348 51.5958C133.357 51.4464 133.423 51.3061 133.532 51.2036C133.641 51.101 133.785 51.0439 133.934 51.0439C134.084 51.0439 134.228 51.101 134.337 51.2036C134.446 51.3061 134.512 51.4464 134.521 51.5958Z" fill="#1E13F8"/>
<path d="M109.571 80.3419C109.566 80.4939 109.502 80.6378 109.392 80.7434C109.283 80.8491 109.137 80.9082 108.985 80.9085C108.833 80.9079 108.687 80.8486 108.578 80.743C108.468 80.6374 108.404 80.4937 108.398 80.3419C108.404 80.1901 108.468 80.0463 108.577 79.9407C108.687 79.8351 108.833 79.7758 108.985 79.7754C109.137 79.776 109.282 79.8353 109.392 79.9408C109.501 80.0464 109.566 80.1901 109.571 80.3419Z" fill="#1E13F8"/>
<path d="M99.2356 76.809C99.2299 76.961 99.1657 77.1049 99.0562 77.2105C98.9468 77.3161 98.8007 77.3753 98.6487 77.3755C98.4968 77.3749 98.351 77.3156 98.2418 77.21C98.1325 77.1045 98.0683 76.9608 98.0625 76.809C98.0681 76.6571 98.1323 76.5133 98.2416 76.4077C98.3508 76.3021 98.4967 76.2429 98.6487 76.2424C98.8006 76.2431 98.9465 76.3023 99.0559 76.4079C99.1652 76.5134 99.2296 76.6571 99.2356 76.809Z" fill="#1E13F8"/>
<path d="M102.3 66.608C102.291 66.7574 102.225 66.8977 102.116 67.0002C102.007 67.1028 101.863 67.1599 101.713 67.1599C101.564 67.1599 101.42 67.1028 101.311 67.0002C101.202 66.8977 101.136 66.7574 101.127 66.608C101.136 66.4586 101.202 66.3184 101.311 66.2158C101.42 66.1133 101.564 66.0562 101.713 66.0562C101.863 66.0562 102.007 66.1133 102.116 66.2158C102.225 66.3184 102.291 66.4586 102.3 66.608Z" fill="#1E13F8"/>
<path d="M99.6086 55.9569C99.597 56.1045 99.5301 56.2422 99.4214 56.3427C99.3127 56.4432 99.1701 56.499 99.0221 56.499C98.874 56.499 98.7314 56.4432 98.6227 56.3427C98.514 56.2422 98.4472 56.1045 98.4355 55.9569C98.4447 55.8075 98.5104 55.6672 98.6194 55.5647C98.7284 55.4621 98.8724 55.405 99.0221 55.405C99.1717 55.405 99.3157 55.4621 99.4247 55.5647C99.5337 55.6672 99.5995 55.8075 99.6086 55.9569Z" fill="#1E13F8"/>
<path d="M88.3195 51.5958C88.3104 51.7452 88.2447 51.8854 88.1357 51.988C88.0267 52.0905 87.8827 52.1477 87.733 52.1477C87.5834 52.1477 87.4393 52.0905 87.3303 51.988C87.2214 51.8854 87.1556 51.7452 87.1465 51.5958C87.1556 51.4464 87.2214 51.3061 87.3303 51.2036C87.4393 51.101 87.5834 51.0439 87.733 51.0439C87.8827 51.0439 88.0267 51.101 88.1357 51.2036C88.2447 51.3061 88.3104 51.4464 88.3195 51.5958Z" fill="#1E13F8"/>
<path d="M95.7855 67.7769H93.6602L99.2356 73.138L95.7855 67.7769Z" fill="#1E13F8"/>
<path d="M113.864 66.6378C113.343 66.4991 112.842 66.2951 112.373 66.0305L113.781 67.8936C113.743 67.4732 113.771 67.0496 113.864 66.6378Z" fill="#1E13F8"/>
<path d="M114.195 70.1157C114.696 72.6652 114.265 75.3098 112.98 77.5681L114.913 75.8706C115.169 73.9225 114.922 71.9412 114.195 70.1157Z" fill="#1E13F8"/>
<path d="M116.637 58.3858C116.141 31.282 109.269 36.9955 110.373 41.7153C107.599 32.3999 102.397 31.0198 102.601 38.0444C102.686 41.7259 103.464 45.3585 104.892 48.7529C99.6888 38.1548 97.9513 45.6333 101.027 52.0789C102.551 55.4749 104.681 58.5647 107.313 61.1968M110.756 65.9064C110.625 64.774 110.085 63.9787 109.26 63.1071" stroke="#2E2D36" stroke-linecap="round" stroke-linejoin="round"/>
<path d="M43.0564 92.0028C38.524 92.3197 33.9831 91.5182 29.8332 89.6686C25.6832 87.8191 22.0512 84.9782 19.2567 81.3958C16.4621 77.8135 14.5905 73.5993 13.8066 69.124C13.0226 64.6487 13.3502 60.0493 14.7607 55.7303C15.933 52.1346 17.8285 48.8167 20.3305 45.9807C22.8326 43.1446 25.8883 40.8503 29.3098 39.2389C32.7313 37.6274 36.4462 36.7329 40.2262 36.6103C44.0062 36.4877 47.7713 37.1395 51.2901 38.5258C54.8088 39.9121 58.0068 42.0036 60.6874 44.6715C63.368 47.3394 65.4745 50.5275 66.8774 54.0396C68.2803 57.5518 68.95 61.3138 68.8453 65.0943C68.7405 68.8748 67.8636 72.594 66.2683 76.0231" stroke="#2E2D36" stroke-linecap="round" stroke-linejoin="round"/>
<path d="M49.0717 69.7844C45.0144 72.2271 40.6534 74.6837 36.5684 76.7814" stroke="#2E2D36" stroke-linecap="round" stroke-linejoin="round"/>
<path d="M61.5234 45.579C70.4248 42.2124 76.747 41.2311 78.0421 43.4675C79.7425 46.4056 72.2458 54.1078 60.0605 62.6642" stroke="#2E2D36" stroke-linecap="round" stroke-linejoin="round"/>
<path d="M27.6684 81.0735C15.234 86.6344 5.85031 88.8454 4.23564 86.0548C2.92457 83.7915 7.07857 78.686 14.6544 72.5447" stroke="#2E2D36" stroke-linecap="round" stroke-linejoin="round"/>
<path d="M93.6611 67.7768L99.2366 73.138L82.5938 47.2349" stroke="#2E2D36" stroke-linecap="round" stroke-linejoin="round"/>
<path d="M116.817 63.3811C116.844 68.722 112.373 66.0308 112.373 66.0308" stroke="#2E2D36" stroke-linecap="round" stroke-linejoin="round"/>
<path d="M112.373 66.0308L113.781 67.8626" stroke="#2E2D36" stroke-linecap="round" stroke-linejoin="round"/>
<path d="M116.003 58.8552C114.423 55.0055 111.12 57.234 111.608 60.6173C111.656 60.9507 111.39 61.271 110.704 60.5113C110.026 59.7559 109.233 60.1713 109.148 60.9841M109.379 66.0998C110.29 67.0245 111.381 67.0521 110.387 63.0775C110.34 63.0439 110.294 63.0095 110.249 62.9743" stroke="#2E2D36" stroke-linecap="round" stroke-linejoin="round"/>
<path d="M91.9355 41.6602C95.8419 48.3477 105 63.1884 111.298 67.7695C111.647 68.0593 112.057 68.2659 112.497 68.3735C112.938 68.4811 113.397 68.4869 113.84 68.3906C113.751 67.8043 113.76 67.2073 113.868 66.6241" stroke="#2E2D36" stroke-linecap="round" stroke-linejoin="round"/>
<path d="M114.801 75.9781C115.561 73.5492 114.194 70.1128 114.194 70.1128C114.194 70.1128 117.433 80.5533 97.8281 91.5619" stroke="#2E2D36" stroke-linecap="round" stroke-linejoin="round"/>
<path d="M95.7849 67.7769H88.0195" stroke="#2E2D36" stroke-linecap="round" stroke-linejoin="round"/>
<path d="M112.98 77.5681C112.98 77.5681 126.864 66.0191 136.496 50.4229C135.284 48.3383 133.357 46.764 131.073 45.9922C128.028 50.3847 124.729 54.5964 121.195 58.606" stroke="#2E2D36" stroke-linecap="round" stroke-linejoin="round"/>
<path d="M92.3923 90.2501C83.7262 92.9826 74.4514 94.4368 64.7786 95.3149C62.8442 95.4885 60.9069 95.0148 59.2709 93.9682C57.6348 92.9216 56.3926 91.3614 55.7392 89.5325C52.3834 80.1081 49.271 71.0011 45.0996 56.8402C46.65 55.5547 48.419 54.5588 50.3221 53.8999C51.9988 53.3259 53.7482 52.9917 55.5184 52.907L66.4049 76.3122L92.377 71.9541" stroke="#2E2D36" stroke-linecap="round" stroke-linejoin="round"/>
<path d="M96.0614 91.7545C99.9663 93.4628 98.3967 84.5803 95.7854 78.3686C94.3117 74.8625 89.7073 66.4187 87.0779 67.9425C86.1439 68.4837 85.8933 70.3794 86.2637 72.9863" stroke="#2E2D36" stroke-linecap="round" stroke-linejoin="round"/>
<path d="M53.5573 83.3361L41.6204 77.8884C39.0133 80.3563 37.2139 83.5554 36.459 87.0651C45.0713 93.7925 54.2772 99.7233 63.963 104.784C65.1167 105.4 66.3943 105.748 67.7009 105.803C69.0075 105.858 70.3098 105.619 71.5112 105.102C80.9719 101.106 89.9679 96.0887 98.3389 90.139" stroke="#2E2D36" stroke-linecap="round" stroke-linejoin="round"/>
<path d="M53.9847 53.0451C51.3117 53.3682 48.7505 54.3084 46.5033 55.7915C46.0065 53.9974 39.4395 41.6611 39.948 40.6943C40.9329 38.8196 46.228 45.7562 49.7326 47.3767C53.2271 48.9856 53.0876 51.2925 53.9847 53.0451Z" stroke="#2E2D36" stroke-linecap="round" stroke-linejoin="round"/>
<path d="M36.5687 76.7814C35.6604 76.6592 34.7369 76.7155 33.85 76.947C30.0962 77.8295 21.9822 75.5807 22.0374 77.6922C22.0788 79.0854 36.3617 84.7582 36.9414 85.3371C37.7082 82.9075 38.999 80.6759 40.7227 78.7999C39.4415 78.2028 38.4042 77.0712 36.5687 76.7814Z" stroke="#2E2D36" stroke-linecap="round" stroke-linejoin="round"/>
<path d="M85.5042 33.8767C85.5042 33.8767 85.5042 32.2344 85.4904 29.6813C85.4759 27.004 86.5145 26.4912 86.9119 29.5295C86.9547 29.8607 87.4639 33.1867 87.6157 34.1665C87.6985 34.7048 88.0842 36.1909 88.5817 36.1277C89.9465 35.9497 92.5185 32.9637 93.3284 33.8506C93.8558 34.4316 92.2687 36.5293 91.0927 37.9494C90.7613 38.3483 90.5556 38.8366 90.5016 39.3525C90.4477 39.8684 90.548 40.3886 90.7898 40.8475C90.8305 40.9288 91.7791 42.837 91.8525 42.9539" stroke="#2E2D36" stroke-linecap="round" stroke-linejoin="round"/>
<path d="M85.7112 34.5528C85.7112 34.5528 83.9455 28.9636 83.8343 28.5909C82.9584 25.663 82.0228 26.3284 82.4543 28.9636C82.8654 31.476 83.3259 34.539 83.3259 34.539" stroke="#2E2D36" stroke-linecap="round" stroke-linejoin="round"/>
<path d="M83.7649 35.4478C82.9101 33.7463 82.1582 31.9951 81.5133 30.2035C80.4615 27.3345 79.6749 28.0514 80.1608 30.6866C80.4252 32.3147 80.8138 33.9203 81.323 35.4892" stroke="#2E2D36" stroke-linecap="round" stroke-linejoin="round"/>
<path d="M82.6953 45.7453C82.0996 46.8828 82.5166 47.6498 83.7666 47.7181C86.3088 47.8561 90.7846 45.2361 91.8531 42.9554C92.3121 41.977 92.0042 41.2601 90.9422 41.1221" stroke="#2E2D36" stroke-linecap="round" stroke-linejoin="round"/>
<path d="M82.3011 36.9279C81.2981 35.5983 80.4598 34.152 79.8047 32.6207C78.6069 29.7879 77.8537 30.5658 78.5212 33.2555C78.6992 33.9732 78.8844 34.5935 79.0456 35.1186C79.5177 36.6222 79.9703 38.141 80.3981 39.659C80.8659 41.3296 82.4943 45.8555 83.7662 47.7215" stroke="#2E2D36" stroke-linecap="round" stroke-linejoin="round"/>
<path d="M86.6097 34.2769C84.0428 35.0911 82.5937 36.4022 80.9238 38.5275" stroke="#2E2D36" stroke-linecap="round" stroke-linejoin="round"/>
<path d="M87.2437 35.4775C86.3397 36.3903 85.6359 37.4814 85.1773 38.6814C84.7186 39.8814 84.5153 41.1639 84.5801 42.4469" stroke="#2E2D36" stroke-linecap="round" stroke-linejoin="round"/>
<path d="M131.652 46.2276C131.652 46.2276 133.391 43.0259 132.88 40.5149C132.273 37.5368 132.762 37.4751 134.246 40.0733C135.23 41.7954 135.792 45.924 135.792 45.924" stroke="#2E2D36" stroke-linecap="round" stroke-linejoin="round"/>
<path d="M136.082 49.7605C136.082 49.7605 138.731 45.4409 139.367 42.5289C139.918 40.0034 138.966 41.1358 138.621 41.9478" stroke="#2E2D36" stroke-linecap="round" stroke-linejoin="round"/>
<path d="M136.377 40.4166C136.513 39.4806 136.557 38.5335 136.509 37.5889C136.33 34.9116 135.693 35.0903 135.267 37.3957C135.075 38.4777 134.817 39.5469 134.494 40.5975" stroke="#2E2D36" stroke-linecap="round" stroke-linejoin="round"/>
<path d="M135.875 39.8386C137.058 41.1041 137.807 42.7135 138.014 44.4335" stroke="#2E2D36" stroke-linecap="round" stroke-linejoin="round"/>
<path d="M136.51 38.9828C136.717 38.4018 136.911 37.7531 137.091 37.0369C137.723 34.5245 138.278 35.0358 138.154 37.2992C138.055 38.8887 137.771 40.4612 137.307 41.9848" stroke="#2E2D36" stroke-linecap="round" stroke-linejoin="round"/>
<path d="M138.014 38.9415C138.663 36.209 139.313 36.6506 139.132 39.1209C138.977 40.7775 138.572 42.401 137.932 43.9366" stroke="#2E2D36" stroke-linecap="round" stroke-linejoin="round"/>
<path d="M40.4883 105.196L40.8195 107.1" stroke="#2E2D36" stroke-linecap="round" stroke-linejoin="round"/>
<path d="M39.3421 109.211L37.4238 109.556" stroke="#2E2D36" stroke-linecap="round" stroke-linejoin="round"/>
<path d="M44.8499 108.245L42.9316 108.577" stroke="#2E2D36" stroke-linecap="round" stroke-linejoin="round"/>
<path d="M41.7863 112.607L41.4551 110.688" stroke="#2E2D36" stroke-linecap="round" stroke-linejoin="round"/>
<path d="M42.928 108.577C42.5729 108.642 42.2064 108.6 41.8756 108.455C41.5448 108.31 41.265 108.07 41.0722 107.765C40.9439 107.562 40.857 107.336 40.8165 107.1C40.86 107.336 40.8562 107.578 40.8053 107.812C40.7544 108.047 40.6575 108.268 40.5201 108.465C40.3827 108.661 40.2076 108.829 40.0049 108.957C39.8023 109.085 39.5762 109.172 39.3398 109.212C39.5756 109.169 39.8174 109.173 40.0515 109.224C40.2856 109.275 40.5073 109.372 40.7039 109.509C40.9005 109.646 41.0679 109.821 41.1962 110.023C41.3245 110.226 41.4112 110.452 41.4513 110.688C41.4078 110.452 41.4116 110.21 41.4625 109.976C41.5134 109.742 41.6104 109.52 41.7478 109.323C41.8852 109.127 42.0603 108.96 42.2629 108.832C42.4655 108.703 42.6916 108.617 42.928 108.577Z" stroke="#2E2D36" stroke-linecap="round" stroke-linejoin="round"/>
<path d="M68.0605 23.3191L68.2952 24.6578" stroke="#2E2D36" stroke-linecap="round" stroke-linejoin="round"/>
<path d="M67.2469 26.1482L65.9082 26.3828" stroke="#2E2D36" stroke-linecap="round" stroke-linejoin="round"/>
<path d="M71.1389 25.4722L69.7871 25.7068" stroke="#2E2D36" stroke-linecap="round" stroke-linejoin="round"/>
<path d="M68.9729 28.5495L68.7383 27.197" stroke="#2E2D36" stroke-linecap="round" stroke-linejoin="round"/>
<path d="M69.7874 25.7066C69.6206 25.7361 69.4496 25.7323 69.2843 25.6955C69.1189 25.6587 68.9625 25.5896 68.824 25.4921C68.6855 25.3946 68.5676 25.2707 68.4771 25.1275C68.3867 24.9843 68.3254 24.8247 68.2969 24.6577C68.3266 24.8247 68.323 24.9958 68.2863 25.1614C68.2497 25.3269 68.1806 25.4836 68.0831 25.6223C67.9856 25.761 67.8616 25.8791 67.7183 25.9698C67.575 26.0604 67.4152 26.1218 67.248 26.1504C67.4148 26.1208 67.5858 26.1246 67.7511 26.1614C67.9165 26.1982 68.0729 26.2673 68.2114 26.3648C68.3499 26.4623 68.4678 26.5862 68.5583 26.7294C68.6487 26.8726 68.71 27.0323 68.7385 27.1992C68.7088 27.0323 68.7124 26.8611 68.7491 26.6956C68.7858 26.53 68.8548 26.3734 68.9523 26.2346C69.0498 26.0959 69.1738 25.9778 69.3171 25.8872C69.4604 25.7966 69.6202 25.7352 69.7874 25.7066Z" stroke="#2E2D36" stroke-linecap="round" stroke-linejoin="round"/>
<path d="M134.371 60.939L134.965 64.278" stroke="#2E2D36" stroke-linecap="round" stroke-linejoin="round"/>
<path d="M132.37 67.9766L129.031 68.57" stroke="#2E2D36" stroke-linecap="round" stroke-linejoin="round"/>
<path d="M142.002 66.2791L138.662 66.8725" stroke="#2E2D36" stroke-linecap="round" stroke-linejoin="round"/>
<path d="M136.662 73.8971L136.068 70.5574" stroke="#2E2D36" stroke-linecap="round" stroke-linejoin="round"/>
<path d="M138.66 66.8726C138.247 66.9451 137.824 66.9355 137.414 66.8444C137.005 66.7532 136.617 66.5823 136.274 66.3414C135.93 66.1005 135.638 65.7942 135.412 65.4402C135.187 65.0862 135.034 64.6913 134.962 64.2781C135.108 65.1125 134.917 65.9709 134.43 66.6644C133.943 67.3579 133.202 67.8299 132.367 67.9767C132.78 67.9041 133.204 67.9137 133.613 68.0049C134.023 68.096 134.41 68.2669 134.754 68.5079C135.097 68.7488 135.39 69.055 135.615 69.409C135.84 69.7631 135.993 70.158 136.066 70.5712C135.92 69.7367 136.111 68.8784 136.597 68.1849C137.084 67.4913 137.826 67.0193 138.66 66.8726Z" stroke="#2E2D36" stroke-linecap="round" stroke-linejoin="round"/>
<path d="M117.715 100.877L92.1152 111.392" stroke="#2E2D36" stroke-linecap="round" stroke-linejoin="round"/>
<path d="M86.0702 119.217L117.714 100.877L79.1699 130.85" stroke="#2E2D36" stroke-linecap="round" stroke-linejoin="round"/>
<path d="M120.86 100.256C120.984 100.878 120.919 101.523 120.676 102.109C120.432 102.695 120.02 103.195 119.492 103.547C118.964 103.898 118.343 104.085 117.709 104.084C117.075 104.083 116.455 103.895 115.928 103.542C115.489 103.248 115.13 102.851 114.882 102.385C114.634 101.92 114.505 101.4 114.506 100.873C114.507 100.345 114.637 99.8261 114.887 99.3612C115.136 98.8964 115.496 98.5002 115.935 98.2078C116.374 97.9153 116.878 97.7357 117.403 97.6847C117.928 97.6337 118.458 97.713 118.945 97.9155C119.432 98.118 119.862 98.4375 120.196 98.8457C120.53 99.2539 120.758 99.7382 120.86 100.256Z" stroke="#2E2D36" stroke-linecap="round" stroke-linejoin="round"/>
<path d="M118.887 57.9719C134.26 42.7498 107.516 30.3706 122.889 15.1499" stroke="#2E2D36" stroke-linecap="round" stroke-linejoin="round"/>
<path d="M51.377 53.5693L61.3272 80.5765" stroke="#2E2D36" stroke-linecap="round" stroke-linejoin="round"/>
<path d="M61.3262 80.5767C61.8217 81.916 62.7669 83.0416 64.0003 83.7614C65.2337 84.4811 66.6787 84.7503 68.0885 84.5229" stroke="#2E2D36" stroke-linecap="round" stroke-linejoin="round"/>
<path d="M68.1035 84.5228L96.4072 79.9141" stroke="#2E2D36" stroke-linecap="round" stroke-linejoin="round"/>
<path d="M108.814 63.1471L112.926 62.6503L112.609 60.5388L106.951 61.2703L108.814 63.1471Z" stroke="#2E2D36" stroke-linecap="round" stroke-linejoin="round"/>
<path d="M117.175 58.2202L114.222 58.6618C113.838 58.7208 113.481 58.892 113.195 59.1538C112.909 59.4155 112.706 59.7561 112.614 60.1327C112.552 60.3829 112.54 60.6428 112.579 60.8975L112.797 62.3502C112.873 62.8641 113.15 63.3269 113.566 63.6372C113.983 63.9475 114.505 64.08 115.019 64.0056L117.959 63.5574" stroke="#2E2D36" stroke-linecap="round" stroke-linejoin="round"/>
<path d="M120.171 63.2292C120.425 63.1905 120.67 63.102 120.89 62.9686C121.11 62.8352 121.302 62.6597 121.455 62.452C121.762 62.0326 121.891 61.5084 121.813 60.9942L121.595 59.5415C121.52 59.0273 121.243 58.5641 120.827 58.2536C120.41 57.943 119.887 57.8106 119.373 57.8854L117.179 58.2166C116.795 58.2756 116.438 58.4468 116.152 58.7085C115.866 58.9703 115.663 59.3109 115.571 59.6875C115.509 59.9377 115.497 60.1976 115.536 60.4523L115.754 61.9014C115.808 62.2835 115.975 62.6409 116.232 62.9285C116.489 63.2161 116.826 63.4208 117.2 63.5168C117.448 63.58 117.707 63.5938 117.96 63.5575L120.171 63.2292Z" stroke="#2E2D36" stroke-linecap="round" stroke-linejoin="round"/>
<path d="M127.844 20.2671C126.724 20.3362 125.649 20.7363 124.756 21.4167C123.863 22.0971 123.191 23.0271 122.827 24.0892C122.555 24.8829 122.461 25.7273 122.554 26.5614C122.647 27.3956 122.924 28.1987 123.365 28.9129C123.806 29.6271 124.4 30.2346 125.104 30.6917C125.808 31.1488 126.604 31.444 127.436 31.556C128.268 31.6687 129.114 31.5954 129.914 31.3415C130.714 31.0875 131.448 30.6593 132.062 30.0877C132.677 29.516 133.157 28.8152 133.468 28.0357C133.779 27.2561 133.913 26.4173 133.861 25.5796C133.768 24.0772 133.082 22.6732 131.954 21.6762C131.395 21.1826 130.745 20.8041 130.039 20.5623C129.334 20.3205 128.588 20.2202 127.844 20.2671ZM125.208 28.5911C124.963 28.5166 124.748 28.3653 124.595 28.1593C124.442 27.9533 124.36 27.7037 124.36 27.4473C124.36 27.1908 124.442 26.9411 124.595 26.7351C124.747 26.5291 124.962 26.3776 125.208 26.303C125.453 26.2285 125.716 26.2348 125.957 26.3211C126.199 26.4073 126.406 26.569 126.549 26.7821C126.692 26.9953 126.762 27.2486 126.749 27.5048C126.737 27.7609 126.643 28.0063 126.48 28.2047C126.279 28.4498 125.989 28.6052 125.673 28.6368C125.516 28.6528 125.359 28.6368 125.208 28.5911ZM128.948 25.2789C128.621 25.1808 128.33 24.9878 128.112 24.7244C127.894 24.461 127.76 24.1389 127.725 23.7989C127.69 23.4588 127.757 23.1161 127.917 22.8141C128.077 22.512 128.323 22.2641 128.623 22.1017C128.924 21.9394 129.266 21.8698 129.607 21.9019C129.947 21.9339 130.27 22.0661 130.535 22.2818C130.8 22.4974 130.996 22.7868 131.096 23.1134C131.197 23.4401 131.199 23.7892 131.101 24.1168C130.968 24.5553 130.667 24.9236 130.264 25.1413C129.861 25.359 129.388 25.4085 128.948 25.2789ZM129.845 29.2012C129.762 29.1777 129.684 29.1379 129.615 29.0839C129.547 29.0299 129.491 28.963 129.449 28.8869C129.407 28.8108 129.38 28.7271 129.371 28.6408C129.362 28.5544 129.37 28.467 129.394 28.3837C129.419 28.3004 129.46 28.2229 129.515 28.1556C129.57 28.0884 129.638 28.0327 129.715 27.9919C129.791 27.9511 129.875 27.926 129.962 27.918C130.049 27.91 130.136 27.9193 130.219 27.9454C130.383 27.9969 130.52 28.1109 130.601 28.2628C130.682 28.4147 130.699 28.5922 130.65 28.7571C130.601 28.922 130.489 29.061 130.339 29.144C130.188 29.2271 130.011 29.2477 129.845 29.2012Z" stroke="#2E2D36"/>
</svg>
