<svg width="146" height="146" viewBox="0 0 146 146" fill="none" xmlns="http://www.w3.org/2000/svg">
<path d="M123.542 52.6237C123.542 52.6237 114.353 59.3984 110.421 65.7321C108.362 63.5165 106.645 61.005 105.329 58.2812C100.983 49.4089 95.4776 49.2745 93.0487 48.5532C91.4899 50.5144 88.5511 52.3615 85.9435 53.4924C84.1567 60.3296 83.0105 67.3185 82.521 74.3684C82.4287 75.6454 82.712 76.9208 83.3352 78.0387L95.2016 98.9576C98.0787 98.1586 100.773 96.809 103.136 94.9837C100.216 86.7621 97.7852 79.1573 93.2768 73.8331C94.176 72.0862 95.4224 69.799 96.8991 66.7112C98.8442 69.9798 102.114 73.2244 106.171 76.2598C107.463 77.2223 109.069 77.6639 110.671 77.4975C112.274 77.3312 113.755 76.5693 114.822 75.3628L129.848 58.3916C128.115 56.1007 125.978 54.1459 123.542 52.6237Z" fill="#DEDDFD"/>
<path d="M34.8766 56.6803C34.8768 57.9139 34.5112 59.1199 33.8258 60.1456C33.1406 61.1715 32.1666 61.971 31.0269 62.4431C29.8872 62.9153 28.6331 63.039 27.4231 62.7984C26.2132 62.5578 25.1018 61.9638 24.2295 61.0916C23.357 60.2194 22.7629 59.108 22.5222 57.8981C22.2815 56.6882 22.405 55.434 22.8771 54.2943C23.3491 53.1546 24.1485 52.1804 25.1742 51.495C26.2 50.8096 27.4059 50.4438 28.6395 50.4438C30.2933 50.4446 31.8792 51.1018 33.0487 52.2713C34.2182 53.4406 34.8757 55.0265 34.8766 56.6803Z" fill="#DEDDFD"/>
<path d="M48.2875 30.7126L54.8 28.381L47.7355 14.6384L34.0895 19.5231L35.6548 26.8251L25.8244 23.3721L25.1758 24.9039L36.4894 30.7147L37.3356 34.6486L38.4121 34.2629C38.067 33.8896 38.6045 33.6281 40.1916 33.6143L47.3389 31.0612C47.0593 30.2433 46.9903 29.623 48.2875 30.7126Z" fill="#DEDDFD"/>
<path fill-rule="evenodd" clip-rule="evenodd" d="M44.7577 75.0273C46.9148 73.3203 48.5488 71.0411 49.4738 68.4502C49.8214 67.2268 50.0078 65.9697 50.033 64.7102C50.5541 64.5511 51.0926 64.4445 51.6405 64.3935C53.7698 64.1979 55.8897 64.8552 57.5349 66.2211C59.1801 67.587 60.2161 69.5498 60.4155 71.6788C60.5624 73.2666 60.2352 74.8616 59.4753 76.2635C58.7154 77.6654 57.557 78.8101 56.1465 79.5539C54.736 80.2969 53.1368 80.6056 51.5509 80.44C49.9652 80.2751 48.4639 79.6432 47.2372 78.6249C46.0938 77.6755 45.2367 76.4298 44.7577 75.0273ZM44.7157 74.9016C44.5814 74.4171 44.4724 73.9268 44.3887 73.4336C44.4434 73.8665 44.5336 74.2965 44.6589 74.7186C44.6772 74.7796 44.6961 74.8406 44.7157 74.9016Z" fill="#DEDDFD"/>
<path d="M37.0441 119.985C35.9397 118.225 34.3681 116.806 32.5044 115.887C32.3012 117.966 32.7551 120.056 33.8023 121.862C34.8494 123.669 36.4369 125.102 38.3413 125.96C38.4769 123.886 38.0275 121.816 37.0441 119.985Z" fill="#1E13F8"/>
<path d="M49.4727 68.4499C48.5471 71.0429 46.911 73.3237 44.7514 75.0313C43.9918 72.3853 43.9891 69.5793 44.7435 66.9318C45.6682 64.3384 47.3044 62.0576 49.4647 60.3503C50.2222 62.9967 50.225 65.8021 49.4727 68.4499Z" fill="#1E13F8"/>
<path d="M25.3961 48.8429C24.5398 47.9553 23.9475 46.847 23.6855 45.6418C24.8991 45.8591 26.0274 46.4128 26.9418 47.2398C27.7977 48.1276 28.39 49.2359 28.6523 50.4408C27.4387 50.2236 26.3104 49.67 25.3961 48.8429Z" fill="#1E13F8"/>
<path d="M34.5169 92.1028C32.4923 90.5361 30.6252 88.7754 28.9421 86.8462C28.4167 88.6969 28.2251 90.6261 28.3763 92.5444C28.7982 95.9285 30.1606 99.1266 32.3088 101.776C33.9226 98.8164 34.6868 95.4687 34.5169 92.1028Z" fill="#1E13F8"/>
<path d="M78.6699 34.783C78.752 35.4592 79.304 35.8318 80.5461 36.0526C80.74 35.6386 80.9194 35.2246 81.0843 34.8106C79.8699 35.1832 78.8217 35.3212 78.6699 34.783Z" fill="#1E13F8"/>
<path d="M89.3231 34.8381C89.3231 34.8381 91.4615 31.1134 88.1225 29.1123C81.6928 25.2626 80.2852 29.8713 80.2852 29.8713C80.6411 29.8282 81.0028 29.8563 81.3478 29.9541C81.0856 30.671 81.0573 31.6509 81.4996 31.154C82.2863 30.2984 83.1274 31.5819 81.61 32.6307C82.3487 36.8691 84.0687 40.876 86.632 44.3315C87.346 45.3757 88.3542 46.1847 89.528 46.6562C90.7017 47.1277 91.9888 47.2406 93.2273 46.9805C94.0691 46.8417 94.8601 46.488 95.5254 45.9536C96.19 45.4191 96.7058 44.722 97.0217 43.9298C99.6852 37.0876 89.3231 34.8381 89.3231 34.8381Z" fill="#1E13F8"/>
<path d="M78.1191 46.1111C77.7247 46.4305 77.3136 46.7294 76.8887 47.0067C76.8887 47.0067 78.3254 48.3867 80.2851 49.9193L78.1191 46.1111Z" fill="#1E13F8"/>
<path d="M104.803 100.281C103.755 98.7779 103.133 97.9782 102.624 97.1785C100.883 97.9215 99.2301 98.8563 97.6953 99.9647L98.4682 101.33C99.8896 108.795 101.255 111.582 103.367 114.893C104.61 111.734 105.286 103.041 104.803 100.281Z" fill="#1E13F8"/>
<path d="M127.708 49.5604C126.631 51.037 126.052 51.8782 125.473 52.611C126.733 54.0198 128.144 55.2863 129.68 56.3881L130.757 55.2157C137.354 51.4511 139.56 49.2568 142.002 46.1974C138.608 46.0419 130.163 48.2086 127.708 49.5604Z" fill="#1E13F8"/>
<path d="M60.8301 20.1709C68.644 20.7128 76.1168 23.5818 82.2857 28.4084" stroke="#2E2D36" stroke-linecap="round" stroke-linejoin="round"/>
<path d="M88.5778 87.2705C84.3069 92.0179 78.9581 95.6693 72.9814 97.9173C67.0045 100.165 60.5749 100.944 54.2343 100.188C47.8936 99.4318 41.8275 97.1627 36.5469 93.5723C31.2664 89.982 26.9262 85.175 23.8918 79.5559C20.8574 73.9376 19.2178 67.6719 19.111 61.2871C19.0043 54.9025 20.4335 48.5855 23.2783 42.8687C25.8506 37.6996 29.5119 33.1579 34.0024 29.5518" stroke="#2E2D36" stroke-linecap="round" stroke-linejoin="round"/>
<path d="M98.0279 68.3948C97.457 71.2759 96.5687 74.085 95.3789 76.7703" stroke="#2E2D36" stroke-linecap="round" stroke-linejoin="round"/>
<path d="M95.8906 45.6694C96.4339 47.0089 96.9032 48.377 97.2976 49.7675" stroke="#2E2D36" stroke-linecap="round" stroke-linejoin="round"/>
<path d="M64.9551 45.0761C74.3381 37.6673 78.67 36.8531 80.9348 38.2876C82.8887 39.5268 84.1983 42.1104 85.5333 42.6849" stroke="#2E2D36" stroke-linecap="round" stroke-linejoin="round"/>
<path d="M91.4199 47.1187C91.9385 47.6241 92.4869 48.0986 93.0615 48.5394" stroke="#2E2D36" stroke-linecap="round" stroke-linejoin="round"/>
<path d="M80.2852 29.8715C80.2852 29.8715 81.6928 25.2613 88.1225 29.1124C91.4637 31.1121 89.3231 34.8382 89.3231 34.8382C89.3231 34.8382 99.6751 37.0834 97.0224 43.9314C96.7058 44.7235 96.1908 45.4204 95.5254 45.9549C94.8608 46.4893 94.0698 46.8431 93.228 46.9821C91.9896 47.2428 90.7025 47.1303 89.528 46.6588C88.3542 46.1872 87.3467 45.3778 86.6327 44.3331C84.0702 40.8772 82.3509 36.8704 81.6107 32.6323C83.1281 31.5835 82.279 30.2935 81.5003 31.1556C81.0544 31.6488 81.0863 30.6733 81.3485 29.9557C81.0028 29.858 80.6418 29.8294 80.2852 29.8715Z" stroke="#2E2D36" stroke-linecap="round" stroke-linejoin="round"/>
<path d="M80.5459 36.0526C77.6209 35.5282 78.531 34.1757 80.2837 29.8713" stroke="#2E2D36" stroke-linecap="round" stroke-linejoin="round"/>
<path d="M79.6499 37.7907C80.2048 36.8387 80.6799 35.8427 81.0714 34.8126C79.8569 35.1853 78.8081 35.3211 78.6562 34.7712" stroke="#2E2D36" stroke-linecap="round" stroke-linejoin="round"/>
<path d="M74.161 38.9776C69.7303 36.6322 57.8516 27.9806 57.8516 27.9806C58.6106 25.166 60.0306 23.1235 62.1704 21.9236C62.1704 21.9236 72.6844 29.5677 79.045 32.9343" stroke="#2E2D36" stroke-linecap="round" stroke-linejoin="round"/>
<path d="M96.9102 66.6974C98.856 69.966 102.125 73.2113 106.183 76.246C107.475 77.2084 109.081 77.6501 110.683 77.4837C112.286 77.3174 113.767 76.5554 114.834 75.349L129.846 58.3916C128.103 56.1062 125.968 54.1486 123.54 52.6099C123.54 52.6099 111.329 61.6064 109.026 68.5605" stroke="#2E2D36" stroke-linecap="round" stroke-linejoin="round"/>
<path d="M93.2676 73.9136C97.7935 79.2399 100.209 86.7322 103.134 94.9698C100.771 96.7951 98.0767 98.1447 95.1997 98.9436L83.3333 78.0393C82.7093 76.9214 82.4268 75.646 82.519 74.369C83.0079 67.3146 84.1533 60.3211 85.9409 53.4792C88.5492 52.3476 91.488 50.5012 93.0468 48.54C95.4757 49.2577 100.981 49.3957 105.327 58.268C106.641 60.9892 108.355 63.4983 110.412 65.7124" stroke="#2E2D36" stroke-linecap="round" stroke-linejoin="round"/>
<path d="M92.3027 75.8733C93.061 74.1068 94.8871 70.9079 96.4429 67.7047C101.631 57.018 98.622 54.7212 97.7504 53.6172" stroke="#2E2D36" stroke-linecap="round" stroke-linejoin="round"/>
<path d="M76.8887 47.0067C77.3136 46.7294 77.7247 46.4305 78.1191 46.1111L80.2851 49.9193" stroke="#2E2D36" stroke-linecap="round" stroke-linejoin="round"/>
<path d="M85.9561 53.4793C83.071 52.2787 79.1596 49.1852 76.889 47.0068C74.4856 48.6502 71.9892 50.1538 69.4127 51.5102C66.1703 53.0551 64.3239 52.0186 60.9268 49.5919C56.9972 46.7867 51.3789 42.7206 51.3789 42.7206C51.5687 41.2843 52.0953 39.9131 52.9158 38.719C53.7363 37.5249 54.8274 36.5416 56.1002 35.8494C63.0492 40.5096 67.1894 43.338 67.1894 43.338" stroke="#2E2D36" stroke-linecap="round" stroke-linejoin="round"/>
<path d="M55.5858 21.5924C56.4575 22.4473 57.5325 21.4115 56.7444 20.5297C56.1524 19.8666 55.4195 19.109 54.9372 18.6122C54.7977 18.4452 54.5987 18.3393 54.3824 18.317C54.1661 18.2945 53.9496 18.3573 53.7789 18.492C53.6081 18.6267 53.4967 18.8226 53.4682 19.0382C53.4396 19.2538 53.4963 19.472 53.6261 19.6465C54.006 20.1077 54.7854 20.8057 55.5858 21.5924Z" stroke="#2E2D36" stroke-linecap="round" stroke-linejoin="round"/>
<path d="M58.4729 17.3011C58.1823 16.9561 57.9644 16.7048 57.6862 16.3765C57.5539 16.2057 57.3601 16.0933 57.1461 16.0633C56.9321 16.0332 56.7149 16.0878 56.5406 16.2154C56.3662 16.3431 56.2486 16.5338 56.2127 16.7468C56.1768 16.9599 56.2255 17.1786 56.3483 17.3563C56.6516 17.751 56.9802 18.1256 57.3318 18.4778" stroke="#2E2D36" stroke-linecap="round" stroke-linejoin="round"/>
<path d="M57.2963 18.5157C56.9927 18.1844 56.2743 17.4537 55.9721 17.1218C55.8367 16.9443 55.6363 16.8278 55.415 16.7981C55.1937 16.7683 54.9697 16.8276 54.7922 16.9631C54.6147 17.0985 54.4982 17.2989 54.4685 17.5202C54.4387 17.7414 54.4981 17.9655 54.6335 18.143C55.0032 18.6144 55.9075 19.4904 56.7029 20.309C57.3696 20.9954 58.1105 20.2814 58.0415 19.6328" stroke="#2E2D36" stroke-linecap="round" stroke-linejoin="round"/>
<path d="M53.3776 21.7581C53.3776 21.7581 53.1031 23.9182 58.1454 27.0161" stroke="#2E2D36" stroke-linecap="round" stroke-linejoin="round"/>
<path d="M49.3926 18.212C50.7581 15.7555 53.9366 13.3295 56.7599 14.8868C57.205 15.1391 57.5874 15.4884 57.8789 15.9088C58.1704 16.3291 58.3634 16.8097 58.4436 17.315" stroke="#2E2D36" stroke-linecap="round" stroke-linejoin="round"/>
<path d="M36.4763 30.685L25.1758 24.9039L25.8244 23.3721L35.6483 26.8077" stroke="#2E2D36" stroke-linecap="round" stroke-linejoin="round"/>
<path d="M40.1875 33.6105L47.3224 31.0618" stroke="#2E2D36" stroke-linecap="round" stroke-linejoin="round"/>
<path d="M48.2879 30.7126L54.8004 28.3948L47.7359 14.6384L34.0762 19.5224L37.3324 34.6312L38.395 34.2586" stroke="#2E2D36" stroke-linecap="round" stroke-linejoin="round"/>
<path d="M3.99609 46.0697L6.36908 41.0891L14.0408 38.536L16.5939 30.3123" stroke="#2E2D36" stroke-linecap="round" stroke-linejoin="round"/>
<path d="M13.7227 31.9961L16.607 30.2717L18.0553 33.2933" stroke="#2E2D36" stroke-linecap="round" stroke-linejoin="round"/>
<path d="M96.8145 98.4606L98.4705 101.33C99.892 108.795 101.258 111.582 103.369 114.894C104.61 111.748 105.287 103.041 104.804 100.282C103.735 98.8666 102.741 97.398 101.826 95.8799" stroke="#2E2D36" stroke-linecap="round" stroke-linejoin="round"/>
<path d="M102.621 97.1787C100.878 97.9239 99.223 98.8609 97.6875 99.973" stroke="#2E2D36" stroke-linecap="round" stroke-linejoin="round"/>
<path d="M127.639 55.866L119.926 63.8137" stroke="#2E2D36" stroke-linecap="round" stroke-linejoin="round"/>
<path d="M125.445 52.6099C126.716 54.0189 128.136 55.2854 129.681 56.3869" stroke="#2E2D36" stroke-linecap="round" stroke-linejoin="round"/>
<path d="M128.909 57.2461L130.73 55.2181C137.325 51.4651 139.533 49.2708 141.975 46.2078C138.581 46.056 130.136 48.2227 127.681 49.5744C126.777 50.9141 125.8 52.2039 124.756 53.4379" stroke="#2E2D36" stroke-linecap="round" stroke-linejoin="round"/>
<path d="M99.2517 97.395L92.8555 85.1589" stroke="#2E2D36" stroke-linecap="round" stroke-linejoin="round"/>
<path d="M51.5852 41.6942C49.7543 40.0512 47.7777 38.5781 45.68 37.2932C44.0013 36.3698 42.2238 35.6389 40.3812 35.1142C37.6785 34.3493 37.47 33.5707 40.533 33.6106C43.7872 33.872 46.9904 34.5776 50.0533 35.7076" stroke="#2E2D36" stroke-linecap="round" stroke-linejoin="round"/>
<path d="M48.4402 35.1281C50.0265 35.1971 47.8032 32.3418 47.4879 31.513C47.0579 30.3828 46.6366 29.1081 49.0474 31.4164C51.0467 33.1716 53.1515 34.8028 55.3499 36.3011" stroke="#2E2D36" stroke-linecap="round" stroke-linejoin="round"/>
<path d="M42.8508 35.9561C42.1469 35.9423 40.6848 36.0142 40.257 36.0389C38.3125 36.15 38.4759 36.6766 38.7803 36.7565C39.978 37.071 41.9668 37.3376 43.0716 37.6528C44.8497 38.1569 48.3289 39.0191 49.5702 40.0542" stroke="#2E2D36" stroke-linecap="round" stroke-linejoin="round"/>
<path d="M42.9393 37.6165C42.6183 37.6833 42.3648 37.737 42.213 37.777C40.3092 38.191 40.5576 38.7031 40.875 38.7292C42.1164 38.8316 44.1175 38.7822 45.2629 38.9086C46.6451 39.0938 48.0069 39.4081 49.3305 39.8471" stroke="#2E2D36" stroke-linecap="round" stroke-linejoin="round"/>
<path d="M34.8766 56.6803C34.8768 57.9139 34.5111 59.1199 33.8258 60.1456C33.1406 61.1715 32.1665 61.971 31.0269 62.4431C29.8871 62.9153 28.6331 63.039 27.4231 62.7984C26.2132 62.5578 25.1017 61.9638 24.2294 61.0916C23.357 60.2194 22.7629 59.108 22.5222 57.8981C22.2815 56.6882 22.405 55.434 22.8771 54.2943C23.3491 53.1546 24.1485 52.1804 25.1742 51.495C26.2 50.8096 27.4059 50.4438 28.6395 50.4438C30.2933 50.4446 31.8792 51.1018 33.0487 52.2713C34.2182 53.4406 34.8757 55.0265 34.8766 56.6803Z" stroke="#2E2D36" stroke-linecap="round" stroke-linejoin="round"/>
<path d="M50.0791 64.6957C50.5856 64.5445 51.1081 64.4426 51.6395 64.3932C53.7688 64.1976 55.8887 64.8549 57.5339 66.2208C59.1791 67.5867 60.2151 69.5495 60.4145 71.6785C60.5614 73.2663 60.2341 74.8614 59.4743 76.2633C58.7144 77.6651 57.556 78.8098 56.1455 79.5536C54.735 80.2967 53.1358 80.6054 51.5499 80.4398C49.9641 80.2749 48.4629 79.643 47.2362 78.6246C46.0937 77.676 45.237 76.4318 44.7578 75.0306" stroke="#2E2D36" stroke-linecap="round" stroke-linejoin="round"/>
<path d="M24.4722 95.4943C27.612 96.8279 30.3134 99.0178 32.2681 101.814C28.9402 102.559 25.4703 102.358 22.251 101.232C19.1115 99.8982 16.4102 97.709 14.4551 94.9132C17.7829 94.1673 21.2529 94.3692 24.4722 95.4943Z" stroke="#2E2D36" stroke-linecap="round" stroke-linejoin="round"/>
<path d="M37.0441 119.985C38.0295 121.815 38.4792 123.886 38.3413 125.96C36.4369 125.102 34.8494 123.669 33.8023 121.862C32.7552 120.056 32.3012 117.966 32.5044 115.887C34.3694 116.805 35.9415 118.224 37.0441 119.985Z" stroke="#2E2D36" stroke-linecap="round" stroke-linejoin="round"/>
<path d="M61.0364 76.2322C59.1395 78.2231 56.7197 79.6387 54.0547 80.3164C54.3478 77.5694 55.4964 74.9836 57.3384 72.9243C59.1803 70.8651 61.6225 69.4364 64.3202 68.8401C63.9347 71.5616 62.7975 74.1214 61.0364 76.2322Z" stroke="#2E2D36" stroke-linecap="round" stroke-linejoin="round"/>
<path d="M49.4727 68.4501C48.5471 71.0432 46.9111 73.3239 44.7514 75.0316C43.9918 72.3856 43.9891 69.5796 44.7435 66.932C45.6682 64.3386 47.3044 62.0578 49.4647 60.3506C50.2223 62.9969 50.2251 65.8024 49.4727 68.4501Z" stroke="#2E2D36" stroke-linecap="round" stroke-linejoin="round"/>
<path d="M25.3961 48.8429C24.5398 47.9553 23.9475 46.847 23.6855 45.6418C24.8992 45.8591 26.0274 46.4128 26.9418 47.2398C27.7978 48.1276 28.39 49.2359 28.6523 50.4408C27.4387 50.2236 26.3105 49.67 25.3961 48.8429Z" stroke="#2E2D36" stroke-linecap="round" stroke-linejoin="round"/>
<path d="M29.4961 62.8586C29.9646 70.6073 30.465 75.755 38.6982 88.4843C46.0467 99.8516 38.0343 110.384 38.2341 123.528" stroke="#2E2D36" stroke-linecap="round" stroke-linejoin="round"/>
<path d="M48.2871 79.3918C48.2871 79.3918 41.928 85.751 41.75 97.478" stroke="#2E2D36" stroke-linecap="round" stroke-linejoin="round"/>
<path d="M32.3086 101.772C32.3086 101.772 39.4145 105.898 38.6416 117.542" stroke="#2E2D36" stroke-linecap="round" stroke-linejoin="round"/>
<path d="M48.0667 125.408C47.9417 124.947 47.639 124.554 47.225 124.317C46.8111 124.078 46.3197 124.014 45.8586 124.139L31.1232 128.084C30.8948 128.146 30.6808 128.252 30.4934 128.396C30.306 128.54 30.1488 128.72 30.0309 128.925C29.913 129.13 29.8366 129.356 29.8061 129.591C29.7756 129.825 29.7915 130.063 29.8531 130.292C29.9147 130.52 30.0206 130.734 30.165 130.922C30.3092 131.109 30.489 131.266 30.694 131.384C30.899 131.502 31.1252 131.579 31.3597 131.609C31.5943 131.64 31.8325 131.624 32.0609 131.562L46.7971 127.616C47.2579 127.491 47.6503 127.188 47.8883 126.774C48.1264 126.36 48.1905 125.869 48.0667 125.408Z" stroke="#2E2D36" stroke-linecap="round" stroke-linejoin="round"/>
<path d="M30.436 54.0422L27.6483 54.2906C27.3365 54.3366 27.0542 54.5001 26.859 54.7474C26.6639 54.9948 26.5708 55.3075 26.5986 55.6214C26.6264 55.9353 26.7732 56.2266 27.0089 56.4358C27.2445 56.6449 27.5513 56.7561 27.8662 56.7464L29.4257 56.6084C29.7417 56.5972 30.05 56.7075 30.2871 56.9168C30.5241 57.1261 30.6719 57.4184 30.6998 57.7333C30.7277 58.0483 30.6337 58.3621 30.4373 58.6098C30.2407 58.8576 29.9566 59.0205 29.6436 59.0649L26.8566 59.3272" stroke="#2E2D36" stroke-linecap="round" stroke-linejoin="round"/>
<path d="M28.3359 53.2998L28.957 60.0607" stroke="#2E2D36" stroke-linecap="round" stroke-linejoin="round"/>
<path d="M56.0274 71.0162L53.0602 69.3195C52.7108 69.1201 52.2964 69.0677 51.9084 69.1738C51.5203 69.28 51.1902 69.5359 50.9909 69.8853C50.7915 70.2348 50.7391 70.6491 50.8452 71.0372C50.9513 71.4252 51.2072 71.7553 51.5567 71.9547L53.212 72.9069C53.3851 73.0057 53.5369 73.1372 53.659 73.2948C53.7811 73.4524 53.871 73.6325 53.9235 73.8243C53.9761 74.0168 53.9903 74.2173 53.9653 74.4148C53.9403 74.6124 53.8766 74.8034 53.7779 74.9763C53.6792 75.1492 53.5473 75.301 53.3899 75.423C53.2325 75.545 53.0525 75.6351 52.8604 75.6881C52.6682 75.7404 52.4676 75.7542 52.27 75.7295C52.0723 75.7048 51.8815 75.6409 51.7085 75.5421L48.7305 73.8454" stroke="#2E2D36" stroke-linecap="round" stroke-linejoin="round"/>
<path d="M54.4419 68.8088L50.3301 76.0389" stroke="#2E2D36" stroke-linecap="round" stroke-linejoin="round"/>
<path d="M55.3107 115.004C55.7412 115.185 56.2252 115.191 56.6604 115.022C57.0957 114.853 57.4482 114.521 57.6433 114.097C57.8385 113.673 57.8612 113.189 57.7065 112.749C57.5518 112.308 57.2318 111.945 56.8142 111.735L47.6252 107.554C47.1944 107.372 46.7095 107.364 46.2731 107.533C45.8369 107.702 45.4835 108.035 45.2879 108.459C45.0923 108.884 45.0699 109.369 45.2254 109.81C45.3809 110.251 45.7021 110.615 46.1209 110.823L55.3107 115.004Z" stroke="#2E2D36" stroke-linecap="round" stroke-linejoin="round"/>
<path d="M75.8276 104.062C75.8538 104.595 75.7208 105.125 75.4455 105.583C75.171 106.041 74.7664 106.407 74.2834 106.635C73.8004 106.863 73.2607 106.943 72.7326 106.865C72.2043 106.786 71.7112 106.552 71.3156 106.193C70.92 105.835 70.6398 105.367 70.5103 104.848C70.3808 104.33 70.4078 103.785 70.588 103.282C70.7682 102.78 71.0935 102.342 71.5227 102.023C71.9519 101.705 72.4657 101.522 72.9992 101.496C73.3537 101.479 73.7074 101.532 74.0415 101.651C74.3756 101.771 74.6822 101.955 74.9451 102.193C75.208 102.432 75.4209 102.719 75.5719 103.04C75.7237 103.361 75.8102 103.708 75.8276 104.062Z" stroke="#2E2D36" stroke-linecap="round" stroke-linejoin="round"/>
<path d="M83.1266 110.575C83.1528 111.108 83.0198 111.637 82.7445 112.096C82.47 112.553 82.0654 112.919 81.5824 113.147C81.0994 113.376 80.5597 113.455 80.0316 113.377C79.5036 113.298 79.0104 113.065 78.6145 112.706C78.2187 112.347 77.939 111.879 77.809 111.361C77.6797 110.843 77.7066 110.297 77.8867 109.794C78.0676 109.292 78.3923 108.854 78.8215 108.536C79.2508 108.218 79.7651 108.035 80.2982 108.008C80.6527 107.99 81.0071 108.043 81.3412 108.162C81.6754 108.282 81.9826 108.466 82.2455 108.704C82.5078 108.942 82.7213 109.231 82.8724 109.551C83.0235 109.872 83.1099 110.22 83.1266 110.575Z" stroke="#2E2D36" stroke-linecap="round" stroke-linejoin="round"/>
<path d="M70.9023 113.872L82.6438 100.917" stroke="#2E2D36" stroke-linecap="round" stroke-linejoin="round"/>
<path d="M111.84 39.3088L112.157 45.9041" stroke="#2E2D36" stroke-linecap="round" stroke-linejoin="round"/>
<path d="M115.304 42.4409L108.695 42.7721" stroke="#2E2D36" stroke-linecap="round" stroke-linejoin="round"/>
<path d="M61.5053 22.3515C60.5255 21.0819 61.0528 18.8309 60.1536 17.7704C59.0386 16.4572 58.8781 16.7586 56.885 18.9711C56.4013 19.5079 57.161 20.5161 58.9413 19.0539C58.3477 19.453 57.9078 20.0425 57.6941 20.7251C57.4805 21.4078 57.5058 22.1429 57.7661 22.8091" stroke="#2E2D36" stroke-linecap="round" stroke-linejoin="round"/>
<path d="M52.7988 24.6417L54.6198 22.9036" stroke="#2E2D36" stroke-linecap="round" stroke-linejoin="round"/>
<path d="M54.6236 22.9035C55.4909 23.7024 56.5121 22.6856 55.7277 21.8546C55.1466 21.2365 54.7064 20.8196 54.2234 20.3365C54.0842 20.1786 53.8888 20.0812 53.6789 20.0651C53.4689 20.049 53.261 20.1154 53.0993 20.2503C52.9376 20.3851 52.8348 20.5778 52.813 20.7872C52.7911 20.9966 52.8518 21.2062 52.9821 21.3716C53.346 21.7921 53.8188 22.1604 54.6236 22.9035Z" stroke="#2E2D36" stroke-linecap="round" stroke-linejoin="round"/>
<path d="M34.4647 91.5945C33.9811 88.3499 32.6364 85.2949 30.5707 82.7468C28.9323 85.7394 28.1717 89.1336 28.3764 92.5388C28.7983 95.9228 30.1607 99.1209 32.3089 101.77C34.0271 98.6691 34.778 95.1253 34.4647 91.5945Z" stroke="#2E2D36" stroke-linecap="round" stroke-linejoin="round"/>
<path d="M54.082 44.6903C54.61 41.8148 56.2012 39.2435 58.5389 37.4878" stroke="#2E2D36" stroke-linecap="round" stroke-linejoin="round"/>
<path d="M60.25 29.7095C61.0091 27.2857 62.486 25.1493 64.4854 23.5828" stroke="#2E2D36" stroke-linecap="round" stroke-linejoin="round"/>
</svg>
